<svg xmlns="http://www.w3.org/2000/svg" viewBox="0 0 240.86 374.5"><defs><style>.cls-1{fill:#f46b9f;}</style></defs><title>Acondicionador</title><g id="Capa_2" data-name="Capa 2"><g id="Capa_9" data-name="Capa 9"><path class="cls-1" d="M227.43,0h-214A13.38,13.38,0,0,0,.05,13.38v53.5a13.37,13.37,0,0,0,0,2.41l40.13,212.8v79A13.38,13.38,0,0,0,53.55,374.5H187.31a13.38,13.38,0,0,0,13.38-13.38v-79l40.13-212.8a13.37,13.37,0,0,0,0-2.41V13.38A13.38,13.38,0,0,0,227.43,0Zm-53.5,347.75h-107v-53.5h107ZM214.06,65.67,176.21,267.5H64.66L26.8,65.67V26.75H214.06Z"/><path class="cls-1" d="M80.31,133.75h80.25a13.38,13.38,0,0,0,13.38-13.38V66.88A13.38,13.38,0,0,0,160.56,53.5H80.31A13.38,13.38,0,0,0,66.93,66.88v53.5A13.38,13.38,0,0,0,80.31,133.75Zm13.38-53.5h53.5V107H93.68Z"/></g></g></svg>