<svg xmlns="http://www.w3.org/2000/svg" viewBox="0 0 432.92 418.47"><defs><style>.cls-1{fill:#f46b9f;}</style></defs><title>Aire-libre</title><g id="Capa_2" data-name="Capa 2"><g id="Capa_2-2" data-name="Capa 2"><path class="cls-1" d="M389.6,411.26H404a7.21,7.21,0,0,0,7.21-7.21V389.61a65,65,0,0,0-64.93-64.93H331.88a7.21,7.21,0,0,0-7.21,7.21v14.43A65,65,0,0,0,389.6,411.26Zm-50.5-72.15h7.21a50.56,50.56,0,0,1,50.5,50.5v7.21H389.6a50.56,50.56,0,0,1-50.5-50.5Z"/><path class="cls-1" d="M238.09,274.17a7.21,7.21,0,0,0-7.21-7.21H216.45a64.61,64.61,0,0,0-40.72,14.43h-35a18,18,0,1,1,18-18V267h14.43v-3.61a32.47,32.47,0,1,0-32.47,32.47h21.8a64.44,64.44,0,0,0-10.56,28.86H61.33a18,18,0,1,1,18-18v3.61H93.79v-3.61a32.47,32.47,0,1,0-32.47,32.47h90.19v7.21a7.21,7.21,0,0,0,7.21,7.21h-18A32.47,32.47,0,1,0,173.16,386V382.4H158.73V386a18,18,0,1,1-18-18h119V353.54H173.16a64.61,64.61,0,0,0,40.72-14.43H317.45V324.68H227.11a64.44,64.44,0,0,0,10.56-28.86H346.31V281.39H238.09Zm-64.93,64.93h-7.21v-7.21a50.56,50.56,0,0,1,50.5-50.5h7.21v7.21A50.56,50.56,0,0,1,173.16,339.11Z"/><path class="cls-1" d="M418.46,66.17V64.94a36,36,0,0,0-35.91-36.06q-1.34,0-2.69.09a43.17,43.17,0,0,0-81.53,0,36,36,0,0,0-38.5,33.25q-.1,1.36-.1,2.72v1.23a21.64,21.64,0,0,0,7.21,42.06h144.3a21.64,21.64,0,0,0,7.21-42.06ZM411.25,93.8H266.95a7.22,7.22,0,1,1-.36-14.43c.16,0,.72.09.92.09a7.21,7.21,0,0,0,7.47-9,21.24,21.24,0,0,1-.82-5.48A21.64,21.64,0,0,1,295.81,43.3a21.23,21.23,0,0,1,5.86.94,7.21,7.21,0,0,0,9.08-5.77,28.74,28.74,0,0,1,56.71,0,7.21,7.21,0,0,0,9.08,5.77,21.23,21.23,0,0,1,5.86-.94A21.64,21.64,0,0,1,404,64.94a21.24,21.24,0,0,1-.82,5.48,7.21,7.21,0,0,0,7.47,9l.56-.09a7.21,7.21,0,1,1,0,14.43Z"/><path class="cls-1" d="M259.73,115.45a34.8,34.8,0,0,0-9,1.2,50.78,50.78,0,0,0-41.85-36.8A64.93,64.93,0,0,0,79.62,81.44a50.24,50.24,0,0,0-34.56,35.22,34.69,34.69,0,0,0-9-1.2,36.07,36.07,0,0,0,0,72.15H259.73a36.07,36.07,0,0,0,0-72.15Zm0,57.72H36.07a21.64,21.64,0,1,1,0-43.29A21.29,21.29,0,0,1,47,133a7.21,7.21,0,0,0,10.87-5.7A35.86,35.86,0,0,1,87.8,94.35a7.94,7.94,0,0,0,6-7.76,50.5,50.5,0,1,1,101,0A7.21,7.21,0,0,0,202,93.8a36.15,36.15,0,0,1,35.93,33.46,7.21,7.21,0,0,0,10.87,5.7,21.29,21.29,0,0,1,10.92-3.09,21.64,21.64,0,0,1,0,43.29Z"/></g></g></svg>