<svg xmlns="http://www.w3.org/2000/svg" viewBox="0 0 275 287.63"><defs><style>.cls-1{fill:#f46b9f;}</style></defs><title>Barba</title><g id="Capa_2" data-name="Capa 2"><g id="Capa_4" data-name="Capa 4"><path class="cls-1" d="M267,0s-10.14,50.58-19.43,85.58-40.05,22.76-48.13,20.63-26.58-20.63-39.64-24.89c-8.8-2.82-17.4,5-22.35,11.11-5-6.09-13.55-13.92-22.35-11.11C102,85.54,83.44,104.11,75.43,106.2S36.65,120.54,27.29,85.58,8.08,0,8.08,0,7.66,15.16,5.57,20.22-1.62,45.93.51,51.43s5.05,11.38,2.1,16.85S3.88,87.67,3.88,87.67,1.75,121,6,128.59l2.1-7.6s2.54,20.25,3.44,29.95a231.7,231.7,0,0,1,.83,35.41,88.81,88.81,0,0,0,3-14.34s2.1,27.81,11.38,37.1V198.55S38,226.33,55,240.29l-2.13-8.42s19,18.12,29.95,24.45l-1.27-7.56,40.36,29.16-3-8,18.57,17.74,18.57-17.81-3,8.08,40.47-29.09-1.27,7.56c11-6.33,29.95-24.45,29.95-24.45L220,240.29c16.88-13.75,28.26-41.74,28.26-41.74v10.59c9.28-9.28,11.38-37.1,11.38-37.1a88.81,88.81,0,0,0,3,14.34,231.7,231.7,0,0,1,.83-35.41c.83-9.7,3.44-29.95,3.44-29.95l2.1,7.6c4.23-7.6,2.1-40.91,2.1-40.91S275.36,74,272.4,68.32s0-11.38,2.1-16.85-2.92-26.16-5.05-31.22S267,0,267,0ZM176.3,153.44v5.05l-9.7,3.44v6.33H154l-8.84,8.87-4.64-7.19-3,1.62-3-1.62-4.64,7.19-8.84-8.87H108.43v-6.39l-9.7-3.44v-5L81,148.8a80,80,0,0,0,27.51-28.23l3,3.44,8.42-6.88,3.85,5.12,6.88-5.05,4.61,2.92,2.54-2.34,2.54,2.34,4.61-2.92,6.88,5.05,3.78-5.05,8.42,6.88,3-3.44a122.6,122.6,0,0,0,27.51,28.23Z"/></g></g></svg>