<svg xmlns="http://www.w3.org/2000/svg" viewBox="0 0 354.39 359.56"><defs><style>.cls-1{fill:#f46b9f;}</style></defs><title>BobbyPin</title><g id="Capa_2" data-name="Capa 2"><g id="Capa_8" data-name="Capa 8"><path class="cls-1" d="M273,335.15a21.64,21.64,0,0,0-12.12-4.57C214.21,290.89,22.44,127.67,20.39,125.95c-6.64-5.6-3.93-13.45-2.94-15.71,2.4-5.49,8-10.63,15.14-9.77,7.53.92,9.54,7.82,12.33,23.36,2.08,11.61,4.24,23.6,13,30.86,10.73,8.87,21.22,7.54,29.66,6.48,7.92-1,12.28-1.32,17.41,2.93s5.45,8.38,5.77,16.06c.33,8,.77,18.85,11.58,27.79s21.22,7.54,29.66,6.48c7.9-1,12.27-1.32,17.4,2.92s5.45,8.38,5.76,16.06c.32,8,.76,18.85,11.57,27.79s21.21,7.54,29.65,6.48c7.91-1,12.28-1.32,17.41,2.92,5.77,4.77,6.56,9.22,7.65,15.36a46.83,46.83,0,0,0,4.19,13.9c-.18,5,2.81,10.83,8.31,15,7.73,5.84,17.35,6.13,21.49.66s1.23-14.65-6.5-20.49a22.39,22.39,0,0,0-9.83-4.3,40.65,40.65,0,0,1-1.84-7.57c-1.3-7.3-2.91-16.4-13.23-24.93-10.73-8.87-21.22-7.55-29.66-6.48-7.9,1-12.27,1.33-17.4-2.92s-5.45-8.38-5.77-16.06c-.32-8-.76-18.85-11.57-27.79s-21.23-7.54-29.66-6.47c-7.9,1-12.27,1.32-17.41-2.93s-5.45-8.38-5.77-16.06c-.33-8-.77-18.85-11.58-27.79S94,144.16,85.57,145.23c-7.91,1-12.27,1.32-17.41-2.92-4.24-3.51-5.87-12.56-7.44-21.32-2.58-14.35-6.11-34-26.19-36.46C21.25,82.91,8.47,90.66,2.74,103.82c-5.47,12.54-2.6,26,7.3,34.4,2,1.67,192.53,163.85,239.74,204,.64,4.43,3.52,9.19,8.21,12.73,7.73,5.84,17.35,6.14,21.49.66S280.7,341,273,335.15Z"/><path class="cls-1" d="M342.49,187.57A21.6,21.6,0,0,0,329.64,186C275,158.4,50.13,45,47.74,43.78c-7.78-3.88-7-12.14-6.56-14.57,1-5.9,5.27-12.22,12.41-13.06,7.53-.86,11.11,5.36,17.48,19.79C75.83,46.72,80.75,57.87,91,62.86c12.52,6.09,22.41,2.33,30.35-.69C128.79,59.34,133,58,139,60.91s7.27,6.86,9.39,14.26c2.19,7.66,5.19,18.14,17.8,24.28s22.4,2.33,30.35-.69c7.45-2.83,11.62-4.18,17.61-1.26s7.27,6.86,9.38,14.25c2.19,7.66,5.19,18.14,17.8,24.28s22.4,2.33,30.34-.7c7.45-2.84,11.62-4.18,17.61-1.26,6.74,3.28,8.55,7.41,11.06,13.13,2.6,5.93,5.76,13.11,14.5,18.74a22.06,22.06,0,0,0,9,7c8.88,3.86,18.31,1.88,21-4.42s-2.26-14.53-11.14-18.38a20.8,20.8,0,0,0-14.13-1.19,33.12,33.12,0,0,1-4.56-8.21c-3-6.8-6.69-15.25-18.74-21.11-12.51-6.09-22.4-2.33-30.35.7-7.44,2.83-11.61,4.18-17.6,1.26s-7.27-6.86-9.38-14.25c-2.19-7.66-5.19-18.14-17.8-24.28s-22.4-2.33-30.35.69c-7.45,2.83-11.62,4.17-17.6,1.26s-7.27-6.86-9.39-14.26c-2.19-7.66-5.19-18.14-17.8-24.28s-22.41-2.32-30.35.69C108.17,50,104,51.35,98,48.43c-5-2.41-8.67-10.83-12.26-19C79.86,16.12,71.85-2.13,51.71.2,38.42,1.76,27.82,12.3,25.35,26.44,23,39.92,29,52.37,40.54,58.15L321.61,199.94c1.67,4.15,5.59,8.11,11,10.45,8.89,3.85,18.31,1.88,21-4.42S351.39,191.43,342.49,187.57Z"/></g></g></svg>