<svg xmlns="http://www.w3.org/2000/svg" viewBox="0 0 371.7 239.98"><defs><style>.cls-1{fill:#f46b9f;}</style></defs><title>Boca</title><g id="Capa_2" data-name="Capa 2"><g id="Capa_4" data-name="Capa 4"><path class="cls-1" d="M368.29,131.53c-1.31-.08-7.55-9.32-8.22-10.36Q342.23,93.49,324,66.09c-15-22.36-30.37-44.23-56.35-55.61-13-5.68-24.75-13.58-40.52-9.22a117.28,117.28,0,0,0-23.91,8.21,31.51,31.51,0,0,1-21.56,4.13c-11.08-2.36-22.06-5.28-33.18-7.39A55.32,55.32,0,0,0,99,20.72,376.56,376.56,0,0,0,69,52.1c-7.17,8.25-13.39,17.34-19.73,26.27C35.69,97.49,23.87,118,4,131.88a21,21,0,0,0-4,5.27,81.28,81.28,0,0,0,7.38,8.17c12,10.06,24.15,19.95,36.29,29.84,14.18,11.55,28,23.67,42.73,34.41,17.86,13,39.72,17,60.12,24.05,14.33,5,29.64,5,44.72,5.17,17.93.21,35.81,3.3,53.8-1.32,13.26-3.4,26.76-5.76,38.88-12.51a211.72,211.72,0,0,0,22-12.93,72.44,72.44,0,0,0,16.7-15.8C332.32,182.57,340.7,168,349.94,154c4.57-6.91,19.23-16.76,19.54-17.18.81-1.08,1.48-2.25,2.21-3.39C370.56,132.79,369.46,131.6,368.29,131.53ZM334.7,163.35c-5.32,8-11.1,15.74-16.51,23.71a84.6,84.6,0,0,1-31.54,27.06c-12.2,6.43-24.42,13.09-38.14,15.56a94.17,94.17,0,0,1-20.3.92c-19-.76-38-1.14-56.91-3.21a365,365,0,0,1-48.62-8.88,103.85,103.85,0,0,1-41.74-21.6c-8.83-7.4-18.7-13.56-27.57-20.92-6.72-5.58-12.59-12.18-18.84-18.32-3.93-3.86-7.88-7.69-12-11.67,7.2-1.13,14.92-2.21,22.59-3.58a46.13,46.13,0,0,1,23.6,2.69,186.66,186.66,0,0,0,23.84,5.14c16.56,3.32,33,7.31,49.72,9.69,16.32,2.33,32.86,3.3,49.34,4.32a377.78,377.78,0,0,0,42.9,1.15,196.59,196.59,0,0,0,33-5.9c17.22-3.93,34.34-8.3,51.44-12.71,6.3-1.62,12.74-2.39,17.77-8.07,1.8-2,8-.22,13.44-.15-5.69,9.12-10.41,17.07-15.52,24.78ZM191.06,113.25c.07,6.59-6.88,10.41-15.6,10.18-14.23-.38-28.42-2.33-42.61-3.81a20.32,20.32,0,0,1-5.53-2.54c10.94-8.59,51.93-20.49,63.89-18.17C191.15,103.65,191,108.45,191.06,113.25Zm-59.33,13a325.75,325.75,0,0,0,35.83,4.41,61.14,61.14,0,0,0,19.77-4.46,12.17,12.17,0,0,1,10.58.4,63,63,0,0,0,20.46,4.91c6.41.7,13-.54,19.48-.19,7.15.39,12.1-4.18,17.92-6.82a2.75,2.75,0,0,0,1.36-1.64c1.53-6.57,5.16-5.79,10.37-3.91,12,4.35,24.33,8.1,36.6,11.78,6.17,1.85,12.55,3,20.11,4.81a92,92,0,0,1-10.7,5.16,10.64,10.64,0,0,1-5.52-.8,38.62,38.62,0,0,0-8.81-2.73c-9.32-.17-19.19-1.57-27.85.92-14.08,4.06-28-.38-41.65,1.82-8.75,1.41-16.71-.8-25-1.2A101.92,101.92,0,0,0,179,140.47a34.79,34.79,0,0,1-11-.66c-10.56-.74-21.16-.88-31.75-1.11-3-.06-6,.4-9.57.66-1.66-4.1-5.14-4.12-10-3.33-7.33,1.18-14.92.63-22.35,1.33A26.1,26.1,0,0,0,87,140.5l.47,1.62-13.87-3.43,0-1.13a155.22,155.22,0,0,0,15.81-4.42c8.27-3.23,16.43-6.81,24.34-10.82a9.67,9.67,0,0,1,11.58.83A14.81,14.81,0,0,0,131.73,126.26Zm65.38-17.5c-.51-10.78-.27-11.87,9.95-9.62a293.26,293.26,0,0,1,37.08,11.78,9.31,9.31,0,0,1,4.69,7.25c0,1.94-3.47,4.36-5.9,5.61a48.67,48.67,0,0,1-10,2.52c-8.14-.94-17.58-1.79-26.93-3.19-7-1-9.19-4.33-8.72-11.54A25.35,25.35,0,0,0,197.12,108.76Zm106.15,35.18-41.08,9.47c-2.19-8.92-1.13-11.08,6.62-11.6,10.47-.71,21-.75,31.49-.93.93,0,1.88,1,2.82,1.53Zm-47,9.65c-9.13,5.85-19.06,1.71-28.48,2.93-.61.08-2.2-2-2.13-3,.22-3.27,1-6.51,1.74-10.76,6.9.34,13.55.47,20.16,1.06a8.66,8.66,0,0,1,8.71,9.77Zm-34.66,2.19-1.39,1.49c-7.3-.76-14.6-1.61-21.91-2.26a127.3,127.3,0,0,0-13.69-.68c-5.34.1-7.05-2.62-7-7.54a64.72,64.72,0,0,1,28.86-2.72c3.37.45,7.53-1.54,9.86,2.93C217.91,150,219.84,152.87,221.61,155.79Zm-49.35-3.51c-.12.86-3,2-4.45,1.9-10.92-1-21.85-2-32.69-3.55-2.45-.36-4.57-3-6.84-4.58l1.13-2.21c11.35-.33,22.69-.85,34-.82a12.3,12.3,0,0,1,7.45,3.2A7.78,7.78,0,0,1,172.26,152.27Zm-46.68-4.58-.94,1.37-25.42-3.55.4-5.14a171.6,171.6,0,0,1,19.66,1.52C121.65,142.32,123.5,145.67,125.58,147.7Zm216-17.51c-12.35-1.62-24.57-4.3-37-6.55,2.85-4.82,11.31-4.23,8.89-12.76a40.83,40.83,0,0,0-9,6.46c-4,5.11-8.56,4.19-13.43,2.61-5.67-1.84-11.29-3.82-16.88-5.89,3.88-3.29,9-5.12,11.15-10.38.49-1.19-.38-2.94-.55-4l-13,12.62,1.12,1.24c-5.45-2-10.85-4.27-16.51-6.51,3-10.42,12.11-18.78,8-29.81l-2-.47L253,105.42c-2.61-1.17-5.73-2.81-9-4-6.25-2.29-12.57-4.4-18.91-6.43-2.73-.88-3.12-2.1-2.52-5,1.39-6.69,2.16-13.52,2.94-20.32.14-1.19-.95-2.52-1.47-3.78-1.25.91-3,1.56-3.61,2.78A15.88,15.88,0,0,0,220,73.6c-.71,6.35-1.47,12.7-2.22,19.17a225.52,225.52,0,0,0-26.26-4.39c-.78,0-1.56,0-2.34-.06l-2-27.46c-4,4.65-3.06,22.67,1.65,27.45-7.49-.05-15.09,1.15-23.15,1.75-.26-1.94-.55-4.1-.86-6.26-.88-6.28-1.51-12.62-2.81-18.81-.35-1.66-2.77-2.89-4.23-4.31-.53,1.25-1.69,2.61-1.49,3.73,1.31,7.32,2.65,14.65,4.51,21.84,1.13,4.38-.25,5.91-4.4,6.92a106.75,106.75,0,0,0-15.31,5.2c-7.2,3-9.79,1.66-11.83-6.23a87.78,87.78,0,0,0-4-12.14c-.57-1.34-2.54-2.09-3.88-3.11-.37,1.68-1.46,3.6-1,5,2.43,7.15,5.25,14.17,8.32,22.24A134.57,134.57,0,0,0,111,110.85c-6.6,3.53-11,2.16-17-5.6-1.58-2-3.25-4-4.89-6l-1.62,1.12c-1.57,8.35,6.76,11.41,10.29,16.72-12,10.23-22,2.1-32.53-4.05-.66,9.62,7.2,9.69,13.06,13.52-22.11,6.09-42.74,13.33-65.91,10.9,8.43-10.22,16.21-19.18,23.45-28.56C44.43,97.7,52.28,85.89,61,74.81,72.12,60.79,83.47,47,95.29,33.56a48.86,48.86,0,0,1,32.48-16.7A134.07,134.07,0,0,1,155,18.54c11.23,1.28,22.34,4,33.58,4.59,13.86.73,25.61-7.19,38.2-11.59a37,37,0,0,1,12.43-3.68A42.08,42.08,0,0,1,254.1,12c18.83,8.37,35.29,19.33,46.08,38,9.57,16.55,20.94,32.06,31.46,48.06,6.3,9.58,12.48,19.25,18.76,28.84a30.22,30.22,0,0,0,4,4.18A127.47,127.47,0,0,1,341.57,130.19Z"/></g></g></svg>