<svg xmlns="http://www.w3.org/2000/svg" viewBox="0 0 271.67 356.5"><defs><style>.cls-1{fill:#f46b9f;stroke:#ed6c9f;stroke-miterlimit:10;stroke-width:4px;}</style></defs><title>Brazo</title><g id="Capa_2" data-name="Capa 2"><g id="Capa_6" data-name="Capa 6"><path class="cls-1" d="M94.61,59.83c-2.89,2.61-6.57,3.6-9.58,6a53.79,53.79,0,0,0-8.16,9.7A91.89,91.89,0,0,1,63.36,89.29a1.11,1.11,0,0,0-1.43,1.15h0a1,1,0,0,0,0,1c2.85,63.77,32.16,123.18,56,181.24.59,1.43,3,.79,2.38-.63C96.55,214.25,67.24,155,64.43,91.43a115.14,115.14,0,0,0,17.66-19c5.94-7.72,14.73-9.74,19.8-18.58S114.1,27,98.69,24.81c-1.54-.24-2.22,2.14-.63,2.38,13.23,1.9,6.1,17.66,2.38,24.32A31.37,31.37,0,0,1,94.61,59.83Z"/><path class="cls-1" d="M53.26,8.65a36.72,36.72,0,0,1,29.51,9.66h0a1.19,1.19,0,0,0,0,.28,20.71,20.71,0,0,1,0,12.28A18.81,18.81,0,0,0,81.38,39c0,1.54,2.65,1.58,2.46,0-.51-4,1.74-7.68,2.26-11.68A22.69,22.69,0,0,0,85.26,18a1.15,1.15,0,0,0-.48-.63,1.07,1.07,0,0,0-.44-.75A39.21,39.21,0,0,0,53.14,6.2C51.72,6.36,51.72,8.81,53.26,8.65Z"/><path class="cls-1" d="M17.26,114.6C12.63,100,6.13,84.86,4.9,69.49c-.59-7.6-.28-15.29-.24-22.89,0-4.83-2.69-27.92,6.81-27A1,1,0,0,0,12.55,19a1,1,0,0,0,1.19-.32A28.56,28.56,0,0,1,30.49,9.53a1,1,0,0,0,.67-.4,1.31,1.31,0,0,0,2.26-.36c2.65-7.41,11.88-4,16.83-1.66,1.43.67,2.69-1.47,1.23-2.14-6.73-3-16.91-5.9-20.36,3a1.27,1.27,0,0,0-1.35-.67A30.66,30.66,0,0,0,12,17a1.27,1.27,0,0,0,0,.32h-.32a7.92,7.92,0,0,0-9,6.46A47.77,47.77,0,0,0,2.21,36.3V54.91A105,105,0,0,0,5.14,83.79c2.93,10.58,6.57,21,9.9,31.45A1.15,1.15,0,1,0,17.26,114.6Z"/><path class="cls-1" d="M267.77,297.86A651.33,651.33,0,0,1,99.68,349a117.16,117.16,0,0,1-21.9,3.13c-9.9-.44-12.2-8.79-15.84-16.44a415.59,415.59,0,0,1-17.47-40.91A424.43,424.43,0,0,1,19.64,117.26a1.23,1.23,0,0,0-2.46,0A429.38,429.38,0,0,0,42,295.49a422.92,422.92,0,0,0,17,40c5.07,10.38,7.41,20.4,20.36,18.85a615.33,615.33,0,0,0,89.95-17.94A657.79,657.79,0,0,0,269,300C270.5,299.33,269.2,297.07,267.77,297.86Z"/><path class="cls-1" d="M124,274.61a384.9,384.9,0,0,1,53.94-35,629.75,629.75,0,0,1,57.43-29c1.43-.63,0-2.77-1.23-2.14a631.05,631.05,0,0,0-60.32,30.62,379.51,379.51,0,0,0-51.49,33.71C120.87,273.86,122.65,275.6,124,274.61Z"/><path class="cls-1" d="M16.55,28.42a6.3,6.3,0,0,0-1.39,5.82,1.23,1.23,0,1,0,2.38-.67,3.72,3.72,0,0,1,.75-3.45C19.32,29,17.58,27.23,16.55,28.42Z"/><path class="cls-1" d="M31.2,21.57,32.39,25c.51,1.51,2.89.83,2.38-.63l-1.19-3.45C32.86,19.43,30.69,20.1,31.2,21.57Z"/><path class="cls-1" d="M87.48,34.79A7.92,7.92,0,0,1,93,26.87c1.51-.51.87-2.85-.63-2.38a10.58,10.58,0,0,0-7.29,10.38A1.21,1.21,0,0,0,87.48,34.79Z"/></g></g></svg>