<svg xmlns="http://www.w3.org/2000/svg" viewBox="0 0 304 329.64"><defs><style>.cls-1{fill:#f46b9f;}</style></defs><title>Cabeza</title><g id="Capa_2" data-name="Capa 2"><g id="Capa_8" data-name="Capa 8"><path class="cls-1" d="M291.94,184.21c-3.58-3.59-17.24-24.75-17.24-30.37a27.68,27.68,0,0,1,1.25-7.33,64.07,64.07,0,0,0,2.42-18.31c0-21.8-14.26-78.68-56.64-105.65C199.87,8.64,164,0,128.19,0,114.09,0,65.62,2.45,34,34,7.17,60.9,0,110.47,0,135.52c0,21.58,11.94,49.18,22.16,66.89A3.53,3.53,0,0,0,23,204s.06,0,.08.05A118.94,118.94,0,0,0,30,214.63C40.44,228.51,44,235.35,44,241.73c0,23.25-7.08,55.77-18,82.86a3.67,3.67,0,0,0-.27,1.41,37.87,37.87,0,0,0,.28,1.37,3.63,3.63,0,0,0,1.28,1.52,3.56,3.56,0,0,0,1.12.55,3.64,3.64,0,0,0,1,.19,3.56,3.56,0,0,0,1.24-.24,2.7,2.7,0,0,0,.33-.15,3.64,3.64,0,0,0,.83-.55c.06-.05.14-.07.19-.13l29.3-29.3A3.66,3.66,0,0,0,56,294.09L38.38,311.73q2-5.92,3.66-11.9a3.5,3.5,0,0,0,.84-.56L72.18,270A3.66,3.66,0,0,0,67,264.79L45.53,286.25c1.2-5.21,2.24-10.36,3.08-15.41a3.56,3.56,0,0,0,1.6-.88l29.3-29.3a3.66,3.66,0,1,0-5.18-5.18L50.16,259.66c.49-4.35.78-8.52.93-12.55l28.41-28.41a3.66,3.66,0,0,0-5.18-5.18L50.78,237.05a33.35,33.35,0,0,0-3-8.61L72.18,204A3.66,3.66,0,1,0,67,198.86l-23,23c-1.35-2.13-2.89-4.41-4.68-6.93L61.2,193A3.66,3.66,0,0,0,56,187.87L35,208.92c-1.48-2.06-3-4.41-4.61-7l19.86-19.86A3.66,3.66,0,0,0,45,176.88L26.54,195.37c-1.33-2.43-2.66-5-4-7.67l20.3-20.29a3.66,3.66,0,1,0-5.18-5.18L19.28,180.65c-1.26-2.85-2.46-5.76-3.6-8.71a3.52,3.52,0,0,0,1.56-.87l22-22A3.66,3.66,0,0,0,34,143.92L13.11,164.85c-1-3-1.91-6-2.69-8.93l28.8-28.8A3.66,3.66,0,0,0,34,121.94l-25.5,25.5A70.74,70.74,0,0,1,7.39,137l28.17-28.17a3.66,3.66,0,0,0-5.18-5.18L7.63,126.38c.24-4.09.65-8.53,1.25-13.22a3.62,3.62,0,0,0,1-.69l29.3-29.3A3.66,3.66,0,0,0,34,78L10.77,101.27c1.07-5.59,2.45-11.34,4.13-17.07a3.62,3.62,0,0,0,2.35-1l29.3-29.3a3.66,3.66,0,0,0-5.18-5.18L19.68,70.38c4.74-11.72,11.07-22.69,19.54-31.15,29.59-29.6,75.58-31.9,89-31.9,34,0,69.17,8.4,89.6,21.4C255.42,52.67,271,105.32,271,128.19a57.08,57.08,0,0,1-2.18,16.46,34.22,34.22,0,0,0-1.48,9.18c0,8.9,15.59,31.76,19.39,35.55,7.91,7.92,9.76,11,9.91,12.06,0,4.06-2.93,5.82-9.61,8.84-3.78,1.71-8.07,3.65-11.3,6.88a3.66,3.66,0,0,0-.81,3.95L281.33,237c-2.52,2-6.66,4.69-10.29,4.69a3.66,3.66,0,0,0-1.64,6.94,9.39,9.39,0,0,1,4.84,5.46c-4,1.92-10.53,6.14-10.53,13.24a27.55,27.55,0,0,0,2.57,11.24,11.36,11.36,0,0,1,1.09,3.41c0,.18-.8,18.31-29.3,18.31-45.71,0-78-24.62-78.33-24.87a3.66,3.66,0,0,0-4.49,5.78c.75.59,10.9,8.3,27.68,15.24-7,17.49-10.56,28.22-10.6,28.32a3.67,3.67,0,0,0,2.32,4.64,3.77,3.77,0,0,0,1.16.19,3.67,3.67,0,0,0,3.48-2.51c0-.11,3.58-10.68,10.48-28a143.35,143.35,0,0,0,48.31,8.53c30,0,36.63-18.51,36.63-25.64a16,16,0,0,0-1.64-6.21,20.41,20.41,0,0,1-2-8.44c0-3.78,6.29-6.77,8.48-7.51a3.66,3.66,0,0,0,2.51-3.48,16.82,16.82,0,0,0-3.21-9.16,34.84,34.84,0,0,0,9.46-6.56,3.66,3.66,0,0,0,.81-3.95l-6.35-15.87a44.14,44.14,0,0,1,7.35-3.89c6.2-2.81,13.91-6.3,13.91-15.51C304,197.11,299.58,191.85,291.94,184.21Z"/></g></g></svg>