<svg xmlns="http://www.w3.org/2000/svg" viewBox="0 0 461.39 336.5"><defs><style>.cls-1{fill:#f46b9f;}.cls-2{fill:#f6c7ab;}</style></defs><title>Cara</title><g id="Capa_2" data-name="Capa 2"><g id="Capa_4" data-name="Capa 4"><path class="cls-1" d="M276.92,161.05a21.62,21.62,0,0,0-17.41-8,32.51,32.51,0,0,0-6.8.86v0c0-20.57,5-39.5,5-57s-10.37-47.46-42.31-50.62c0,0-21-59.49-144.54-43.54,0,0,12,7.48,14.95,10.45l3,3s-30.4-1.5-48.34,11.46c0,0,12.46,3.5,15,10.46,0,0-35.13,2.25-48.84,16C6.54,54,24,56,24,101.37c0,13.77,4.06,35.32,10.53,51.52,0,.58-.12,1.12-.16,1.67A35.43,35.43,0,0,0,24.59,153a21.57,21.57,0,0,0-17.39,8C2.4,167.05,0,175.65,0,188c0,41.68,29.12,54.59,39.76,57.9,18.62,52.75,56.57,90.35,102.33,90.56,45.68-.21,83.64-37.81,102.25-90.56,10.65-3.31,39.75-16.22,39.75-57.9C284.1,175.65,281.71,167,276.92,161.05ZM238.37,234.4l-3.75.63-1.19,3.62c-17.34,51.57-52.62,85.23-91.33,85.07-38.71.17-74.07-33.5-91.31-85.07L49.51,235l-3.75-.63c.08-.4-33-4.76-33-46.36,1-21.7,6.78-22.26,11.81-22.26a32.55,32.55,0,0,1,21.89,8l.14-9.67a259,259,0,0,1,3.81-35.47c12.05-33.83,26.89-38.53,33.1-38.53s27.65,3.72,42.59,3.72c36.87,0,46.35-9.46,69.76-9.46,22.25,0,37.91,49.54,39.42,54.47,1.11,8.2,1.94,16.62,2.25,25.27l.4,9.67s11.36-8,21.56-8c5,0,10.85.46,11.82,22.26C271.34,229.64,238.37,234,238.37,234.4Z"/><path class="cls-2" d="M455,13.74l2.35,2.5c6.42,6.82,5.17,15.83-3,23.5l-71.86,67.62-23-24.45,71.86-67.62C439.47,7.62,448.54,6.92,455,13.74ZM382.67,100.9,451.2,36.41c3.66-3.44,9-10.39,2.78-17l-2.35-2.5c-6.26-6.65-13.52-1.7-17.18,1.74L365.92,83.1Z"/><rect class="cls-2" x="422.24" y="30.23" width="4.57" height="29.01" transform="translate(84.71 303.09) rotate(-43.26)"/><path class="cls-2" d="M363.1,80.11,385,103.4l-14.42,33.33a19.23,19.23,0,0,1-15.13,8.59c-8.1.72-16.88-2.94-23.29-9.76l-4.38-4.66c-6.42-6.82-9.38-15.64-8.32-23.84a20.09,20.09,0,0,1,9.33-14.74l.49-.15Zm16.55,24.26-17.84-19-30.71,11A15.33,15.33,0,0,0,324,107.84c-.85,6.76,1.83,14.27,7.15,19.93l4.38,4.66c5.48,5.82,12.82,9,19.63,8.19a15.66,15.66,0,0,0,11.51-6.44Z"/><path class="cls-2" d="M373.72,92.39a1.8,1.8,0,0,1-.08,2.58l-17.47,16.44a1.8,1.8,0,0,1-2.58-.08,1.68,1.68,0,0,1,.08-2.58L371.3,92.15A2.21,2.21,0,0,1,373.72,92.39Z"/><path class="cls-2" d="M378.73,97.71a1.56,1.56,0,0,1-.07,2.26l-15.44,18.92a1.61,1.61,0,1,1-2.52-2L376.13,98a1.6,1.6,0,0,1,2.59-.24Z"/><path class="cls-2" d="M368.86,87.23h0c.62,1,.59,2-.23,2.42l-19.82,14.26a1.61,1.61,0,1,1-1.86-2.64L366.77,87A1.39,1.39,0,0,1,368.86,87.23Z"/></g></g></svg>