<svg xmlns="http://www.w3.org/2000/svg" viewBox="0 0 404.25 331.38"><defs><style>.cls-1{fill:#f46b9f;}</style></defs><title>Cepillo</title><g id="Capa_2" data-name="Capa 2"><g id="Capa_8" data-name="Capa 8"><path class="cls-1" d="M200.6,327.85a7.14,7.14,0,0,0,12.3-7.23A28.54,28.54,0,0,1,223,281.55a7.14,7.14,0,0,0-7.23-12.3,28.54,28.54,0,0,1-39.07-10.14,7.14,7.14,0,0,0-12.3,7.23,28.54,28.54,0,0,1-10.14,39.07,7.14,7.14,0,1,0,7.23,12.3A28.54,28.54,0,0,1,200.6,327.85Zm-18-44.77a43.13,43.13,0,0,0,16.51,4.29,43.13,43.13,0,0,0-4.29,16.51,43.13,43.13,0,0,0-16.51-4.29A43.13,43.13,0,0,0,182.56,283.09Z"/><path class="cls-1" d="M213,39.16c-54.94,32.3-104.42,81.08-97.19,113.56l-83.4,28.94A48.09,48.09,0,1,0,80.19,263L145,205.1l2.82,4.8c7.27,12.37,22.75,16.93,42.43,15.87l7.48,12.73a7.14,7.14,0,0,0,12.3-7.23l-4.3-7.31q7.13-1.24,14.68-3.19l5.54,9.42a7.14,7.14,0,0,0,12.3-7.23l-3.72-6.33q6.79-2.21,13.7-4.86l5.94,10.11a7.14,7.14,0,1,0,12.3-7.23l-4.91-8.35q6.52-2.85,13-6l4.19,7.12a7.14,7.14,0,1,0,12.3-7.23l-3.76-6.4q6.3-3.37,12.45-7l3.62,6.15a7.14,7.14,0,1,0,12.3-7.23l-3.76-6.4q6-3.86,11.88-8l4.19,7.13a7.14,7.14,0,0,0,12.3-7.23l-4.91-8.35c3.86-2.95,7.64-5.95,11.27-9L352.6,164a7.14,7.14,0,1,0,12.3-7.23l-7.34-12.48c3.69-3.42,7.2-6.86,10.49-10.31l5.53,9.41a7.14,7.14,0,0,0,12.3-7.23L378,122.72a131,131,0,0,0,9.12-12.65l3.87,6.58a7.14,7.14,0,0,0,12.3-7.23l-8.53-14.52a33.84,33.84,0,0,0-.86-29.62L365,16.06C346.15-15.93,272.67,4.09,213,39.16Zm7.23,12.3C285.48,13.11,342.39,5.83,352.65,23.29l15.76,26.82c-31.61-5-82.77,12.56-126.49,38.26s-84,61.84-95,91.9L131.2,153.46C120.94,136,155,89.82,220.23,51.46ZM70.68,252.31A33.81,33.81,0,1,1,31,198a34.25,34.25,0,0,1,6.09-2.81l84.78-29.42,15.76,26.82ZM383.24,81.43a6.94,6.94,0,0,0-4.21.84A7.14,7.14,0,0,0,376.5,92l2.25,3.83a95.07,95.07,0,0,1-8.85,14,7.09,7.09,0,0,0-10.78,8.94l1.4,2.37c-3.15,3.5-6.63,7-10.41,10.64a7.09,7.09,0,0,0-12,7.6l1.21,2.06c-3.55,3-7.27,6-11.22,9.08l-2.3-3.91a7.14,7.14,0,0,0-12.3,7.23l3,5.17c-3.82,2.67-7.76,5.34-11.87,8l-3.47-5.91a7.14,7.14,0,0,0-12.3,7.23l3.62,6.15q-6.28,3.69-12.44,7l-3.47-5.91a7.14,7.14,0,0,0-12.3,7.23l3,5.17c-4.43,2.16-8.77,4.12-13,6L252,190a7.14,7.14,0,0,0-12.3,7.23l1.21,2.06c-4.75,1.78-9.32,3.36-13.77,4.73l-3.36-5.71a7.14,7.14,0,1,0-12.3,7.23l1.4,2.37c-5.27,1.23-10.27,2.17-14.93,2.77l-2.39-4.06a7.09,7.09,0,0,0-13.1,4.93c-11.27-.4-19.13-3.43-22.35-8.93-3.91-6.66-1.34-17.51,6.91-30.49l7.93,13.5a7.14,7.14,0,0,0,12.3-7.23L176.42,160c-.07-.11-.17-.17-.25-.28a223.6,223.6,0,0,1,31.73-30.64l5.42,9.23a7.14,7.14,0,0,0,12.3-7.23l-6.31-10.74q5.63-4.14,11.73-8.21l6.89,11.72a7.14,7.14,0,0,0,12.3-7.23l-7.16-12.19c2-1.25,4-2.5,6.08-3.73s4.15-2.34,6.22-3.5l7.16,12.19a7.14,7.14,0,0,0,12.3-7.23L268,90.44q6.54-3.33,12.88-6.25l6.29,10.71a7.14,7.14,0,1,0,12.3-7.23L294,78.44a223.6,223.6,0,0,1,42.21-12.82c.07.11.06.24.12.35L347.2,84.43a7.14,7.14,0,0,0,12.3-7.23l-7.93-13.5c15.36-.89,26.09,2.14,30,8.8a15.18,15.18,0,0,1,1.66,9Z"/><path class="cls-1" d="M38.93,207.69a21.41,21.41,0,1,0,29.3,7.61A21.41,21.41,0,0,0,38.93,207.69ZM53.39,232.3a7.14,7.14,0,1,1,2.54-9.77A7.14,7.14,0,0,1,53.39,232.3Z"/><path class="cls-1" d="M198.49,155.29a7.14,7.14,0,0,0-2.54,9.77l7.23,12.3a7.14,7.14,0,1,0,12.3-7.23l-7.23-12.3A7.14,7.14,0,0,0,198.49,155.29Z"/><path class="cls-1" d="M321.52,83A7.14,7.14,0,0,0,319,92.74l7.23,12.3a7.14,7.14,0,0,0,12.3-7.23l-7.23-12.3A7.14,7.14,0,0,0,321.52,83Z"/><path class="cls-1" d="M230.32,153.13a7.14,7.14,0,0,0-2.54,9.77L231.4,169a7.14,7.14,0,1,0,12.3-7.23l-3.62-6.15A7.14,7.14,0,0,0,230.32,153.13Z"/><path class="cls-1" d="M254.93,138.66a7.14,7.14,0,0,0-2.54,9.77l3.62,6.15a7.14,7.14,0,1,0,12.3-7.23l-3.62-6.15A7.14,7.14,0,0,0,254.93,138.66Z"/><path class="cls-1" d="M279.54,124.2A7.14,7.14,0,0,0,277,134l3.62,6.15a7.14,7.14,0,0,0,12.3-7.23l-3.62-6.15A7.14,7.14,0,0,0,279.54,124.2Z"/><path class="cls-1" d="M304.14,109.74a7.14,7.14,0,0,0-2.54,9.77l3.62,6.15a7.14,7.14,0,1,0,12.3-7.23l-3.62-6.15A7.14,7.14,0,0,0,304.14,109.74Z"/><path class="cls-1" d="M153.27,148.76a7.14,7.14,0,0,0,2.63-2.71c.21-.36,20-35.45,78.79-70a7.14,7.14,0,0,0-7.23-12.3c-62.5,36.74-83.22,73.86-84.07,75.43a7.14,7.14,0,0,0,9.88,9.56Z"/></g></g></svg>