<svg xmlns="http://www.w3.org/2000/svg" viewBox="0 0 474.27 269.45"><defs><style>.cls-1{fill:#f6c7ab;}.cls-2{fill:#f46b9f;}</style></defs><title>Cuello</title><g id="Capa_2" data-name="Capa 2"><g id="Capa_6" data-name="Capa 6"><path class="cls-1" d="M467.84,4.69l2.35,2.5c6.42,6.82,5.17,15.83-3,23.5L395.35,98.31l-23-24.45L444.2,6.24C452.35-1.43,461.42-2.13,467.84,4.69ZM395.55,91.85l68.53-64.49c3.66-3.44,9-10.39,2.78-17l-2.35-2.5c-6.26-6.65-13.52-1.7-17.18,1.74L378.8,74.05Z"/><rect class="cls-1" x="435.12" y="21.18" width="4.57" height="29.01" transform="translate(94.41 309.45) rotate(-43.26)"/><path class="cls-1" d="M376,71.06l21.91,23.29-14.42,33.33a19.23,19.23,0,0,1-15.13,8.59c-8.1.72-16.88-2.94-23.29-9.76l-4.38-4.66c-6.42-6.82-9.38-15.64-8.32-23.84a20.09,20.09,0,0,1,9.33-14.74l.49-.15Zm16.55,24.26-17.84-19L344,87.38a15.33,15.33,0,0,0-7.13,11.42c-.85,6.76,1.83,14.27,7.15,19.93l4.38,4.66c5.48,5.82,12.82,9,19.63,8.19a15.66,15.66,0,0,0,11.51-6.44Z"/><path class="cls-1" d="M386.59,83.34a1.8,1.8,0,0,1-.08,2.58l-17.47,16.44a1.8,1.8,0,0,1-2.58-.08,1.68,1.68,0,0,1,.08-2.58L384.18,83.1A2.21,2.21,0,0,1,386.59,83.34Z"/><path class="cls-1" d="M391.6,88.66a1.56,1.56,0,0,1-.07,2.26l-15.44,18.92a1.61,1.61,0,1,1-2.52-2L389,88.91a1.6,1.6,0,0,1,2.59-.24Z"/><path class="cls-1" d="M381.74,78.18h0c.62,1,.59,2-.23,2.42L361.68,94.86a1.61,1.61,0,1,1-1.86-2.64L379.65,78A1.39,1.39,0,0,1,381.74,78.18Z"/><path class="cls-2" d="M237.84,5C226.25,29.89,213.52,47.48,200.34,59,185.94,71.56,171,76.86,156.49,76.42h-.09c-14.52.43-29.45-4.87-43.86-17.44C99.36,47.48,86.62,29.89,75,5a2.2,2.2,0,0,0-3.37-1.1,3.64,3.64,0,0,0-.87,4.29q2.15,4.62,4.36,9c3.32,7.69,5.49,28.3,6.79,53.34.38,7.28.68,14.93.91,22.72h0v0h0v.06h0v.07h0s0,0,0,.07v0q.13,4.4.23,8.85c-.35,22.34-7.77,41.49-18.62,57.46-17.15,25.27-42.82,42.71-62.89,52.51a3.43,3.43,0,0,0-1.42,4c.49,1.61,1.9,2.42,3.17,1.8l.37-.18c21.92-10.71,51.49-25.15,69.15-54.16a98.79,98.79,0,0,0,10.6-25.69c0,16.29-.27,31.56-.7,43.87-.06,1.73,1,3.19,2.35,3.26s2.51-1.26,2.56-3c.72-20.65,1-49.55.39-77.7.06-3.71,0-7.41-.26-11.08l0-.52v0c-.23-7.85-.54-15.54-.92-22.87C86.1,55.82,85,42.8,83.58,32.53c8.7,14.55,17.85,26.12,27.22,34.79,14.93,13.82,30.44,20.3,45.63,19.76,15.19.54,30.69-5.94,45.63-19.76,9.37-8.68,18.52-20.25,27.22-34.79-1.43,10.1-2.48,22.86-3.23,36.91-.4,7.55-.71,15.48-1,23.59v0l0,.52c-.23,3.66-.32,7.37-.26,11.07-.57,27.41-.35,55.52.33,76,.05,1.73,1.19,3.07,2.55,3s2.42-1.52,2.36-3.24c-.4-12-.64-26.66-.65-42.23A99,99,0,0,0,240,163.92c17.66,29,47.24,43.45,69.15,54.16l.37.18c1.27.61,2.68-.19,3.17-1.8a3.44,3.44,0,0,0-1.42-4c-20.07-9.8-45.74-27.25-62.89-52.51-10.85-16-18.27-35.11-18.62-57.45q.1-4.45.23-8.87V93.5h0v0h0v0h0v0h0c.24-8,.55-15.92.95-23.41,1.31-24.72,3.47-45,6.75-52.65q2.2-4.34,4.36-9a3.64,3.64,0,0,0-.87-4.29A2.19,2.19,0,0,0,237.82,5ZM157.76,24c9.91,0,19.85-3.88,28.21-12.37a3.73,3.73,0,0,0,.39-4.39,2.12,2.12,0,0,0-3.45-.49c-7.41,7.54-16.28,11-25.14,11-9.52,0-19-4-26.68-11.07a2.14,2.14,0,0,0-3.43.69,3.7,3.7,0,0,0,.54,4.36C136.71,19.62,147.22,24,157.76,24ZM107.23,260.81c-29.92-.9-61.28-1.85-88.62-17.14-1.24-.7-2.7,0-3.24,1.6a3.54,3.54,0,0,0,1.16,4.07A101.22,101.22,0,0,0,63.26,268c16.26,2.26,33.4,1.33,52.07-.65,1.36-.14,2.37-1.65,2.26-3.38s-1.26-3-2.58-2.88Zm20.37-54.95a1.41,1.41,0,0,0,2.05.91,2.22,2.22,0,0,0,.71-2.61,501.36,501.36,0,0,1-15.66-48.67c-4.51-16.75-8.44-34.18-12.28-53.15-.21-1-1-1.68-1.86-1.41a2,2,0,0,0-1.11,2.37c1.4,6.9,2.6,13.78,3.77,20.53,2,11.61,4,22.83,6.79,33.33,3.44,12.84,8.09,24.58,12.84,36.56,1.59,4,3.18,8,4.74,12.13Zm69.86,61.43c18.81,2.4,36.8,3.07,53.41.58s32.09-8.21,45.51-18.58a3.58,3.58,0,0,0,1.09-4c-.55-1.58-2-2.3-3.24-1.6-27.33,15.29-58.7,16.24-88.62,17.14l-7.88.25a2.77,2.77,0,0,0-2.47,2.82c-.13,1.72.85,3.24,2.2,3.41Zm15.91-164a2,2,0,0,0-1.11-2.37c-.82-.27-1.65.36-1.86,1.41-3.84,19-7.77,36.41-12.28,53.15a500.74,500.74,0,0,1-15.66,48.67,2.22,2.22,0,0,0,.71,2.61,1.41,1.41,0,0,0,2.05-.91c1.57-4.1,3.16-8.13,4.74-12.13,4.75-12,9.4-23.72,12.84-36.56,2.81-10.49,4.77-21.72,6.79-33.33,1.18-6.75,2.38-13.64,3.77-20.53Z"/></g></g></svg>