<svg xmlns="http://www.w3.org/2000/svg" viewBox="0 0 223.3 205.43"><defs><style>.cls-1{fill:#f46b9f;}</style></defs><title>Estuche</title><g id="Capa_2" data-name="Capa 2"><g id="Capa_9" data-name="Capa 9"><path class="cls-1" d="M142,0H81.28A20.57,20.57,0,0,0,60.73,20.54V42.88h-25A35.76,35.76,0,0,0,0,78.6V169.7a35.76,35.76,0,0,0,35.72,35.72H187.57A35.76,35.76,0,0,0,223.3,169.7V78.6a35.76,35.76,0,0,0-35.73-35.72h-25V20.54A20.57,20.57,0,0,0,142,0ZM71.44,20.54a9.84,9.84,0,0,1,9.83-9.82H142a9.83,9.83,0,0,1,9.82,9.82V42.88H136.65V33.76a11.44,11.44,0,0,0-11.43-11.43H98.07A11.44,11.44,0,0,0,86.64,33.76v9.12H71.45V20.54Zm54.49,22.34H97.6L98.07,33l27.87.72Zm61.63,151.84H35.72a25,25,0,0,1-25-25V114.32H75.92v9.83a20.57,20.57,0,0,0,20.54,20.54h30.37a20.57,20.57,0,0,0,20.54-20.54v-9.83h65.21V169.7A25,25,0,0,1,187.56,194.71ZM86.63,114.32h50v9.83a9.84,9.84,0,0,1-9.83,9.83H96.46a9.84,9.84,0,0,1-9.83-9.83v-9.83Zm126-35.72v25H10.71v-25a25,25,0,0,1,25-25H187.56A25,25,0,0,1,212.58,78.6Z"/></g></g></svg>