<svg xmlns="http://www.w3.org/2000/svg" viewBox="0 0 267.23 267.23"><defs><style>.cls-1{fill:#f46b9f;}</style></defs><title>fuego</title><g id="Capa_2" data-name="Capa 2"><g id="Capa_2-2" data-name="Capa 2"><path class="cls-1" d="M133.62,0A133.62,133.62,0,1,0,267.23,133.62,133.74,133.74,0,0,0,133.62,0ZM220,205.06l-27-27a101.31,101.31,0,0,1-11,19.13L204.78,220a113.15,113.15,0,0,1-71.45,25.88c-61.6,0-112-50.35-112-112.24A113.15,113.15,0,0,1,47.26,62.17L85.51,100.7c3.66-5.06,7.6-9.85,11.25-14.06.84-.84,1.41-1.69,2.25-2.53L62.45,47.54A111.57,111.57,0,0,1,133.9,21.66c61.6-.28,112,50.07,112,112A111.57,111.57,0,0,1,220,205.06Z"/><path class="cls-1" d="M170.18,111.39c.28,11.81-10.41,21.38-10.41,21.38,1.41-23.35-11.25-61.89-33.47-75.67-1.13-.84-2.81.56-2.25,2,8.16,24.47-42.48,47.82-42.48,88.89,0,21.38,12.66,40.51,25.32,54.57a1.85,1.85,0,0,0,3.09-2,53.72,53.72,0,0,1-2.81-16.32c0-24.47,24.47-38.82,21.94-53.45a1.28,1.28,0,0,1,2.25-1.13c10.41,9.28,16.32,31.79,15.75,45.57,0,0,4.78-5.06,5.06-11.53,0-1.41,1.69-1.69,2.53-.56,5.34,8.16,5.34,18.28,5.34,21.38a44,44,0,0,1-3.09,16,1.87,1.87,0,0,0,3.09,2C173,188.47,185.37,169.34,185.37,148c0-5.63,0-23.35-12.94-37.41C171.87,109.14,169.9,110,170.18,111.39Z"/></g></g></svg>