<svg xmlns="http://www.w3.org/2000/svg" viewBox="0 0 246.91 194.67"><defs><style>.cls-1{fill:#f46b9f;}</style></defs><title>No dormir</title><g id="Capa_2" data-name="Capa 2"><g id="Capa_2-2" data-name="Capa 2"><path class="cls-1" d="M3,132.82H40.59v.35c-4.94,4.94-8.74,9-13.63,14.57L0,180.1v14.57H72.74V174.4H33.23V174a198.42,198.42,0,0,0,14-15l25.51-30.84V112.69H3Z"/><path class="cls-1" d="M90,76.47h37.63v.35c-4.94,4.94-8.74,9-13.63,14.57l-27,32.35V138.3h72.74V118H120.32v-.35a198.42,198.42,0,0,0,14-15.09l25.51-30.72V56.35H90Z"/><path class="cls-1" d="M177.14,20.12h37.68v.35c-4.94,4.94-8.74,9-13.63,14.57l-27,32.35V82h72.74V61.68H207.41v-.35a198.42,198.42,0,0,0,14-15.09l25.51-30.74V0H177.14Z"/></g></g></svg>