<svg xmlns="http://www.w3.org/2000/svg" viewBox="0 0 255.11 280.45"><defs><style>.cls-1{fill:#f46b9f;}</style></defs><title>Peinilla</title><g id="Capa_2" data-name="Capa 2"><g id="Capa_9" data-name="Capa 9"><path class="cls-1" d="M212.44,272.34A322.44,322.44,0,0,0,187,243.44c-10.78-11.16-22.18-21.95-31.81-30.21-4.05-3.44-8.11-3.9-13.38-4.51-8.87-1-20.34-2.22-39.38-14-23-14.22-53.6-37.16-75.17-62.4C11,113.36-.3,92.87,0,73.37c.23-13.23,11.85-25,23.32-36.63,2.29-2.37,4.59-4.66,6.88-7h0a5.91,5.91,0,0,1,8.34-.23l.15.15C48.79,39.73,50.55,43.63,53.84,51c1.22,2.75,2.75,6.12,5.28,10.86a209.13,209.13,0,0,0,18.2,27.76,284.72,284.72,0,0,0,24.55,27.83,277.43,277.43,0,0,0,38.77,32.5c13,8.87,25.39,15.29,36,18.66l-1.76,5.58,1.84-5.58a5.81,5.81,0,0,1,2.91,2.06c9.1,10.09,20,22.1,31.81,34s24.24,23.93,35.94,33.65c.61.54,1.15,1,1.45,1.3a21.84,21.84,0,0,1,6.27,16,25.6,25.6,0,0,1-5.81,15.91,18.41,18.41,0,0,1-1.53,1.68,16.58,16.58,0,0,1-2.45,2.06,25.85,25.85,0,0,1-15.6,5.2,21.9,21.9,0,0,1-15.52-6.12h0l-.38-.38-1.38-1.61Zm-17-37.09a359.84,359.84,0,0,1,26.31,30,2.06,2.06,0,0,0,.54.61l.23.23h0a10.23,10.23,0,0,0,7.26,2.75,14.33,14.33,0,0,0,8.49-2.83c.38-.31.76-.69,1.22-1.07l.84-.84a13.74,13.74,0,0,0,3.14-8.56,10.56,10.56,0,0,0-2.91-7.57l-.61-.61c-12.16-10.09-24.85-22.25-36.86-34.49-11.39-11.62-22.33-23.48-31.43-33.65-11.32-3.9-24.16-10.55-37.55-19.65a282.84,282.84,0,0,1-40.45-33.88,302.85,302.85,0,0,1-25.54-29A212.23,212.23,0,0,1,48.95,67.41c-2.68-4.89-4.28-8.56-5.66-11.62-2.22-4.89-3.52-7.88-8.64-13.53L31.89,45c-9.79,9.94-19.81,20-20,28.6-.31,16.21,9.86,34.11,24.47,51.16,20.65,24.16,50.09,46.26,72.26,60,16.75,10.4,26.76,11.47,34.41,12.31,7.34.84,13,1.45,19.73,7.26,9.94,8.41,21.64,19.5,32.65,30.89Z"/><path class="cls-1" d="M47.88,55.86a5.89,5.89,0,0,0,8.34,8.34L86.8,33.61a5.89,5.89,0,0,0-8.34-8.34Z"/><path class="cls-1" d="M62.79,75.9a5.89,5.89,0,0,0,8.34,8.34l30.59-30.59a5.89,5.89,0,1,0-8.34-8.34Z"/><path class="cls-1" d="M76.17,97.54a5.89,5.89,0,0,0,8.34,8.34l30.59-30.59a5.89,5.89,0,0,0-8.34-8.34Z"/><path class="cls-1" d="M92.38,116.27a5.89,5.89,0,1,0,8.34,8.34L131.3,94A5.89,5.89,0,1,0,123,85.68Z"/><path class="cls-1" d="M111.27,132.41a5.89,5.89,0,0,0,8.34,8.34l30.59-30.59a5.89,5.89,0,0,0-8.34-8.34Z"/><path class="cls-1" d="M131.46,147.16a5.89,5.89,0,1,0,8.34,8.34l30.59-30.59a5.89,5.89,0,0,0-8.34-8.34Z"/><path class="cls-1" d="M153,160.55a5.89,5.89,0,0,0,8.34,8.34l30.59-30.59a5.89,5.89,0,0,0-8.34-8.34L153,160.55Z"/><path class="cls-1" d="M36.48,32.31a5.89,5.89,0,0,0,8.34,8.34L75.4,10.06a5.89,5.89,0,0,0-8.34-8.34Z"/><path class="cls-1" d="M150.42,209.33a5.86,5.86,0,1,0,8.95-7.57c-14.53-17.13-34.64-32.88-54.9-48.71-16-12.46-32-24.93-45.12-38.16C44.74,100.21,36.1,87,32.43,75.21c-3.67-12-2.14-22.63,3.44-32a5.85,5.85,0,0,0-10-6c-7.34,12.23-9.33,26-4.59,41.45,4.21,13.61,13.76,28.45,29.82,44.5C64.7,136.76,81,149.53,97.27,162.23c19.73,15.45,39.3,30.82,53.15,47.1Z"/></g></g></svg>