<svg xmlns="http://www.w3.org/2000/svg" viewBox="0 0 420.87 476.06"><defs><style>.cls-1{fill:#f46b9f;}</style></defs><title>Pelo</title><g id="Capa_2" data-name="Capa 2"><g id="Capa_8" data-name="Capa 8"><path class="cls-1" d="M387.71,140.83c-42.2-187.78-300.32-187.78-342.53,0-35.48,157.81-69.12,78.29-22,144.35s-19,61.17,12.23,74c31.19,13.46,32.42,12.23,25.08,28.75-8,16.51,5.5,39.76,28.75,31.19,22.63-8-14.07,22.63,24.47,28.14,38.53,6.12,8.56,28.75,8.56,28.75s56.27,3.67,14.68-62.39c-42.2-66.06,10.4-21.41-2.45-57.5-13.46-36.09-23.24-37.31,0-51.38,21.41-12.84-56.88-40.37-4.89-110.71,35.48,21.41,138.85,21.41,174.32,0,44.65,59.94-24.47,113.16,11,134.56,22.63,14.07-3.06-8.56-15.9,27.52-13.46,36.09,39.15-8.56-2.45,57.5C254.37,479.69,311.25,476,311.25,476s-30.58-22.63,8.56-28.75c38.53-5.5,1.22-36.09,24.47-28.14,23.24,8.56,36.09-14.68,28.75-31.19s-6.73-15.29,24.47-28.75c57.5-23.85-20.8-25.08,12.84-74C429.3,256.44,423.19,298.64,387.71,140.83Z"/></g></g></svg>