<svg xmlns="http://www.w3.org/2000/svg" viewBox="0 0 263.25 404.9"><defs><style>.cls-1{fill:#f46b9f;}</style></defs><title>peluca1</title><g id="Capa_2" data-name="Capa 2"><g id="Capa_2-2" data-name="Capa 2"><path class="cls-1" d="M70.65,243.32A2,2,0,0,0,69,239.8a28.29,28.29,0,0,1-35.72-28.35,201.59,201.59,0,0,1,33-94.4,78,78,0,0,0,53.27-18.31A30,30,0,0,0,129.7,72.37a129.65,129.65,0,0,1,47.53,67.29,59.18,59.18,0,0,1-23,65.69,84.23,84.23,0,0,0-28.56,34,49.32,49.32,0,0,0,21,63.89,64.3,64.3,0,0,0,38.58,7.49,19.73,19.73,0,0,1,20.85,26.42,29.82,29.82,0,0,1-20.64,18.58,36.64,36.64,0,0,0-13.74,5.47,24.66,24.66,0,0,0,4.63,43.59,2,2,0,0,0,2.3-3,15.95,15.95,0,0,1,17.5-24.81,59.1,59.1,0,0,0,67-60.65,85.48,85.48,0,0,0-10.41-44.14,39.36,39.36,0,0,0-41.63-21.34,7.46,7.46,0,0,1-4.62-14,82,82,0,0,0,42.56-91.06A210.8,210.8,0,0,0,155,6.17a39.46,39.46,0,0,0-50,6.34,76.84,76.84,0,0,0-6.76,8.33,33,33,0,0,0-46.47,4.4q-.84,1-1.6,2.1A246.79,246.79,0,0,0,6.54,132.15a166.34,166.34,0,0,0-1.88,85.27,42.53,42.53,0,0,0,66,25.91Z"/></g></g></svg>