<svg xmlns="http://www.w3.org/2000/svg" viewBox="0 0 244.63 253"><defs><style>.cls-1{fill:#f46b9f;stroke:#ed6c9f;stroke-miterlimit:10;stroke-width:2px;}</style></defs><title>Pierna</title><g id="Capa_2" data-name="Capa 2"><g id="Capa_6" data-name="Capa 6"><path class="cls-1" d="M235.27,235.27c-5.13,0-13.41-2.76-21.43-5.44-3.89-1.3-5.54-3.2-8.27-6.35a61.37,61.37,0,0,0-10.46-10c-2-1.51-3.92-2.83-5.72-4.08-8.18-5.66-12.68-8.78-12.68-18.79,0-9.48,2.68-23.07,5.27-36.22,1.14-5.78,2.22-11.24,3.06-16.31,2.73-16.37,5.61-55.6,5.61-67.39,0-13-15.44-24.78-21.06-27.6-9.07-4.53-85.47-39-119.5-41.9C48.3,1.07,46.88,1,45.62,1A44.54,44.54,0,0,0,9.79,72.11a2.68,2.68,0,0,0,.39.59l.1.06a44.87,44.87,0,0,0,8.2,8.2s0,.07.06.1a2.68,2.68,0,0,0,.59.39,44.34,44.34,0,0,0,26.49,8.8h92a5.54,5.54,0,0,1,3,.87,2.53,2.53,0,0,0,1.75,1.75,5.54,5.54,0,0,1,.87,3c0,2.62-1.56,5.58-3.54,9.32-3.21,6.1-7.62,14.45-7.62,26.94,0,1.44.08,3,.21,4.51a2.75,2.75,0,0,0,.28,2.55c1.12,9.34,4.07,20.33,7,31.06,3.33,12.3,6.47,23.92,6.47,31.6,0,8.13-2,12.55-4.21,17.22-2,4.41-4.16,9-4.16,16.24A16.75,16.75,0,0,0,154.39,252c5.88,0,10.37-2.08,14.71-4.09,4.53-2.1,9.22-4.28,16-4.28,7.07,0,10.83,2.32,14.48,4.56,3,1.87,6.18,3.8,10.62,3.8a30.51,30.51,0,0,0,11.57-2.11,8.82,8.82,0,0,1,2.38-.68,8.65,8.65,0,0,1,2.6.83,21,21,0,0,0,8.56,2,8.37,8.37,0,0,0,0-16.73Zm0,11.16a15.54,15.54,0,0,1-6.43-1.54,12.17,12.17,0,0,0-4.73-1.25,12.43,12.43,0,0,0-4.29,1,24.88,24.88,0,0,1-9.65,1.77c-2.86,0-5-1.31-7.7-3-3.9-2.4-8.75-5.39-17.4-5.39-8,0-13.47,2.54-18.31,4.79-3.74,1.73-7.06,3.19-11.1,3.47l3.5-3.5a2.79,2.79,0,0,0-3.94-3.94l-5.58,5.58a2.65,2.65,0,0,0-.42.64,11.15,11.15,0,0,1-4.64-4.64,2.77,2.77,0,0,0,.64-.42l5.58-5.58a2.79,2.79,0,0,0-3.94-3.94l-3.56,3.56c.21-5.32,1.78-8.77,3.59-12.7A45.51,45.51,0,0,0,151,209.14l5.37-5.37a2.79,2.79,0,0,0-3.94-3.94l-.87.87a59.21,59.21,0,0,0-.87-8l.1-.07,5.58-5.58a2.79,2.79,0,1,0-3.94-3.94l-3,3c-.52-2.33-1.11-4.74-1.75-7.22a2.78,2.78,0,0,0,.36-.24l8.37-8.37a2.79,2.79,0,1,0-3.94-3.94l-6.4,6.4-1.08-4-.9-3.36a2.71,2.71,0,0,0,1.18-.66l5.58-5.58a2.79,2.79,0,0,0-3.94-3.94l-4.36,4.36q-.93-3.59-1.76-7.09l4.48-4.48a2.79,2.79,0,0,0-3.94-3.94L139.32,146c-.52-2.66-.93-5.21-1.22-7.62l4.32-4.32a2.79,2.79,0,0,0-3.94-3.94l-.76.76c.28-10.42,3.94-17.46,6.92-23.13,2.24-4.26,4.17-7.93,4.17-11.93a11,11,0,0,0-1.58-5.63l3.55-3.55a2.79,2.79,0,1,0-3.94-3.94l-3.55,3.55a11,11,0,0,0-5.63-1.58H136l3.61-3.61a2.79,2.79,0,0,0-3.94-3.94l-7.55,7.55h-8.85l6.39-6.39a2.79,2.79,0,1,0-3.94-3.94L111.4,84.67h-8.85l6.39-6.39A2.79,2.79,0,1,0,105,74.33L94.67,84.67H85.82l6.39-6.39a2.79,2.79,0,1,0-3.94-3.94L77.93,84.67H69.09l6.39-6.39a2.79,2.79,0,1,0-3.94-3.94L61.2,84.67H52.35l6.39-6.39a2.79,2.79,0,1,0-3.94-3.94L44.52,84.61a38.93,38.93,0,0,1-7.83-1l8.11-8.11a2.79,2.79,0,0,0-3.94-3.94L30.71,81.69a39.22,39.22,0,0,1-5.81-3l8.75-8.75A2.79,2.79,0,0,0,29.7,66l-9.36,9.36a39.43,39.43,0,0,1-4.42-4.42l9.36-9.36a2.79,2.79,0,0,0-3.94-3.94l-8.75,8.75a38.57,38.57,0,0,1-3-5.81L19.71,50.38a2.79,2.79,0,0,0-3.94-3.94L7.65,54.55a38.93,38.93,0,0,1-1-7.83L16.92,36.44A2.79,2.79,0,1,0,13,32.49L7.31,38.15A39.09,39.09,0,0,1,45.62,6.58c1.24,0,2.59.08,4.08.21C82.8,9.65,158.13,43.64,167.09,48.12c5.12,2.56,18,13,18,22.6,0,11.62-2.85,50.32-5.54,66.48-.83,5-1.9,10.41-3,16.15-2.64,13.41-5.37,27.27-5.37,37.3,0,12.94,6.66,17.54,15.09,23.38,1.74,1.21,3.6,2.5,5.55,4a55.8,55.8,0,0,1,9.59,9.16c2.88,3.33,5.37,6.21,10.72,8,8.83,2.94,17.17,5.72,23.2,5.72a2.79,2.79,0,0,1,0,5.58Z"/><path class="cls-1" d="M165.28,115.34a2.79,2.79,0,0,0-2.68,2.89q.15,4.07.16,8.26a195,195,0,0,1-2.7,33,2.79,2.79,0,0,0,2.27,3.22,2.83,2.83,0,0,0,.48,0,2.79,2.79,0,0,0,2.74-2.31,200.59,200.59,0,0,0,2.78-33.94q0-4.29-.16-8.48A2.71,2.71,0,0,0,165.28,115.34Z"/></g></g></svg>