<svg xmlns="http://www.w3.org/2000/svg" viewBox="0 0 255.35 255.35"><defs><style>.cls-1{fill:#f46b9f;}</style></defs><title>Piscina</title><g id="Capa_2" data-name="Capa 2"><g id="Capa_2-2" data-name="Capa 2"><path class="cls-1" d="M127.68,0A127.68,127.68,0,1,0,255.35,127.68,127.79,127.79,0,0,0,127.68,0Zm82.79,196-14.78-14.78a18.12,18.12,0,0,1-9.14,2.69H169.61l26.61,26.61A107.28,107.28,0,0,1,45.16,59.4l43,43V79.29a32.93,32.93,0,0,1,.54-5.11L59.4,44.89a108.12,108.12,0,0,1,68.27-24.73c59.13.27,107.25,48.38,107.25,107.52A107.85,107.85,0,0,1,210.47,196Z"/><path class="cls-1" d="M110.74,118.81h33.87v12.9a25.52,25.52,0,0,1,9.41-4.57V79.29a6.25,6.25,0,0,1,6.18-6.18,4.57,4.57,0,0,0,0-9.14,15.6,15.6,0,0,0-15.59,15.59v8.6H110.74V79.29a6.31,6.31,0,0,1,6.45-6.18,4.57,4.57,0,0,0,0-9.14A15.6,15.6,0,0,0,101.6,79.56v47.85A21.94,21.94,0,0,1,111,132V118.81Zm0-21.5h33.87v12.36H110.74Z"/><path class="cls-1" d="M185.2,135.74a14.48,14.48,0,0,0-5.64,3.49c-1.61,1.34-2.69,2.42-5.38,2.42-2.42,0-3.49-.81-5.38-2.42-2.15-1.61-5.11-4-10.21-4-5.38,0-8.06,2.42-10.21,4-1.61,1.34-2.69,2.42-5.38,2.42-2.42,0-3.49-.81-5.38-2.42a12.82,12.82,0,0,0-9.95-4.3c-5.38,0-8.06,2.42-10.21,4-1.61,1.34-2.69,2.42-5.38,2.42-2.42,0-3.49-.81-5.38-2.42a13.93,13.93,0,0,0-10.21-4c-5.38,0-8.06,2.42-10.21,4-1.61,1.34-2.69,2.42-5.38,2.42-2.42,0-3.49-.81-5.38-2.42a18.5,18.5,0,0,0-5.64-3.49A3.49,3.49,0,0,0,65.32,139v27.69a3.56,3.56,0,0,0,3.49,3.49H186a3.56,3.56,0,0,0,3.49-3.49V139.24A3.3,3.3,0,0,0,185.2,135.74Z"/></g></g></svg>