<svg xmlns="http://www.w3.org/2000/svg" viewBox="0 0 524.67 324.26"><defs><style>.cls-1{fill:#f6c7ab;}.cls-2{fill:#f46b9f;}</style></defs><title>Senos</title><g id="Capa_2" data-name="Capa 2"><g id="Capa_6" data-name="Capa 6"><path class="cls-1" d="M3.26,40.43l2.11-2.7c5.78-7.37,14.88-7.49,23.68-.58l77.63,60.9L86,124.47,8.33,63.57C-.48,56.66-2.52,47.79,3.26,40.43Zm97,58.4-74-58.08c-4-3.1-11.63-7.38-17.27-.19l-2.11,2.7C1.21,50.43,7.2,56.87,11.15,60l74,58.08Z"/><rect class="cls-1" x="23.95" y="63.58" width="29.01" height="4.57" transform="translate(-37.1 55.47) rotate(-51.88)"/><path class="cls-1" d="M82.65,121.29l19.74-25.16,35.12,9.26a19.23,19.23,0,0,1,10.76,13.67c1.93,7.9-.37,17.13-6.15,24.49l-3.95,5c-5.78,7.37-14.05,11.62-22.33,11.81a20.09,20.09,0,0,1-16-7l-.22-.46Zm21.5-20L88.07,121.77l15.5,28.71a15.33,15.33,0,0,0,12.36,5.34c6.81-.17,13.84-3.95,18.63-10.06l3.95-5c4.93-6.29,6.93-14,5.15-20.63a15.66,15.66,0,0,0-8.09-10.41Z"/><path class="cls-1" d="M93.19,109a1.8,1.8,0,0,1,2.57-.31l18.87,14.8a1.8,1.8,0,0,1,.31,2.57,1.68,1.68,0,0,1-2.57.31l-19-14.94A2.21,2.21,0,0,1,93.19,109Z"/><path class="cls-1" d="M97.71,103.2a1.56,1.56,0,0,1,2.24-.27l21,12.43a1.61,1.61,0,1,1-1.61,2.8l-21-12.43a1.6,1.6,0,0,1-.63-2.53Z"/><path class="cls-1" d="M88.82,114.53h0c.88-.76,1.85-.87,2.42-.13l17.07,17.46a1.61,1.61,0,1,1-2.33,2.23L88.92,116.63A1.39,1.39,0,0,1,88.82,114.53Z"/><path class="cls-2" d="M518.07,101.07a5,5,0,0,0-2.89-2.89c-9.08-16.5-22.69-30.53-35.48-43.32C462.79,38,447.94,23.1,447.94,6.19a6.19,6.19,0,1,0-12.38,0c0,21.87,17.33,39.19,35.48,57.34C481.77,74.26,492.49,85,500.33,97.36c-38,.83-102.31,11.55-122.11,71.78A71.28,71.28,0,0,1,370.38,137v-.83c3.3-19,11.55-35.48,23.93-46.21,2.48-2.48,2.89-6.19.41-8.66s-6.19-2.89-8.66-.41a86.57,86.57,0,0,0-22.28,33.42A86.57,86.57,0,0,0,341.5,80.86a6.13,6.13,0,0,0-8.25,9.08c12,10.73,20.63,27.23,23.93,46.21a5.86,5.86,0,0,0,.83,2.48,74,74,0,0,1-8.25,31.77c-19.39-62.29-86.64-72.2-124.59-73,7.84-13.61,19.39-23.1,30.94-32.18,18.15-14.44,36.72-29.7,36.72-59a6.19,6.19,0,0,0-12.38,0c0,23.52-14.85,35.48-32.18,49.09-17.74,14.44-38,30.53-43.73,61.88a1.52,1.52,0,0,1-.41,1.24,36.33,36.33,0,0,0-.83,7,3.72,3.72,0,0,1-.41,2.06,63.87,63.87,0,0,0-.41,9.08A82.93,82.93,0,0,0,240,206.27a6.65,6.65,0,0,0,1.24,3.71c14,18.15,23.52,45,23.52,64.77a56.27,56.27,0,0,1-15.68,39.19,6,6,0,0,0,.41,8.66,5.91,5.91,0,0,0,4.13,1.65,6.62,6.62,0,0,0,4.54-2.06c12-13.2,19-30.12,19-47.86,0-18.15-6.6-40.43-17.33-59a78,78,0,0,0,26,4.13,49.93,49.93,0,0,0,7.84-.41h.83l7.43-1.24a1.52,1.52,0,0,0,1.24-.41c2.48-.41,4.54-1.24,7-1.65.41,0,.83-.41,1.24-.41,2.06-.83,4.54-1.65,6.6-2.48.41,0,.83-.41,1.24-.41a37.72,37.72,0,0,0,5.78-2.89c.41-.41.83-.41,1.24-.83a37.66,37.66,0,0,0,5.36-3.3c.83-.41,1.24-.83,2.06-1.24,1.65-1.24,2.89-2.06,4.54-3.3.83-.83,2.06-1.65,2.89-2.48.41-.41,1.24-.83,1.65-1.65a65.73,65.73,0,0,0,5.36-5.36l.41-.41,1.24-1.24h27.64a82.87,82.87,0,0,0,63.12,28.88h.83a90.15,90.15,0,0,0,26-4.13c-10.73,18.56-17.33,40.84-17.33,59a69.51,69.51,0,0,0,19,47.86,6.62,6.62,0,0,0,4.54,2.06,5.3,5.3,0,0,0,4.13-1.65,6.38,6.38,0,0,0,.41-8.66,58.16,58.16,0,0,1-15.68-39.19c0-19.8,9.49-46.62,23.52-64.77a6.65,6.65,0,0,0,1.24-3.71,83.47,83.47,0,0,0,37.54-69.72,79.3,79.3,0,0,0-3.3-22.69A47.5,47.5,0,0,0,518.07,101.07ZM358.83,178.63a86.7,86.7,0,0,0,5.36-10.73,86.7,86.7,0,0,0,5.36,10.73Z"/></g></g></svg>