<svg xmlns="http://www.w3.org/2000/svg" viewBox="0 0 50 156.93"><defs><style>.cls-1{fill:#f46b9f;}</style></defs><title>shampoo</title><g id="Capa_2" data-name="Capa 2"><g id="Capa_1-2" data-name="Capa 1"><g id="Capa_2-2" data-name="Capa 2"><g id="Capa_2-2-2" data-name="Capa 2-2"><path class="cls-1" d="M50,53.71v0l-.17-4.76v0l-.29-4.75v0l-.41-4.74h0v0l-.54-4.75a.18.18,0,0,1,0,0h0l-.25-1.76-.4-2.93h0a.1.1,0,0,0,0,0l-.76-4.67v0h0l-.88-4.64v0a.11.11,0,0,1,0,0l-1-4.6v0l-1.11-4.56v0L42.91,6.73h0v0L41.57,2.25s0,0,0-.08S41.46,2,41.43,2a1.59,1.59,0,0,0-.12-.2l-.1-.12L41,1.5l-.18-.14-.14-.08-.22-.07c-.05,0-.09-.05-.15-.06L38.28.73H38.2L36.13.41H36L33.88.1H33.8L31.66,0H27.31L25.16.15h-.08L22.94.39h-.08L20.74.75h-.08l-2.1.47h-.08l-2.07.57h-.08L15.71,2h0l-1.42.51,0,0h0l-2,.79h0a1.73,1.73,0,0,0-.35.21l-.19.13a1.41,1.41,0,0,0-.18.26,1.58,1.58,0,0,0-.17.24,1.31,1.31,0,0,0,0,.22,1.57,1.57,0,0,0-.08.4v2.1L7.31,34.71h0L3.51,62.27h0l-1,7.81v0h0l-.78,7.46h0l-.66,7.5h0v0L.57,92.57a.06.06,0,0,1,0,0h0l-.35,7.5v0l-.22,15v0l.11,7.51v0h0l.26,7.5v0h0l.41,7.49h0l.59,7.55h0l.69,7.35v.27a.65.65,0,0,0,0,.1v.1l0,.37s0,.07,0,.1a1,1,0,0,1,0,.1l.08.35s0,.07,0,.1a.74.74,0,0,0,0,.08l.12.35s0,.08.06.12,0,.06,0,.09l.16.32.08.12s0,.05,0,.08l.2.28s.06,0,.08.07a1.39,1.39,0,0,0,.07.12l.23.24.11.07s.05.07.09.1l.26.19.14.07s0,.05.08.07l.28.14a1.59,1.59,0,0,0,.35.13h0l.22.07a1.62,1.62,0,0,0,.44.06H48.4a1.6,1.6,0,0,0,1.6-1.6V59.7Zm-42.42,100h-2l0,0-.06-.06-.06-.09-.06-.11-.05-.14,0-.18v-.45a.24.24,0,0,0,0-.11s0-.07,0-.1l-.7-7.42h0L4,137.6H4l-.41-7.44-.26-7.47h0l-.11-7.49.23-15,.35-7.44.49-7.49h0l.64-7.43.79-7.39h0l1-7.79h0l3.66-26.56,1.92-.65.58-.17h0l2.24-.63L18,34l2.9-.52,3-.38,2.63-.21h.32l3-.09,3,.06,3,.21,3,.35,3,.49,2,.42.09.63.56,4.68.44,4.71.31,4.72h0l.18,4.68,0,4h0l0,.77v95.25H7.54ZM14.36,7.22V7.11s0-.07,0-.11V5.92l1-.38,1.35-.45h0l.62-.2,2-.54,2-.44,2-.35,2.07-.24,2-.12h2.07l2.07.09,2.07.2,2.06.3L36.9,4,38,7.54h0L39.32,12l1.13,4.53h0l1,4.53h0l.92,4.61.81,4.64.09.62-.83-.18H42.4l-3.09-.51h-.07l-3.09-.35h-.08L33,29.71h-.07l-3.08-.06h-.08l-3.06.09h0l-.35,0h0L23.59,30h-.07l-3,.36H20.4l-3,.53h-.08l-3,.69h-.07l-2.3.65h0l-.63.18a0,0,0,0,0,0,0h0l-.43.15Z"/></g></g></g></g></svg>