<svg xmlns="http://www.w3.org/2000/svg" viewBox="0 0 576.58 136.35"><defs><style>.cls-1{fill:none;}.cls-2{fill:#f46b9f;}.cls-3{fill:#f6c7ab;}</style></defs><title>Sombras</title><g id="Capa_2" data-name="Capa 2"><g id="Capa_4" data-name="Capa 4"><path class="cls-1" d="M554,97.34a78.22,78.22,0,0,0-27.88-12.81c.12.49.19,1,.3,1.49.19.84.39,1.68.52,2.54a42.41,42.41,0,0,1-.55,15.7v.05c-.1.44-.25.86-.36,1.3a39.28,39.28,0,0,1-10.25,18,34.63,34.63,0,0,1-36.65,8c-11.86-4.4-21.39-15.07-24.54-28.79a84.28,84.28,0,0,0-10.13,9.83c-.6.7-1.09,1.4-1.65,2.1a57.5,57.5,0,0,0-5.57,8.11h0v0a9.92,9.92,0,0,0,.42,1.16c2.62,5.43,11.11,7.44,18.94,7.59,10.77.31,21.53,1.69,32.07,2.56s21.51.5,31.44-3.43a55.74,55.74,0,0,0,7.2-3.27,45.08,45.08,0,0,0,6.54-4.27,61.49,61.49,0,0,0,19-23.17c.43-.89.75-1.84,1.15-2.75h0S554,97.34,554,97.34Z"/><path class="cls-1" d="M319.55,120.88h0a24.67,24.67,0,0,0-.66-4.36A25,25,0,0,1,319.55,120.88Z"/><path class="cls-1" d="M301.85,102.11c-4.33,20.36-22.58,34.25-41.93,31.34-20.17-3-33.85-23.14-30.57-44.89.19-1.28.46-2.53.76-3.77a78.36,78.36,0,0,0-27.6,13.12c.32.71.56,1.47.9,2.17a61.69,61.69,0,0,0,19.05,23.17,44,44,0,0,0,6.54,4.27,58.25,58.25,0,0,0,7.19,3.28c9.94,3.92,20.91,4.17,31.45,3.42s21.3-2.25,32.07-2.56c7.81-.15,16.31-2.16,18.94-7.59a10,10,0,0,0,.79-2.29A75,75,0,0,0,301.85,102.11Z"/><path class="cls-2" d="M331.64,39.7c-.21-.65-.45-1.35-.72-2.09-2.69-7.44-8.26-19-18-21.18a15,15,0,0,0-3.06-.37c-2.62,0-5.29-.19-8-.38C267.12,13.16,226.86-.53,208,0a26,26,0,0,0-3.73.35,33.07,33.07,0,0,0-4.91,1.28c-17.81,6-20.45,24.84-19.48,25h0a4.26,4.26,0,0,1,.34-.93,23.68,23.68,0,0,1,6.65-8,33.42,33.42,0,0,1,12.45-6.12,45,45,0,0,1,7-1.27C219,9,229.8,12,240,16.41c2.92,1.26,5.79,2.62,8.64,4l4.26,2.15c8.51,4.34,17,8.81,26.14,11.58a250.77,250.77,0,0,0,36.67,8.32,129.84,129.84,0,0,0,17,1.47H333a8,8,0,0,1-.37-1.17C332.39,42.07,332.07,41,331.64,39.7Z"/><path class="cls-2" d="M320.09,91.45,319,89.13a40.18,40.18,0,0,0-3.51-6l-2.35-3.6-3.09-3.63a74.34,74.34,0,0,0-7.55-7.66,81.24,81.24,0,0,0-20.86-13.49,43.18,43.18,0,0,0-4.14-1.81C274.79,51.88,272,51,269.19,50l-3.27-.77a67.48,67.48,0,0,0-9.83-1.81,55.51,55.51,0,0,0-9.74-.6c-1.07,0-2.12,0-3.17,0h0c-2.1.13-4.15.37-6.16.61l-3,.36-2.85.67-.76.19-4.66,1.14c-1.29.4-2.5.89-3.7,1.35l-1.2.46a44.17,44.17,0,0,0-4.42,1.82l-3.76,2.18-.88.51-2.38,1.39c-.66.47-1.19.91-1.74,1.35l-.76.59-1.78,1.45-.48.39-1.6,1.3-.81.66.34-.2,4.84-2.84c.82-.48,1.71-1.07,2.72-1.61l3.39-1.45,3.8-1.63c1.1-.44,2.31-.77,3.54-1.13l.85-.25,1.1-.34c1.2-.37,2.41-.76,3.7-1l5.27-.87,2.73-.45,2.85-.13c1,0,2-.09,3-.16s1.91-.13,2.88-.14a94.67,94.67,0,0,1,12.22,1,59.74,59.74,0,0,1,8.79,1.71c1.2.3,2.39.6,3.59.89,4,1.38,8.15,2.48,11.9,4.36a99.31,99.31,0,0,1,11,5.54c1.79.91,3.29,2.2,4.94,3.2,1.06.72,2.12,1.41,3.14,2.13a17,17,0,0,1,1.49,1.12c1.42,1.16,2.83,2.27,4.15,3.38a37.85,37.85,0,0,1,3.65,3.43L311.4,81c.95,1.12,1.84,2.19,2.69,3.19s1.79,2.16,2.56,3.15a20.84,20.84,0,0,1,1.57,2.27l2.57,3.85.76,1.15h0Z"/><path class="cls-2" d="M549.26,59.43l-1.09-.84c-.46-.37-.88-.71-1.41-1.09l-1.26-.74-2-1.16-3.76-2.18A19.47,19.47,0,0,0,537,52.25c-.57-.21-1.14-.41-1.72-.65s-1.19-.45-1.79-.69l-1.1-.41c-.66-.25-1.31-.5-2-.71L525,48.45l-1.14-.27-1.71-.41-3-.36c-2-.24-4.06-.48-6.15-.61-1,0-2.1,0-3.17,0a55.94,55.94,0,0,0-9.74.6,68.09,68.09,0,0,0-9.83,1.81L487,50c-2.5.89-5,1.7-7.49,2.62a46.6,46.6,0,0,0-5,2.12,62.47,62.47,0,0,0-8.6,4.54l-2.7,1.64a83.51,83.51,0,0,0-9.55,7.3c-1.38,1.3-2.73,2.54-4,3.78l-.05.05-.08.08a38.93,38.93,0,0,0-3.42,3.75l-1.54,1.81-1.54,1.81-2.35,3.6a40.85,40.85,0,0,0-3.51,6l-.54,1.16-2,4.3h0l3.33-5a39.89,39.89,0,0,1,4.14-5.42l1.35-1.6,1.35-1.6,1.09-1.09,2.19-2.18a48.21,48.21,0,0,1,5.51-4.95l2.29-1.87a28.49,28.49,0,0,1,3.64-2.6l1-.64c.55-.34,1.08-.71,1.61-1.09a28.52,28.52,0,0,1,3.33-2.11,99.34,99.34,0,0,1,11-5.55c.67-.34,1.37-.62,2.06-.91,3.18-1.34,6.55-2.31,9.84-3.45,4.12-1,8.22-2.2,12.38-2.6.86-.16,1.71-.27,2.56-.37q1.81-.22,3.6-.33c2-.12,4.07-.18,6.06-.3l5.85.3,2.85.13,2.74.45,5.27.87c1.68.38,3.25.94,4.79,1.38s3,.85,4.39,1.38l3.81,1.63,2,.87,1.35.58c.53.29,1,.56,1.43.85l1.28.76,1.65,1,3.54,2.07h0S552.24,61.85,549.26,59.43Z"/><path class="cls-2" d="M575,19.29a31.84,31.84,0,0,0-3.5-6.68,29.34,29.34,0,0,0-3.77-4.47,28.13,28.13,0,0,0-5.12-3.93A30.72,30.72,0,0,0,552,.37,26.73,26.73,0,0,0,548.28,0h-.18C534.49-.31,510,6.61,484.44,11.47c-12.83,2.44-25.92,4.36-38,4.58a16.11,16.11,0,0,0-10.24,4.11c-.17.14-.35.26-.52.4A26.9,26.9,0,0,0,432.52,24a38.06,38.06,0,0,0-3.32,5c-4.07,7.32-5.8,15-5.94,15h0a145.82,145.82,0,0,0,24.2-2.61q2.33-.42,4.86-.93l3.36-.7c6.33-1.37,13.48-3.16,21.49-5.57C493.49,29.29,507.5,19,523.6,13.62c1.11-.37,2.22-.71,3.35-1a59.55,59.55,0,0,1,23-2.2c20.39,2.12,26.29,15.24,26.42,16.32h0C576.79,26.61,576.59,23.43,575,19.29Z"/><path class="cls-2" d="M321.48,102.11a79.9,79.9,0,0,0-16.31-19.2,102.92,102.92,0,0,0-21.45-14.3c-2-.93-4-1.88-6.16-2.72s-3.76-1.45-6.2-2.23a95.68,95.68,0,0,0-13-3.07,86.71,86.71,0,0,0-13.52-1.12c-2.28,0-4.49.07-6.85.3s-4.69.49-6.63.83A83.82,83.82,0,0,0,206,69.2a87.78,87.78,0,0,0-11.07,6.95c-3.56,2.66-12.15-.44-12.15-.44s9.55,24.88,13.55,28.63,7.85,7.46,12.08,10.8c2,1.76,4.23,3.35,6.39,5,2.25,1.45,4.21,3,6.6,4.47s4.62,2.71,7,3.95c.52.29,1.07.52,1.61.78l.59.28c1.07.5,2.14,1,3.25,1.42l1.87.75.07,0,.09,0a63.86,63.86,0,0,0,14.64,3.48,118,118,0,0,0,17.31,1.06c10.84,0,21.38-.74,32.07-.38A43.43,43.43,0,0,0,313,134.66c4.34-1.15,8.88-3.64,11.32-7.78s2.65-8.87,1.79-13A40.31,40.31,0,0,0,321.48,102.11Zm-1.93,18.77a25,25,0,0,0-.66-4.36,24.67,24.67,0,0,1,.66,4.36Zm-.9,3.18c-2.63,5.43-11.13,7.44-18.94,7.59-10.77.31-21.53,1.7-32.07,2.56s-21.51.5-31.45-3.42a57,57,0,0,1-7.19-3.28,43.69,43.69,0,0,1-6.54-4.27,60.11,60.11,0,0,1-11.09-10.58,61,61,0,0,1-8-12.6c-.34-.7-.59-1.45-.9-2.17a78.36,78.36,0,0,1,27.6-13.12c-.3,1.23-.57,2.48-.76,3.77-3.28,21.75,10.4,41.84,30.57,44.89,19.36,2.91,37.6-11,41.93-31.34a74.85,74.85,0,0,1,17.58,19.66A9.58,9.58,0,0,1,318.64,124.06Z"/><path class="cls-2" d="M561.32,76.15a86.81,86.81,0,0,0-11.08-6.95,83.81,83.81,0,0,0-25.32-8.59c-1.93-.33-4.22-.61-6.64-.82s-4.56-.25-6.84-.3a86.51,86.51,0,0,0-13.51,1.12,96.51,96.51,0,0,0-13,3.07c-2.43.79-3.93,1.3-6.2,2.23s-4.18,1.78-6.15,2.72a103.59,103.59,0,0,0-21.45,14.3,79.56,79.56,0,0,0-16.3,19.2,40,40,0,0,0-4.67,11.73c-.86,4.16-.72,8.95,1.79,13s7,6.64,11.33,7.78A43.39,43.39,0,0,0,456.37,136c10.69-.36,21.23.39,32.08.38a117.25,117.25,0,0,0,17.34-1.07,63.81,63.81,0,0,0,14.43-3.42l.24-.07.19-.08,1.63-.66c1.16-.46,2.29-1,3.42-1.5l.5-.24c.55-.27,1.12-.5,1.65-.8,2.37-1.24,4.74-2.49,7-3.95s4.35-3,6.6-4.48,4.41-3.19,6.39-4.94c4.23-3.35,8.14-7.06,12.08-10.8s13.54-28.63,13.54-28.63S564.87,78.81,561.32,76.15Zm-8.5,23.94a61.49,61.49,0,0,1-19,23.17,45.21,45.21,0,0,1-6.54,4.27,55.74,55.74,0,0,1-7.2,3.27c-9.93,3.92-20.91,4.18-31.44,3.43s-21.3-2.25-32.07-2.56c-7.82-.16-16.31-2.16-18.94-7.59a9.92,9.92,0,0,1-.42-1.16v0h0a58.14,58.14,0,0,1,5.57-8.11c.56-.7,1-1.4,1.65-2.1a84.29,84.29,0,0,1,10.13-9.83c3.14,13.72,12.67,24.4,24.54,28.79a34.53,34.53,0,0,0,17.24,1.8,34.89,34.89,0,0,0,19.41-9.81,39.34,39.34,0,0,0,10.25-18c.11-.44.26-.86.36-1.3v-.05a42.51,42.51,0,0,0,.55-15.7c-.13-.86-.34-1.7-.52-2.54-.11-.49-.18-1-.3-1.49A78.33,78.33,0,0,1,554,97.35h0C553.57,98.25,553.26,99.2,552.82,100.09Z"/><path class="cls-3" d="M3.26,11.48l2.11-2.7c5.78-7.37,14.88-7.49,23.68-.58l77.63,60.9L86,95.52,8.33,34.62C-.48,27.71-2.52,18.85,3.26,11.48Zm97,58.4-74-58.08C22.28,8.7,14.61,4.42,9,11.6L6.85,14.3C1.21,21.49,7.2,27.92,11.15,31l74,58.08Z"/><rect class="cls-3" x="23.95" y="34.63" width="29.01" height="4.57" transform="translate(-14.33 44.39) rotate(-51.88)"/><path class="cls-3" d="M82.65,92.34l19.74-25.16,35.12,9.26a19.23,19.23,0,0,1,10.76,13.67c1.93,7.9-.37,17.13-6.15,24.49l-3.95,5c-5.78,7.37-14.05,11.62-22.33,11.81a20.09,20.09,0,0,1-16-7l-.22-.46Zm21.5-20L88.07,92.83l15.5,28.71a15.33,15.33,0,0,0,12.36,5.34c6.81-.17,13.84-3.95,18.63-10.06l3.95-5c4.93-6.29,6.93-14,5.15-20.63a15.66,15.66,0,0,0-8.09-10.41Z"/><path class="cls-3" d="M93.19,80a1.8,1.8,0,0,1,2.57-.31l18.87,14.8a1.8,1.8,0,0,1,.31,2.57,1.68,1.68,0,0,1-2.57.31l-19-14.94A2.21,2.21,0,0,1,93.19,80Z"/><path class="cls-3" d="M97.71,74.26A1.56,1.56,0,0,1,100,74l21,12.43a1.61,1.61,0,1,1-1.61,2.8l-21-12.43a1.6,1.6,0,0,1-.63-2.53Z"/><path class="cls-3" d="M88.82,85.58h0c.88-.76,1.85-.87,2.42-.13l17.07,17.46a1.61,1.61,0,1,1-2.33,2.23L88.92,87.68A1.39,1.39,0,0,1,88.82,85.58Z"/></g></g></svg>