<?xml version="1.0" encoding="utf-8"?>
<!-- Generator: Adobe Illustrator 23.0.3, SVG Export Plug-In . SVG Version: 6.00 Build 0)  -->
<svg version="1.1" id="Capa_1" xmlns="http://www.w3.org/2000/svg" xmlns:xlink="http://www.w3.org/1999/xlink" x="0px" y="0px"
	 viewBox="0 0 80 80" style="enable-background:new 0 0 80 80;" xml:space="preserve">
<style type="text/css">
	.st0{fill:#FFFFFF;}
</style>
<g>
	<g>
		<path class="st0" d="M47.9,56.2c-2-8.2,1-19.5,1-19.5s2.6-18.1,0-26.9c-2.6-8.7-18.5-2-18.5-2s-4.1,3.6,11.4,1.6l0.4,1.9H32
			c-0.5,0-0.8,0.4-0.8,0.8c0,0.2,0.1,0.5,0.2,0.6c0.1,0.1,0.4,0.2,0.6,0.2l10.4,0c0.1,0.5,0.1,1.3,0.1,2l-10.5,0
			c-0.5,0-0.8,0.4-0.8,0.8c0,0.2,0.1,0.5,0.2,0.6s0.4,0.2,0.6,0.2h10.4c0,0.6-0.1,1.3-0.1,1.9H32c-0.5,0-0.8,0.4-0.8,0.8
			c0,0.2,0.1,0.5,0.2,0.6S31.7,20,32,20l10.2,0c-0.1,0.7-0.1,1.3-0.2,2h-10c-0.5,0-0.8,0.4-0.8,0.8c0,0.2,0.1,0.5,0.2,0.6
			s0.4,0.2,0.6,0.2l9.8,0c-0.1,0.7-0.1,1.3-0.2,1.9h-9.6c-0.5,0-0.8,0.4-0.8,0.8c0,0.2,0.1,0.5,0.2,0.6c0.1,0.1,0.4,0.2,0.6,0.2h9.3
			c-0.1,0.7-0.2,1.3-0.3,2h-9.1c-0.5,0-0.8,0.4-0.8,0.8c0,0.2,0.1,0.5,0.2,0.6s0.4,0.2,0.6,0.2h8.8c-0.1,0.7-0.2,1.3-0.3,2h-8.5
			c-0.5,0-0.8,0.4-0.8,0.8c0,0.2,0.1,0.5,0.2,0.6c0.1,0.1,0.4,0.2,0.6,0.2h8.2c-0.1,0.7-0.2,1.4-0.3,2H32c-0.5,0-0.8,0.4-0.8,0.8
			c0,0.2,0.1,0.5,0.2,0.6c0.1,0.1,0.4,0.2,0.6,0.2h7.7l-0.5,2.4c0,0-5.1,0-7.7,0.5c-2.6,0.5-0.5,2.6-0.5,2.6
			c9.8-0.5,9.3,6.2,9.3,6.2s-1,4.1-0.5,6.7c0.5,2.6,1.6,5.6-0.5,8.8c-2,3.1-5.7,10.3,2.6,9.3C50,73.6,50,64.4,47.9,56.2z"/>
	</g>
</g>
</svg>
