<?xml version="1.0" encoding="utf-8"?>
<!-- Generator: Adobe Illustrator 23.0.3, SVG Export Plug-In . SVG Version: 6.00 Build 0)  -->
<svg version="1.1" id="Capa_1" xmlns="http://www.w3.org/2000/svg" xmlns:xlink="http://www.w3.org/1999/xlink" x="0px" y="0px"
	 viewBox="0 0 80 80" style="enable-background:new 0 0 80 80;" xml:space="preserve">
<style type="text/css">
	.st0{fill:#FFFFFF;}
</style>
<path class="st0" d="M42,56.3c2.6,1.8,5.3,2.7,8,2.7c3.9,0,7.7-1.9,11.4-5.6c0.8-0.8,0.8-2,0-2.8c-0.8-0.8-2-0.8-2.8,0
	c-3,3-5.8,4.4-8.6,4.4s-5.6-1.4-8.6-4.4C41.1,50.2,40.6,50,40,50s-1.1,0.2-1.4,0.6c-3,3-5.8,4.4-8.6,4.4s-5.6-1.4-8.6-4.4
	c-0.8-0.8-2-0.8-2.8,0c-0.8,0.8-0.8,2,0,2.8C22.3,57.1,26.1,59,30,59c2.7,0,5.4-0.9,8-2.7V74H19c-0.9,0-1.6-0.6-1.9-1.4
	C14.4,64.4,13,56.2,13,48c0-5.5,1.5-10,4.7-16.3C21.8,23.8,22,23.3,22,21c0-4.4-0.9-8.4-2.8-12.1C18.5,7.6,19.5,6,21,6h38
	c1.5,0,2.5,1.6,1.8,2.9C58.9,12.6,58,16.6,58,21c0,2.3,0.2,2.8,4.3,10.7C65.5,38,67,42.5,67,48c0,8.2-1.4,16.4-4.1,24.6
	c-0.3,0.8-1,1.4-1.9,1.4H42V56.3z"/>
</svg>
