<?xml version="1.0" encoding="utf-8"?>
<!-- Generator: Adobe Illustrator 23.0.3, SVG Export Plug-In . SVG Version: 6.00 Build 0)  -->
<svg version="1.1" id="Capa_1" xmlns="http://www.w3.org/2000/svg" xmlns:xlink="http://www.w3.org/1999/xlink" x="0px" y="0px"
	 viewBox="0 0 80 80" style="enable-background:new 0 0 80 80;" xml:space="preserve">
<style type="text/css">
	.st0{fill:#FFFFFF;}
</style>
<g>
	<path class="st0" d="M48.8,74h14.3c1.6,0,3-1.3,3-3V41.1L40.3,17.1l-0.1-0.2L14,41.1C14,41.2,13.9,62.6,13.9,71c0,1.6,1.3,3,3,3
		h14.3c0.8,0,1.5-0.7,1.5-1.5V54.1c0-0.8,0.7-1.5,1.5-1.5h11.8c0.8,0,1.5,0.7,1.5,1.5v18.4C47.4,73.3,48,74,48.8,74z"/>
	<path class="st0" d="M42.3,6.9c-1.2-1.1-3.1-1.1-4.4,0L4.4,38c-0.6,0.6-0.6,1.5-0.1,2.1l2.3,2.5c0.6,0.6,1.5,0.6,2.1,0.1l31.3-29.1
		l31.1,29.1c0.6,0.6,1.5,0.5,2.1-0.1l2.4-2.5c0.6-0.6,0.5-1.5-0.1-2.1L66,29.1V17.5h0.3c0.4,0,0.7-0.3,0.7-0.7V14
		c0-0.4-0.3-0.7-0.7-0.7H66H55.3H55c-0.4,0-0.7,0.3-0.7,0.7v2.8c0,0.4,0.3,0.7,0.7,0.7h0.3V19L42.3,6.9z"/>
</g>
</svg>
