<?xml version="1.0" encoding="utf-8"?>
<!-- Generator: Adobe Illustrator 23.0.3, SVG Export Plug-In . SVG Version: 6.00 Build 0)  -->
<svg version="1.1" id="Capa_1" xmlns="http://www.w3.org/2000/svg" xmlns:xlink="http://www.w3.org/1999/xlink" x="0px" y="0px"
	 viewBox="0 0 80 80" style="enable-background:new 0 0 80 80;" xml:space="preserve">
<style type="text/css">
	.st0{fill:#FFFFFF;}
</style>
<title>brush</title>
<path class="st0" d="M37.7,6.6c-4.5,0-8.7,2.2-11.3,5.9s-3.2,8.4-1.7,12.6l6.1,13.8h3.4L32,28.7c-0.1-0.6,0.3-1.2,0.9-1.4
	c0.1,0,0.2,0,0.2,0c0.5,0,1,0.4,1.1,0.9l2.3,10.4c0,0.1,0,0.2,0,0.2h2.3v-15c0-0.6,0.5-1.2,1.2-1.2s1.2,0.5,1.2,1.2v15h2.3
	c0-0.1,0-0.2,0-0.2l2.3-10.4c0.1-0.5,0.6-0.9,1.1-0.9c0.1,0,0.2,0,0.2,0c0.6,0.1,1,0.8,0.9,1.4l-2.2,10.1h3.4l6.1-13.8
	c1.5-4.2,0.9-8.9-1.7-12.6s-6.8-5.9-11.3-5.9L37.7,6.6z M30.8,41.2v29.9c0,1.3,1,2.3,2.3,2.3h13.8c1.3,0,2.3-1,2.3-2.3V41.2
	L30.8,41.2z"/>
</svg>
