<?xml version="1.0" encoding="utf-8"?>
<!-- Generator: Adobe Illustrator 23.0.3, SVG Export Plug-In . SVG Version: 6.00 Build 0)  -->
<svg version="1.1" id="Capa_1" xmlns="http://www.w3.org/2000/svg" xmlns:xlink="http://www.w3.org/1999/xlink" x="0px" y="0px"
	 viewBox="0 0 150 40" style="enable-background:new 0 0 150 40;" xml:space="preserve">
<style type="text/css">
	.st0{fill:#FFFFFF;stroke:#FFFFFF;stroke-width:3;stroke-miterlimit:10;}
	.st1{fill:#FFFFFF;stroke:#FFFFFF;stroke-miterlimit:10;}
	.st2{fill:#FFFFFF;}
	.st3{fill:#1D1D1B;}
</style>
<g>
	<g>
		<path class="st0" d="M89.3,17.1c-0.2,0.8-0.4,1.6-0.6,2.4c-0.5,2.4-1.2,4.7-2.8,6.7c-0.4,0.5-0.8,0.9-1.3,1.2
			c-0.8,0.6-1.7,0.3-2.2-0.5c-0.3-0.5-0.4-1-0.7-1.6c-0.3,0.4-0.6,0.7-0.9,1c-1.1,1-2.3,0.8-2.9-0.6c-0.4-0.8-0.5-1.8-0.8-2.7
			c-0.1-0.3-0.1-0.6-0.1-1c-0.3,0.9-0.5,1.7-0.8,2.5c-0.1,0.4-0.3,0.8-0.6,1.1c-0.7,1.1-1.9,1.3-2.9,0.4c-0.4-0.3-0.7-0.8-1-1.1
			c-0.4,0.4-0.9,0.8-1.3,1.1c-0.2,0.2-0.5,0.4-0.7,0.5c-1.2,0.6-2.3,0.3-2.8-1.1c-0.2-0.7-0.3-1.4-0.5-2.2c0-0.3,0-0.6-0.2-0.9
			c-0.1,0.5-0.3,0.9-0.4,1.4c-0.2,0.5-0.4,1.1-0.8,1.5c-0.9,1.2-2.3,1.2-3.3,0.1c-0.7-0.8-1-1.7-1.1-2.7c-0.4-2.5-0.1-5,1.1-7.3
			c0.5-0.8,1.1-1.5,2-2c1-0.4,1.9-0.3,2.7,0.5c0.1,0.1,0.3,0.3,0.4,0.5c0.2-0.4,0.4-0.7,0.5-1c0.2-0.5,0.7-0.7,1.2-0.6
			c0.2,0,0.5,0.1,0.7,0.2c1,0.4,1.1,0.6,0.9,1.6c-0.7,2.8-1,5.6-1,8.5c0,0.5,0.1,1.1,0.2,1.6c0.2,0.6,0.5,0.7,1,0.4
			c0.3-0.2,0.7-0.5,0.9-0.9c0.1-0.1,0-0.4,0-0.6c-0.6-2.6-0.4-5.1,0.9-7.5c0.6-1.1,1.4-1.9,2.5-2.3c0.9-0.3,1.8-0.3,2.8,0.1
			c0.1-0.9,0.2-1.7,0.3-2.6c0.3-1.6,0.5-3.3,0.8-4.9c0.3-1.4,1.3-2.1,2.5-2.5c0.2-0.1,0.6-0.1,0.7,0c0.1,0.1,0.1,0.5,0,0.7
			c-0.4,1.7-1.1,3.3-1.3,5c-0.5,3.5-0.9,7.1-1.2,10.6c-0.1,1.2,0.2,2.4,0.3,3.5c0,0.3,0.2,0.6,0.4,0.8c0.2,0.2,0.6,0.3,0.9,0.2
			c0.3-0.1,0.6-0.3,0.6-0.8c-0.3-2.7-0.2-5.4,0.3-8.1c0.1-0.6,0.4-1.1,0.6-1.6c0.2-0.4,0.6-0.6,1-0.3c0.5,0.3,0.9,0.8,1.4,1.2
			c0.1,0.1,0.1,0.5,0,0.7c-0.5,2.7-0.7,5.5-0.5,8.3c0,0.3,0.2,0.6,0.3,0.9c0.1,0,0.1,0,0.2,0c0.3-0.6,0.7-1.1,0.9-1.7
			c0.7-2,1.3-4,2-6c0.4-1.3,0.8-2.5,1.3-3.8c0.2-0.4,0.4-0.9,0.7-1.2c0.4-0.4,0.9-0.6,1.5-0.5c0.4,0.1,0.6,0.3,0.5,0.8
			c-0.3,1.4-0.1,2.7,0.2,4c0.4,1.5,0.8,3,1,4.5c0.2,1.4,0.1,2.8-0.6,4c-0.5,0.8-1.1,1.4-2.1,1.5c-1.5,0.3-2.7-0.8-2.8-2.6
			c0-0.3,0-0.5,0.1-0.8c0-0.1,0.3-0.3,0.4-0.3c0.1,0,0.3,0.2,0.4,0.3c0.1,0.1,0,0.2,0.1,0.3c0.1,0.4,0.4,0.7,0.8,0.6
			c0.3,0,0.7-0.3,0.7-0.5c0.2-0.5,0.3-1.1,0.2-1.7c-0.2-1.6-0.5-3.2-0.8-4.8c0-0.2-0.1-0.3-0.2-0.5C89.5,17,89.4,17,89.3,17.1z
			 M63.5,22.1c0.1,0.3,0.1,1,0.3,1.6c0.1,0.2,0.3,0.4,0.5,0.5c0.1,0,0.4-0.2,0.5-0.4c0.2-0.4,0.4-0.8,0.5-1.2c0.5-2,0.9-4.1,1.4-6.1
			c0.1-0.5-0.3-1.4-0.8-1.6c-0.2-0.1-0.6,0-0.7,0.2c-0.3,0.3-0.4,0.7-0.6,1.1C64,18,63.6,19.9,63.5,22.1z M74.2,21.3
			c0.1,0.7,0.1,1.3,0.2,2c0,0.2,0.3,0.4,0.4,0.6c0.2-0.1,0.4-0.3,0.5-0.4c0.2-0.3,0.3-0.6,0.4-1c0.6-2.3,1.1-4.6,1.6-6.9
			c0.1-0.6-0.1-0.9-0.7-0.8c-0.3,0.1-0.7,0.3-0.9,0.5c-0.3,0.4-0.6,0.9-0.8,1.3C74.4,18.2,74.3,19.8,74.2,21.3z"/>
		<path class="st0" d="M120.4,22.6c-0.2,0.6-0.3,1.1-0.6,1.7c-0.2,0.4-0.4,0.8-0.6,1.2c-0.9,1.3-2.4,1.3-3.4,0.1
			c-0.2-0.2-0.3-0.4-0.5-0.7c-0.4,0.6-0.8,1.1-1.2,1.6c-0.6,0.7-1.2,1.1-2.2,0.9c-1-0.2-1.4-0.9-1.6-1.8c-0.4-1.4-0.3-2.9-0.1-4.3
			c0.2-1.2,0.5-2.4,0.8-3.6c0-0.2,0.1-0.4,0.1-0.5c0,0-0.1-0.1-0.1-0.1c-0.2,0.1-0.4,0.3-0.6,0.5c-0.8,1.2-1.6,2.4-2.3,3.6
			c-0.8,1.4-1.5,2.9-2.2,4.4c-0.3,0.6-1.1,0.9-1.7,0.5c-0.1-0.1-0.2-0.4-0.2-0.6c0.4-2.4,0.9-4.7,1.3-7.1c0.1-0.6,0.2-1.1,0.3-1.7
			c-0.1,0-0.1-0.1-0.2-0.1c-0.2,0.3-0.5,0.5-0.7,0.8c-0.9,1.7-1.7,3.4-2.5,5.1c-0.4,0.8-0.7,1.7-1,2.5c-0.4,1-1,1.3-2,0.9
			c-0.1,0-0.2-0.1-0.3-0.2c-0.5,0.4-1,0.7-1.5,1c-1.5,0.8-2.6,0.3-3-1.3c-0.3-1.3-0.4-2.6-0.4-3.9c0-1.8,0.2-3.5,0.4-5.3
			c0.1-0.6,0.3-1.1,0.6-1.7c0.2-0.5,0.7-0.6,1.1-0.3c0.5,0.3,0.9,0.7,1.2,1.1c0.1,0.2,0.1,0.5,0.1,0.8c-0.5,2.4-0.7,4.8-0.5,7.3
			c0,0.2,0,0.4,0.1,0.6c0.2,0.9,1.1,1.2,1.8,0.6c0.1-0.1,0.1-0.3,0.2-0.5c0-1.2,0-2.4,0.1-3.6c0.1-2.3,0.2-4.5,0.5-6.8
			c0.1-1.4,1.5-2.6,2.9-2.7c0.4-0.1,0.6,0.1,0.6,0.5c-0.1,0.5-0.2,1-0.3,1.5c-0.7,2.5-1.1,5.1-1.3,7.8c0,0.1,0,0.3,0.1,0.4
			c0.2-0.6,0.5-1.2,0.7-1.7c0.8-1.6,1.6-3.2,2.5-4.8c0.3-0.5,0.7-0.9,1.1-1.3c0.6-0.5,1.1-0.5,1.7-0.1c1.1,0.8,1.3,1.2,0.9,2.6
			c-0.3,1.1-0.6,2.3-1,3.4c0,0,0.1,0,0.1,0.1c0.1-0.2,0.2-0.5,0.4-0.7c0.8-1.3,1.7-2.7,2.6-4c0-0.1,0.1-0.1,0.1-0.2
			c1.2-1.3,2.3-1.2,3.2,0.3c0.2,0.3,0.2,0.8,0.1,1.2c-0.2,1.2-0.5,2.3-0.7,3.5c-0.2,1.6-0.4,3.3-0.5,4.9c0,0.4,0.1,1,0.4,1.2
			c0.4,0.3,0.8-0.3,1.1-0.6c0.5-0.5,0.7-0.9,0.5-1.7c-0.6-3.1-0.4-6.1,1.6-8.7c1-1.3,2.5-1.6,3.6-0.9c0.3,0.2,0.5,0.5,0.9,0.8
			c0.2-0.3,0.3-0.6,0.5-0.9c0.2-0.5,0.6-0.6,1.1-0.6c0.2,0,0.5,0.1,0.7,0.2c1,0.3,1.2,0.6,0.9,1.6c-0.7,2.8-1,5.6-1,8.4
			c0,0.5,0.1,1,0.2,1.5c0.2,0.7,0.6,0.8,1.2,0.4c0.2-0.2,0.4-0.4,0.6-0.6c0.2-0.2,0.4-0.4,0.7-0.5c0,0.1,0.1,0.3,0,0.4
			c-0.6,0.9-1.3,1.8-2.3,2.2c-1.1,0.5-2.1,0.1-2.6-1c-0.3-0.7-0.4-1.5-0.5-2.3c-0.1-0.3,0-0.6,0-0.8
			C120.5,22.6,120.5,22.6,120.4,22.6z M117.4,22.2c0.1,0.3,0.1,1,0.3,1.6c0.2,0.6,0.7,0.6,1,0c0.2-0.4,0.4-0.8,0.5-1.2
			c0.5-2.1,0.9-4.1,1.4-6.2c0.1-0.5-0.3-1.4-0.8-1.6c-0.2-0.1-0.6,0-0.7,0.2c-0.3,0.3-0.4,0.7-0.6,1.1
			C117.9,18,117.5,19.9,117.4,22.2z"/>
		<path class="st0" d="M87.5,8.8c1.1,0,1.9,0.6,2.3,1.4c0.1,0.4,0.1,0.6-0.4,0.7c-2,0.2-3.8,1-5.4,2.1c-0.4,0.3-0.7,0.1-0.7-0.3
			c0-0.3,0-0.8,0.2-1c0.9-1.3,2-2.3,3.5-2.8C87.2,8.9,87.5,8.9,87.5,8.8z"/>
		<path class="st0" d="M97.1,7.5c1.3,0,1.9,0.8,1.7,2.1c-0.2,0.7-0.4,1.4-1,1.9c-0.7,0.5-1.3,0.5-1.7-0.2c-0.5-0.7-0.7-1.5-0.5-2.3
			C95.6,8,96.2,7.5,97.1,7.5z"/>
		<path class="st0" d="M60,16.7c-0.1-0.7-0.3-1.5-0.6-2.2c-0.8-1.6-2.5-1.8-3.6-0.4c-0.4,0.5-0.7,1.1-1,1.6
			c-0.3,0.6-0.5,1.2-0.7,1.8c0.1-1,0.3-1.9,0.5-2.9c0.2-0.9,0.5-1.9,0.7-2.8c0.1-0.6,0-0.8-0.5-0.8c-1.2,0-2.8,1.3-2.9,2.5
			c-0.2,1.3-0.3,2.7-0.4,4c0,0.5,0.1,1.1-0.1,1.5c-0.7,1.5-1.3,3-2.5,4.1c-0.4,0.4-0.9,0.7-1.5,0.8c-1.1,0.2-2-0.8-2-2.3
			c1.3-0.4,2.4-1.2,3.3-2.2c1.4-1.6,2-3.5,1.6-5.7c-0.2-1.2-1.1-1.7-2.3-1.6c-1,0.2-1.9,0.7-2.7,1.4c-2.9,2.7-3.7,6.1-2.8,9.9
			c0.2,0.7,0,1.1-0.5,1.5c-0.8,0.7-1.5,0.5-1.6-0.6c-0.1-0.9-0.1-1.8,0.1-2.7c0.3-1.9,0.7-3.8,1.2-5.7c0.2-1,0-1.8-0.8-2.4
			c-0.6-0.5-0.8-0.5-1.4,0c-0.7,0.7-1.6,1.2-2.6,1.3c0-0.2,0-0.4,0-0.6c0-0.8,0-1.7-0.1-2.5c0-0.2-0.2-0.6-0.4-0.7
			c-0.2-0.1-0.6,0.1-0.7,0.3c-0.5,0.7-1.1,1.4-1.4,2.2c-0.3,0.9-0.3,1.9,0.5,2.5c0.7,0.5,0.6,1,0.5,1.6c-0.1,0.4-0.1,0.8-0.2,1.2
			c-0.4,2-0.8,3.9-1.6,5.7c-0.3,0.6-0.6,1.1-0.9,1.6c1.4-0.3,2.5-1.3,2.9-2.8c0.5-2.1,0.8-4.3,1.3-6.4c0-0.2,0.1-0.4,0.2-0.5
			c0.6-0.2,1.3-0.4,2-0.6c-0.2,0.6-0.3,1.1-0.5,1.6c-0.5,1.9-0.9,3.8-0.8,5.8c0,0.8,0.2,1.7,0.5,2.5c0.6,1.5,2.1,1.9,3.4,0.8
			c0.5-0.4,0.8-0.9,1.2-1.3c0.1-0.1,0.2-0.3,0.3-0.4c1.2,1.5,2.5,2,4,1.6c1.2-0.3,2.1-1,2.8-1.9c0.6-0.7,1.1-1.5,1.6-2.3
			c0,0.1,0,0.2,0,0.3c-0.1,2.2-0.1,4.3-0.2,6.5c-0.1,2.1-0.4,4.2-0.6,6.2c0,0.2,0.1,0.4,0.2,0.5c0.1,0,0.2,0,0.2,0
			c1.6-0.4,2.3-1.4,2.3-2.9c0.1-2.1,0.1-4.2,0.2-6.3c0-0.2,0-0.4,0-0.6c1.7,1.1,2.9,1,4.2-0.5c0.4-0.5,0.8-1,1.1-1.6
			C60,21.6,60.3,19.2,60,16.7z M46.5,14.6c0.2-0.4,0.4-0.7,0.7-1c0.4-0.4,0.9-0.3,1,0.3c0.1,0.6,0.1,1.3,0,1.9
			c-0.3,1.7-1.1,3.1-2.4,4.1c-0.1,0.1-0.3,0.2-0.6,0.4C45.4,18.1,45.7,16.3,46.5,14.6z M56.2,23.2c-0.2,0.5-0.5,0.9-0.8,1.3
			c-0.3,0.4-0.7,0.5-1.1,0.2c-0.4-0.3-0.7-0.5-0.5-1.1c0.6-2.7,1.2-5.4,2.3-7.9c0.1-0.3,0.3-0.6,0.5-0.9c0.1-0.2,0.4-0.3,0.6-0.3
			c0.1,0,0.3,0.3,0.3,0.5c0.1,0.3,0.1,0.7,0.1,1C57.4,18.5,57.1,20.9,56.2,23.2z"/>
		<path class="st0" d="M30.7,8.5c-1.4,0-2.7,0-4,0c-1.1,0-2.2-0.3-3.2-0.9c-0.8-0.5-1.1-1.3-0.9-2.2c0.1-0.2,0.2-0.4,0.3-0.7
			c0.1,0.1,0.2,0.1,0.2,0.2c0.5,0.8,1.3,1.1,2.1,1c1.8-0.1,3.5-0.2,5.3-0.4c2.5-0.2,5-0.4,7.5-0.6c1-0.1,1.9,0.4,2.6,1.1
			c0.5,0.5,0.7,1.2,0.6,1.8c0,0.2-0.1,0.5-0.3,0.6c-0.1,0.1-0.4,0.1-0.5,0.1c-0.1,0-0.2-0.3-0.2-0.4c-0.1-0.7-0.1-0.8-0.8-0.7
			c-2.1,0.2-4.1,0.5-6.2,0.7c-0.1,0-0.3,0.3-0.4,0.5c-0.2,1.8-0.4,3.6-0.5,5.4c-0.2,3.5-0.5,6.9-0.6,10.4c-0.1,1.1,0.1,2.2,0.2,3.3
			c0,0.5-0.3,0.6-0.7,0.6c-0.7,0-1.4-0.3-1.7-1c-0.2-0.6-0.5-1.2-0.5-1.8c0-1.9,0.1-3.9,0.2-5.8c0.3-3.2,0.7-6.4,1.1-9.5
			C30.5,9.6,30.6,9.1,30.7,8.5z"/>
		<g>
			<path class="st1" d="M122.8,33.1c0-1.3,1.1-2.3,2.3-2.3c1.3,0,2.3,1.1,2.3,2.3c0,1.3-1.1,2.3-2.3,2.3
				C123.9,35.5,122.8,34.4,122.8,33.1z M127.3,33.1c0-1.2-0.9-2.1-2.1-2.1c-1.2,0-2.2,0.9-2.2,2.2c0,1.2,1,2.1,2.2,2.1
				C126.4,35.3,127.3,34.3,127.3,33.1z"/>
			<g>
				<path class="st2" d="M126,35.1C126,35.1,126,35.1,126,35.1C126,35.1,126,35.1,126,35.1C126,35.1,126,35.1,126,35.1
					C126,35.1,126,35.1,126,35.1z"/>
				<path class="st2" d="M126,35.1C126,35.1,126,35.1,126,35.1C126,35.1,126,35.1,126,35.1C126,35.1,126,35.1,126,35.1
					C126,35.1,126,35.1,126,35.1L126,35.1z"/>
			</g>
			<circle class="st1" cx="125.2" cy="33.4" r="1.9"/>
		</g>
	</g>
	<g>
		<path class="st3" d="M89.3,17.4c-0.2,0.8-0.4,1.6-0.6,2.4c-0.5,2.4-1.2,4.7-2.8,6.7c-0.4,0.5-0.8,0.9-1.3,1.2
			c-0.8,0.6-1.7,0.3-2.2-0.5c-0.3-0.5-0.4-1-0.7-1.6c-0.3,0.4-0.6,0.7-0.9,1c-1.1,1-2.3,0.8-2.9-0.6c-0.4-0.8-0.5-1.8-0.8-2.7
			c-0.1-0.3-0.1-0.6-0.1-1c-0.3,0.9-0.5,1.7-0.8,2.5c-0.1,0.4-0.3,0.8-0.6,1.1c-0.7,1.1-1.9,1.3-2.9,0.4c-0.4-0.3-0.7-0.8-1-1.1
			c-0.4,0.4-0.9,0.8-1.3,1.1c-0.2,0.2-0.5,0.4-0.7,0.5c-1.2,0.6-2.3,0.3-2.8-1.1c-0.2-0.7-0.3-1.4-0.5-2.2c0-0.3,0-0.6-0.2-0.9
			c-0.1,0.5-0.3,0.9-0.4,1.4c-0.2,0.5-0.4,1.1-0.8,1.5C64.4,27,63,27,62,25.8c-0.7-0.8-1-1.7-1.1-2.7c-0.4-2.5-0.1-5,1.1-7.3
			c0.5-0.8,1.1-1.5,2-2c1-0.4,1.9-0.3,2.7,0.5c0.1,0.1,0.3,0.3,0.4,0.5c0.2-0.4,0.4-0.7,0.5-1c0.2-0.5,0.7-0.7,1.2-0.6
			c0.2,0,0.5,0.1,0.7,0.2c1,0.4,1.1,0.6,0.9,1.6c-0.7,2.8-1,5.6-1,8.5c0,0.5,0.1,1.1,0.2,1.6c0.2,0.6,0.5,0.7,1,0.4
			c0.3-0.2,0.7-0.5,0.9-0.9c0.1-0.1,0-0.4,0-0.6c-0.6-2.6-0.4-5.1,0.9-7.5c0.6-1.1,1.4-1.9,2.5-2.3c0.9-0.3,1.8-0.3,2.8,0.1
			c0.1-0.9,0.2-1.7,0.3-2.6c0.3-1.6,0.5-3.3,0.8-4.9c0.3-1.4,1.3-2.1,2.5-2.5c0.2-0.1,0.6-0.1,0.7,0c0.1,0.1,0.1,0.5,0,0.7
			c-0.4,1.7-1.1,3.3-1.3,5c-0.5,3.5-0.9,7.1-1.2,10.6c-0.1,1.2,0.2,2.4,0.3,3.5c0,0.3,0.2,0.6,0.4,0.8c0.2,0.2,0.6,0.3,0.9,0.2
			c0.3-0.1,0.6-0.3,0.6-0.8c-0.3-2.7-0.2-5.4,0.3-8.1c0.1-0.6,0.4-1.1,0.6-1.6c0.2-0.4,0.6-0.6,1-0.3c0.5,0.3,0.9,0.8,1.4,1.2
			c0.1,0.1,0.1,0.5,0,0.7c-0.5,2.7-0.7,5.5-0.5,8.3c0,0.3,0.2,0.6,0.3,0.9c0.1,0,0.1,0,0.2,0c0.3-0.6,0.7-1.1,0.9-1.7
			c0.7-2,1.3-4,2-6c0.4-1.3,0.8-2.5,1.3-3.8c0.2-0.4,0.4-0.9,0.7-1.2c0.4-0.4,0.9-0.6,1.5-0.5c0.4,0.1,0.6,0.3,0.5,0.8
			c-0.3,1.4-0.1,2.7,0.2,4c0.4,1.5,0.8,3,1,4.5c0.2,1.4,0.1,2.8-0.6,4c-0.5,0.8-1.1,1.4-2.1,1.5c-1.5,0.3-2.7-0.8-2.8-2.6
			c0-0.3,0-0.5,0.1-0.8c0-0.1,0.3-0.3,0.4-0.3c0.1,0,0.3,0.2,0.4,0.3c0.1,0.1,0,0.2,0.1,0.3c0.1,0.4,0.4,0.7,0.8,0.6
			c0.3,0,0.7-0.3,0.7-0.5c0.2-0.5,0.3-1.1,0.2-1.7c-0.2-1.6-0.5-3.2-0.8-4.8c0-0.2-0.1-0.3-0.2-0.5C89.5,17.4,89.4,17.4,89.3,17.4z
			 M63.5,22.5c0.1,0.3,0.1,1,0.3,1.6c0.1,0.2,0.3,0.4,0.5,0.5c0.1,0,0.4-0.2,0.5-0.4c0.2-0.4,0.4-0.8,0.5-1.2c0.5-2,0.9-4.1,1.4-6.1
			c0.1-0.5-0.3-1.4-0.8-1.6c-0.2-0.1-0.6,0-0.7,0.2c-0.3,0.3-0.4,0.7-0.6,1.1C64,18.3,63.6,20.2,63.5,22.5z M74.2,21.7
			c0.1,0.7,0.1,1.3,0.2,2c0,0.2,0.3,0.4,0.4,0.6c0.2-0.1,0.4-0.3,0.5-0.4c0.2-0.3,0.3-0.6,0.4-1c0.6-2.3,1.1-4.6,1.6-6.9
			c0.1-0.6-0.1-0.9-0.7-0.8c-0.3,0.1-0.7,0.3-0.9,0.5c-0.3,0.4-0.6,0.9-0.8,1.3C74.4,18.5,74.3,20.1,74.2,21.7z"/>
		<path class="st3" d="M120.4,22.9c-0.2,0.6-0.3,1.1-0.6,1.7c-0.2,0.4-0.4,0.8-0.6,1.2c-0.9,1.3-2.4,1.3-3.4,0.1
			c-0.2-0.2-0.3-0.4-0.5-0.7c-0.4,0.6-0.8,1.1-1.2,1.6c-0.6,0.7-1.2,1.1-2.2,0.9c-1-0.2-1.4-0.9-1.6-1.8c-0.4-1.4-0.3-2.9-0.1-4.3
			c0.2-1.2,0.5-2.4,0.8-3.6c0-0.2,0.1-0.4,0.1-0.5c0,0-0.1-0.1-0.1-0.1c-0.2,0.1-0.4,0.3-0.6,0.5c-0.8,1.2-1.6,2.4-2.3,3.6
			c-0.8,1.4-1.5,2.9-2.2,4.4c-0.3,0.6-1.1,0.9-1.7,0.5c-0.1-0.1-0.2-0.4-0.2-0.6c0.4-2.4,0.9-4.7,1.3-7.1c0.1-0.6,0.2-1.1,0.3-1.7
			c-0.1,0-0.1-0.1-0.2-0.1c-0.2,0.3-0.5,0.5-0.7,0.8c-0.9,1.7-1.7,3.4-2.5,5.1c-0.4,0.8-0.7,1.7-1,2.5c-0.4,1-1,1.3-2,0.9
			c-0.1,0-0.2-0.1-0.3-0.2c-0.5,0.4-1,0.7-1.5,1c-1.5,0.8-2.6,0.3-3-1.3c-0.3-1.3-0.4-2.6-0.4-3.9c0-1.8,0.2-3.5,0.4-5.3
			c0.1-0.6,0.3-1.1,0.6-1.7c0.2-0.5,0.7-0.6,1.1-0.3c0.5,0.3,0.9,0.7,1.2,1.1c0.1,0.2,0.1,0.5,0.1,0.8c-0.5,2.4-0.7,4.8-0.5,7.3
			c0,0.2,0,0.4,0.1,0.6c0.2,0.9,1.1,1.2,1.8,0.6c0.1-0.1,0.1-0.3,0.2-0.5c0-1.2,0-2.4,0.1-3.6c0.1-2.3,0.2-4.5,0.5-6.8
			c0.1-1.4,1.5-2.6,2.9-2.7c0.4-0.1,0.6,0.1,0.6,0.5c-0.1,0.5-0.2,1-0.3,1.5c-0.7,2.5-1.1,5.1-1.3,7.8c0,0.1,0,0.3,0.1,0.4
			c0.2-0.6,0.5-1.2,0.7-1.7c0.8-1.6,1.6-3.2,2.5-4.8c0.3-0.5,0.7-0.9,1.1-1.3c0.6-0.5,1.1-0.5,1.7-0.1c1.1,0.8,1.3,1.2,0.9,2.6
			c-0.3,1.1-0.6,2.3-1,3.4c0,0,0.1,0,0.1,0.1c0.1-0.2,0.2-0.5,0.4-0.7c0.8-1.3,1.7-2.7,2.6-4c0-0.1,0.1-0.1,0.1-0.2
			c1.2-1.3,2.3-1.2,3.2,0.3c0.2,0.3,0.2,0.8,0.1,1.2c-0.2,1.2-0.5,2.3-0.7,3.5c-0.2,1.6-0.4,3.3-0.5,4.9c0,0.4,0.1,1,0.4,1.2
			c0.4,0.3,0.8-0.3,1.1-0.6c0.5-0.5,0.7-0.9,0.5-1.7c-0.6-3.1-0.4-6.1,1.6-8.7c1-1.3,2.5-1.6,3.6-0.9c0.3,0.2,0.5,0.5,0.9,0.8
			c0.2-0.3,0.3-0.6,0.5-0.9c0.2-0.5,0.6-0.6,1.1-0.6c0.2,0,0.5,0.1,0.7,0.2c1,0.3,1.2,0.6,0.9,1.6c-0.7,2.8-1,5.6-1,8.4
			c0,0.5,0.1,1,0.2,1.5c0.2,0.7,0.6,0.8,1.2,0.4c0.2-0.2,0.4-0.4,0.6-0.6c0.2-0.2,0.4-0.4,0.7-0.5c0,0.1,0.1,0.3,0,0.4
			c-0.6,0.9-1.3,1.8-2.3,2.2c-1.1,0.5-2.1,0.1-2.6-1c-0.3-0.7-0.4-1.5-0.5-2.3c-0.1-0.3,0-0.6,0-0.8
			C120.5,22.9,120.5,22.9,120.4,22.9z M117.4,22.5c0.1,0.3,0.1,1,0.3,1.6c0.2,0.6,0.7,0.6,1,0c0.2-0.4,0.4-0.8,0.5-1.2
			c0.5-2.1,0.9-4.1,1.4-6.2c0.1-0.5-0.3-1.4-0.8-1.6c-0.2-0.1-0.6,0-0.7,0.2c-0.3,0.3-0.4,0.7-0.6,1.1
			C117.9,18.4,117.5,20.2,117.4,22.5z"/>
		<path class="st3" d="M87.5,9.2c1.1,0,1.9,0.6,2.3,1.4c0.1,0.4,0.1,0.6-0.4,0.7c-2,0.2-3.8,1-5.4,2.1c-0.4,0.3-0.7,0.1-0.7-0.3
			c0-0.3,0-0.8,0.2-1c0.9-1.3,2-2.3,3.5-2.8C87.2,9.2,87.5,9.2,87.5,9.2z"/>
		<path class="st3" d="M97.1,7.9c1.3,0,1.9,0.8,1.7,2.1c-0.2,0.7-0.4,1.4-1,1.9c-0.7,0.5-1.3,0.5-1.7-0.2c-0.5-0.7-0.7-1.5-0.5-2.3
			C95.6,8.4,96.2,7.9,97.1,7.9z"/>
		<path class="st3" d="M60,17c-0.1-0.7-0.3-1.5-0.6-2.2c-0.8-1.6-2.5-1.8-3.6-0.4c-0.4,0.5-0.7,1.1-1,1.6c-0.3,0.6-0.5,1.2-0.7,1.8
			c0.1-1,0.3-1.9,0.5-2.9c0.2-0.9,0.5-1.9,0.7-2.8c0.1-0.6,0-0.8-0.5-0.8c-1.2,0-2.8,1.3-2.9,2.5c-0.2,1.3-0.3,2.7-0.4,4
			c0,0.5,0.1,1.1-0.1,1.5c-0.7,1.5-1.3,3-2.5,4.1c-0.4,0.4-0.9,0.7-1.5,0.8c-1.1,0.2-2-0.8-2-2.3c1.3-0.4,2.4-1.2,3.3-2.2
			c1.4-1.6,2-3.5,1.6-5.7c-0.2-1.2-1.1-1.7-2.3-1.6c-1,0.2-1.9,0.7-2.7,1.4c-2.9,2.7-3.7,6.1-2.8,9.9c0.2,0.7,0,1.1-0.5,1.5
			c-0.8,0.7-1.5,0.5-1.6-0.6c-0.1-0.9-0.1-1.8,0.1-2.7c0.3-1.9,0.7-3.8,1.2-5.7c0.2-1,0-1.8-0.8-2.4c-0.6-0.5-0.8-0.5-1.4,0
			c-0.7,0.7-1.6,1.2-2.6,1.3c0-0.2,0-0.4,0-0.6c0-0.8,0-1.7-0.1-2.5c0-0.2-0.2-0.6-0.4-0.7c-0.2-0.1-0.6,0.1-0.7,0.3
			c-0.5,0.7-1.1,1.4-1.4,2.2c-0.3,0.9-0.3,1.9,0.5,2.5c0.7,0.5,0.6,1,0.5,1.6c-0.1,0.4-0.1,0.8-0.2,1.2c-0.4,2-0.8,3.9-1.6,5.7
			c-0.3,0.6-0.6,1.1-0.9,1.6c1.4-0.3,2.5-1.3,2.9-2.8c0.5-2.1,0.8-4.3,1.3-6.4c0-0.2,0.1-0.4,0.2-0.5c0.6-0.2,1.3-0.4,2-0.6
			c-0.2,0.6-0.3,1.1-0.5,1.6c-0.5,1.9-0.9,3.8-0.8,5.8c0,0.8,0.2,1.7,0.5,2.5c0.6,1.5,2.1,1.9,3.4,0.8c0.5-0.4,0.8-0.9,1.2-1.3
			c0.1-0.1,0.2-0.3,0.3-0.4c1.2,1.5,2.5,2,4,1.6c1.2-0.3,2.1-1,2.8-1.9c0.6-0.7,1.1-1.5,1.6-2.3c0,0.1,0,0.2,0,0.3
			c-0.1,2.2-0.1,4.3-0.2,6.5c-0.1,2.1-0.4,4.2-0.6,6.2c0,0.2,0.1,0.4,0.2,0.5c0.1,0,0.2,0,0.2,0c1.6-0.4,2.3-1.4,2.3-2.9
			c0.1-2.1,0.1-4.2,0.2-6.3c0-0.2,0-0.4,0-0.6c1.7,1.1,2.9,1,4.2-0.5c0.4-0.5,0.8-1,1.1-1.6C60,21.9,60.3,19.5,60,17z M46.5,14.9
			c0.2-0.4,0.4-0.7,0.7-1c0.4-0.4,0.9-0.3,1,0.3c0.1,0.6,0.1,1.3,0,1.9c-0.3,1.7-1.1,3.1-2.4,4.1c-0.1,0.1-0.3,0.2-0.6,0.4
			C45.4,18.5,45.7,16.6,46.5,14.9z M56.2,23.5c-0.2,0.5-0.5,0.9-0.8,1.3c-0.3,0.4-0.7,0.5-1.1,0.2c-0.4-0.3-0.7-0.5-0.5-1.1
			c0.6-2.7,1.2-5.4,2.3-7.9c0.1-0.3,0.3-0.6,0.5-0.9c0.1-0.2,0.4-0.3,0.6-0.3c0.1,0,0.3,0.3,0.3,0.5c0.1,0.3,0.1,0.7,0.1,1
			C57.4,18.8,57.1,21.2,56.2,23.5z"/>
		<path class="st3" d="M30.7,8.8c-1.4,0-2.7,0-4,0c-1.1,0-2.2-0.3-3.2-0.9c-0.8-0.5-1.1-1.3-0.9-2.2c0.1-0.2,0.2-0.4,0.3-0.7
			c0.1,0.1,0.2,0.1,0.2,0.2c0.5,0.8,1.3,1.1,2.1,1C27,6.2,28.8,6,30.5,5.9c2.5-0.2,5-0.4,7.5-0.6c1-0.1,1.9,0.4,2.6,1.1
			c0.5,0.5,0.7,1.2,0.6,1.8c0,0.2-0.1,0.5-0.3,0.6c-0.1,0.1-0.4,0.1-0.5,0.1c-0.1,0-0.2-0.3-0.2-0.4c-0.1-0.7-0.1-0.8-0.8-0.7
			c-2.1,0.2-4.1,0.5-6.2,0.7c-0.1,0-0.3,0.3-0.4,0.5c-0.2,1.8-0.4,3.6-0.5,5.4c-0.2,3.5-0.5,6.9-0.6,10.4c-0.1,1.1,0.1,2.2,0.2,3.3
			c0,0.5-0.3,0.6-0.7,0.6c-0.7,0-1.4-0.3-1.7-1c-0.2-0.6-0.5-1.2-0.5-1.8c0-1.9,0.1-3.9,0.2-5.8c0.3-3.2,0.7-6.4,1.1-9.5
			C30.5,10,30.6,9.4,30.7,8.8z"/>
		<g>
			<path class="st3" d="M122.8,33c0-1.3,1.1-2.3,2.3-2.3c1.3,0,2.3,1.1,2.3,2.3c0,1.3-1.1,2.3-2.3,2.3
				C123.8,35.4,122.7,34.3,122.8,33z M127.2,33c0-1.2-0.9-2.1-2.1-2.1c-1.2,0-2.2,0.9-2.2,2.2c0,1.2,1,2.1,2.2,2.1
				C126.3,35.2,127.2,34.2,127.2,33z"/>
			<path class="st3" d="M125.9,35.7C125.9,35.7,125.9,35.7,125.9,35.7C125.9,35.7,125.9,35.7,125.9,35.7
				C125.9,35.7,125.9,35.7,125.9,35.7C125.9,35.7,125.9,35.7,125.9,35.7z"/>
			<path class="st3" d="M125.6,33.2c0.3,0.3,0.6,0.8,0.8,1.2c-0.2,0-0.4,0-0.6,0c0,0-0.1,0-0.1-0.1c-0.2-0.2-0.3-0.5-0.5-0.7
				c-0.2-0.2-0.4-0.3-0.7-0.3c0,0.4,0,0.7,0,1.1c-0.2,0-0.3,0-0.5,0c0-0.9,0-1.7,0-2.6c0.1,0,0.1,0,0.2,0c0.4,0,0.8,0,1.2,0
				c0.2,0,0.4,0,0.5,0.2c0.4,0.4,0.2,1.1-0.3,1.2C125.7,33.1,125.7,33.2,125.6,33.2z M124.6,32.8c0.3,0,0.5,0,0.8,0
				c0.2,0,0.3-0.1,0.3-0.3c0-0.2-0.1-0.3-0.2-0.3c-0.3,0-0.6,0-0.8,0C124.6,32.4,124.6,32.6,124.6,32.8z"/>
		</g>
	</g>
</g>
</svg>
