<?xml version="1.0" encoding="utf-8"?>
<!-- Generator: Adobe Illustrator 23.0.3, SVG Export Plug-In . SVG Version: 6.00 Build 0)  -->
<svg version="1.1"
	 id="Capa_1" xmlns:cc="http://creativecommons.org/ns#" xmlns:dc="http://purl.org/dc/elements/1.1/" xmlns:inkscape="http://www.inkscape.org/namespaces/inkscape" xmlns:rdf="http://www.w3.org/1999/02/22-rdf-syntax-ns#" xmlns:sodipodi="http://sodipodi.sourceforge.net/DTD/sodipodi-0.dtd" xmlns:svg="http://www.w3.org/2000/svg"
	 xmlns="http://www.w3.org/2000/svg" xmlns:xlink="http://www.w3.org/1999/xlink" x="0px" y="0px" viewBox="0 0 80 80"
	 style="enable-background:new 0 0 80 80;" xml:space="preserve">
<style type="text/css">
	.st0{fill:#FFFFFF;}
</style>
<g transform="translate(0,-952.36218)">
	<g transform="translate(14.000001,956.33462)">
		<path class="st0" d="M24.3,0.6C24,4.1,24.6,7.2,26.8,10c2.2-2.8,2.8-5.9,2.5-9.5H24.3z M22.6,1.6l-2.8,2.8c0,3.1-1.5,6.1-3.9,7.7
			c-1.5,2.3,0,6.9,1.6,10H36c1.5-3.1,3.1-7.7,1.5-10c-2.3-1.6-3.9-4.3-3.9-7.7l-2.8-2.8c0.1,3.7-1,7.1-3.5,10.2
			c-0.3,0.4-0.9,0.4-1.2,0C23.6,8.7,22.6,5.3,22.6,1.6z M17.5,26.8L-1.8,65.3c2.3,0,5.4,2.3,6.9,3.1s5.4,0,6.9,0
			c1.5,0,8.6,3.1,13.9,3.1c5.3,0,10.7-2.5,12.4-3.1c2.3-0.8,6.3,1.1,8.5,0c1.5-0.8,4.7-2.9,6.9-3.9L36,26.8H17.5z M18.3,30.6
			c0.8,0-2.3,10.8-5.4,16.2c-0.8,0-0.2-2.3,0-2.3C14.4,41.4,17.5,30.6,18.3,30.6z M32.6,30.6c0.8,0,4.9,10.8,6.5,13.9
			c0.8,1.6,0.8,3.9-1.1,2.3C35.2,40.6,31.9,30.6,32.6,30.6z M21.4,31.4c0.8,0,0,11.6,0.2,17.8c-0.8,0-2.5-2.3-2.3-2.3
			C19.8,44.5,20.6,31.4,21.4,31.4z M26.8,31.4c0.8,0,2,11.8,3.1,17.8c-0.8,0-2.3-1.6-2.3-2.3C27.3,41.7,26,31.4,26.8,31.4z"/>
	</g>
</g>
</svg>
