<?xml version="1.0" encoding="utf-8"?>
<!-- Generator: Adobe Illustrator 23.0.3, SVG Export Plug-In . SVG Version: 6.00 Build 0)  -->
<svg version="1.1" xmlns="http://www.w3.org/2000/svg" xmlns:xlink="http://www.w3.org/1999/xlink" x="0px" y="0px"
	 viewBox="0 0 56.7 56.7" style="enable-background:new 0 0 56.7 56.7;" xml:space="preserve">
<style type="text/css">
	.st0{fill:#F56BA0;}
</style>
<g id="Capa_2">
</g>
<g id="Capa_1">
	<g>
		<path class="st0" d="M35.7,25.4l-1.3-5.3c-0.1-0.5,0-1.1,0.4-1.4l4.1-3.5c1-0.8,0.4-2.4-0.8-2.5l-5.3-0.4c-0.5,0-1-0.4-1.2-0.9
			l-2-4.9c-0.5-1.2-2.1-1.2-2.6,0l-2.1,5c-0.2,0.5-0.7,0.8-1.2,0.9l-5.3,0.4c-1.3,0.1-1.7,1.6-0.8,2.5l4.1,3.5
			c0.4,0.3,0.6,0.9,0.4,1.4l-1.3,5.3c-0.3,1.2,1,2.2,2.1,1.5l4.6-2.8c0.4-0.3,1-0.3,1.4,0l4.6,2.8C34.7,27.6,36,26.6,35.7,25.4z"/>
		<path class="st0" d="M49.4,20.9c-0.9-0.1-2,0.3-2.5,1.6c-0.3,0.9-0.9,2.4-1.7,4.2c0.3,1,0.5,2.5-0.5,4.4c-0.2,0.4-0.5,0.8-0.8,1.3
			c-0.8,1.1-1.8,2.2-2.9,3.4l-0.2,0.2c-0.4,0.4-1,0.5-1.5,0.2c-0.3-0.2-0.5-0.5-0.5-0.8c0-0.3,0-0.7,0.3-0.9l0.3-0.3
			c1.4-1.6,2.8-3.1,3.4-4.2c1-2,0.3-3.3-0.6-3.8c-0.7-0.4-1.8-0.5-2.3,0.4c-0.9,1.4-2.3,2.9-3.5,4.3c-0.9,1.1-1.7,2-2.4,2.8
			c-0.6,0.7-1,1.3-1.3,1.9c-1,1.6-2.1,5.3-2.3,8.9c-0.1,1.8-0.1,3.9-0.2,5.3c0,0.2,0.1,0.5,0.2,0.6c0.1,0.2,0.4,0.2,0.6,0.2h7.6
			c0.2,0,0.4-0.1,0.6-0.2c0.1-0.1,0.2-0.4,0.2-0.6v-2.2c0-0.6,0.3-1.2,0.8-1.5c2.6-1.8,5.2-4,6.6-5.7c3-3.5,4.1-13.9,4.3-17.3
			C51.3,21.9,50.3,21.1,49.4,20.9z"/>
		<path class="st0" d="M24,35.8c-0.3-0.5-0.8-1.2-1.3-1.9c-0.6-0.8-1.4-1.8-2.4-2.8c-1.3-1.4-2.6-2.9-3.5-4.3
			c-0.6-0.9-1.6-0.8-2.3-0.4c-1,0.5-1.6,1.8-0.6,3.8c0.6,1.1,1.9,2.6,3.4,4.2l0.3,0.3c0.2,0.2,0.3,0.6,0.3,0.9
			c0,0.3-0.2,0.6-0.5,0.8c-0.4,0.3-1.1,0.2-1.5-0.2l-0.2-0.2c-1.1-1.2-2.2-2.4-2.9-3.4c-0.3-0.5-0.6-0.9-0.8-1.3
			c-1-1.9-0.8-3.5-0.5-4.4c-0.9-1.9-1.4-3.3-1.7-4.2c-0.4-1.3-1.5-1.8-2.5-1.6c-0.9,0.1-1.8,1-1.8,2.5c0.1,3.4,1.3,13.8,4.3,17.3
			c1.4,1.7,4,3.9,6.6,5.7c0.5,0.3,0.8,0.9,0.8,1.5v2.2c0,0.2,0.1,0.4,0.2,0.6c0.1,0.1,0.4,0.2,0.6,0.2h7.6c0.2,0,0.5-0.1,0.6-0.2
			c0.1-0.2,0.2-0.4,0.2-0.6c0-1.4-0.1-3.5-0.2-5.3C26.1,41.1,25,37.4,24,35.8z"/>
	</g>
</g>
</svg>
