<svg xmlns="http://www.w3.org/2000/svg" xmlns:xlink="http://www.w3.org/1999/xlink" version="1.1" x="0px" y="0px" viewBox="0 0 60 75" enable-background="new 0 0 60 60" xml:space="preserve"><path fill-rule="evenodd" clip-rule="evenodd" d="M59.099,26.368c-3.762,3.693-5.834,7.06-10.626,10.343  c-10.387,7.9-24.189,9.602-35.817,0.577c-4.526-3.127-7.69-6.814-11.637-10.753c7.244-4.291,6.492-5.48,12.905-9.444  c4.651-2.876,13.73-3.562,15.951,1.161c4.216-5.86,11.965-3.862,18.556,0.598C53.648,22.38,52.998,23.175,59.099,26.368z   M47.406,26.904c-10.253-0.714-20.105-1.465-33.287-0.133C25.304,34.161,37.153,33.561,47.406,26.904z"/><text x="0" y="75" fill="#000000" font-size="5px" font-weight="bold" font-family="'Helvetica Neue', Helvetica, Arial-Unicode, Arial, Sans-serif">Created by Cassandra Cappello</text><text x="0" y="80" fill="#000000" font-size="5px" font-weight="bold" font-family="'Helvetica Neue', Helvetica, Arial-Unicode, Arial, Sans-serif">from the Noun Project</text></svg>
