<?xml version="1.0" encoding="utf-8"?>
<!-- Generator: Adobe Illustrator 23.0.3, SVG Export Plug-In . SVG Version: 6.00 Build 0)  -->
<svg version="1.1" id="Capa_1" xmlns="http://www.w3.org/2000/svg" xmlns:xlink="http://www.w3.org/1999/xlink" x="0px" y="0px"
	 viewBox="0 0 56.7 56.7" style="enable-background:new 0 0 56.7 56.7;" xml:space="preserve">
<style type="text/css">
	.st0{fill-rule:evenodd;clip-rule:evenodd;fill:#F56BA0;}
</style>
<path class="st0" d="M54.7,27.2c-3.4,3.4-5.3,6.4-9.6,9.4c-9.4,7.2-22,8.7-32.5,0.5c-4.1-2.8-7-6.2-10.6-9.8
	c6.6-3.9,4.7-1.8,9.7-8.4c7.1-9.7,13.6-2.2,16.5,0.9C32,14.5,39,16.3,45,20.3C49.8,23.6,49.2,24.3,54.7,27.2z M44.1,27.7
	C34.8,27,16.6,15,13.9,27.5C9.2,42.6,34.8,33.7,44.1,27.7z"/>
</svg>
