<svg xmlns="http://www.w3.org/2000/svg" xmlns:xlink="http://www.w3.org/1999/xlink" version="1.1" x="0px" y="0px" viewBox="0 0 100 125" style="enable-background:new 0 0 100 100;" xml:space="preserve"><g><path d="M38.8,6.5C38.8,6.5,38.8,6.5,38.8,6.5C38.8,6.5,38.8,6.5,38.8,6.5C38.8,6.5,38.8,6.5,38.8,6.5z"/><path d="M43.5,5.2C43.5,5.2,43.5,5.2,43.5,5.2C43.5,5.2,43.5,5.2,43.5,5.2C43.5,5.2,43.5,5.2,43.5,5.2z"/><path d="M33.4,90.1C33.4,90.2,33.4,90.2,33.4,90.1C33.4,90.2,33.4,90.1,33.4,90.1C33.4,90.1,33.4,90.1,33.4,90.1z"/><path d="M26.7,78.5c-1.4-1.1-0.8-4.5-2.3-7.2c-1.4-2.7,0.1-4.7-1.2-8c-1.4-3.2-2.9-5.8-1.2-7.3c1.6-1.5,1.8-8.2,1.2-10.3   c-0.6-2.1-0.7-1.7,0.3-4.9c1-3.1,0.1-6.7,1.5-9.7c1.4-3,2-3.2,1.6-4.4c-0.5-1.2,2.6-4.6,3.5-7.6c0.9-3,3.7-3.2,4.2-5.4   c0.5-2.3-0.2-3.5,1.8-4.2c1.4-0.5,5.2-2.9,7.4-4.3c-0.7,0.1-1.4,0.2-2,0.4c-0.7,0.2-1.6,0.5-2.7,0.9c-2.6,2-5.6,4.6-6,5.8   c-0.8,2.1-3.9,2.6-5,6.8c-1.1,4.2-3.2,7.2-4,8.9c-0.8,1.7-1.1,3.2-1,4.2c0.1,1-2,7.6-2.4,9.6c-0.4,2,0.6,1.9,0,4.5s-1,3-0.1,4.2   c0.9,1.2-0.9,1.9-0.1,4.2c0.8,2.3-1.4,4.8-0.7,6.4c0.7,1.6,1.3,3.6,1.4,5.6c0.1,2,0.1,2,0.8,4.1c0.8,2.1,0.1,3.8,2,6.6   c1.4,2,3.4,6.2,4.4,8.3c1.6,1.6,3.3,3.1,5.4,4.4c-1.3-1.4-2.5-3-3.1-4.8C28.8,81.3,28.1,79.6,26.7,78.5z"/><path d="M20.7,72.3c0.3-2.1-1.3-2.7-1.4-5.9c-0.1-3.2-2.4-7.1-1.7-8.1c0.7-1,1.4-3.4,0.5-6.2c-1-2.8,0.8-4.5,0.2-6.4   s1.9-10.2,2-11.8c0.1-1.6,1.6-2.3,1.6-5.4c0.1-3.1,2.2-4.7,3.1-7.2c0.9-2.5,2.3-3.5,3.8-6.5c0.7-1.4,3.2-3.9,5.4-5.9   c-5.3,3.4-11.7,9.8-15.4,21.5c-5.7,18.4-1.5,37,1.3,43.4c0.9,2.2,2.5,5.4,5,8.6c-0.2-0.7-0.5-1.5-1-2.5   C22.2,76.5,20.5,74.4,20.7,72.3z"/><path d="M25.1,82.4C25.2,82.4,25.2,82.4,25.1,82.4C25.2,82.4,25.2,82.4,25.1,82.4C25.1,82.4,25.1,82.4,25.1,82.4z"/><path d="M83.9,48.1c0.2-3.4-0.2-4.4-1.6-7.5c-1.5-3.1-0.9-3.6-0.6-5.3c0.3-1.7,0.5-1.9-0.7-4.7c-0.8-1.7-2.3-6.4-3.4-9.6   c-2.1-3.3-4.7-6.5-7.8-9.1c1.3,2,2.6,4.2,3.6,5.1c2,1.8,3.1,7.8,5,11.2c1.9,3.5-0.3,10.1,1.4,13.9c1.6,3.8,0.3,2.8-0.3,4.8   c-0.6,2.1,0.8,4.7,1.9,7.6c1.1,2.8-0.7,3.5-0.2,7c0.5,3.5-2.9,6.5-3.2,9.7c-0.3,3.3-3,6.5-3.2,9c-0.1,0.9-0.3,2.2-0.5,3.5   c4.7-5.2,7.5-10.8,8.3-13.9c0.3-1.3,0.7-3,1.1-4.8C84.3,57.1,83.8,50.7,83.9,48.1z"/><polygon points="83.7,65 83.7,65 83.7,65  "/><path d="M77.6,21C77.6,21,77.6,21,77.6,21C77.6,21,77.6,21,77.6,21C77.6,21,77.6,21,77.6,21z"/><path d="M69.2,11.4c0.2,0.1,0.4,0.3,0.6,0.4c0,0,0,0,0,0C69.6,11.7,69.4,11.6,69.2,11.4z"/><path d="M73.4,84.6c-0.8,0.9-1.7,1.7-2.7,2.5C71.7,86.3,72.6,85.4,73.4,84.6z"/><path d="M37.9,92.6c-1.2-0.5-2.4-1.1-3.5-1.8C35.5,91.4,36.7,92,37.9,92.6z"/><path d="M48.7,87.4c-1.8-0.9,0-1.7,1.6-2.1c1.6-0.3-0.1-1.6-1.4-2.8s-1.6-4.6-2-6.2c-0.5-1.6,1-1.9-0.1-3.7   c-1.1-1.7-1.6-1.5-0.6-3.2c1-1.7-0.1-1.4-1.2-2.5c-1.2-1.1-0.8-4.8,1-6.9c1.8-2.1,0.9-2.2-0.5-3.3c-1.4-1.1-0.6-2,0.5-5.1   c1.1-3.1-0.2-4.9-2-6.6c-1.8-1.7-1.4-2.1,0.5-4.1c1.9-2,1.9-2.8,0.7-5.4c-1.2-2.5,2.4-4.5,3.6-6.5c1.2-2-1-2.3-2.3-5   c-1.4-2.7,1-3.2,3.8-6s0.1-3.6,0.8-4.3c0.7-0.8,1-3.4,0.5-5.3C51,7,51.8,5.8,52.3,5.3c-0.3,0-0.6-0.1-0.9-0.1   c-2.4,0.6-4.4,2.5-5.8,3.3c-1.5,0.8-3.4,4.3-4.8,5.8c-1.4,1.5-2.4,5-1.9,7.2c0.5,2.2-0.2,2.5-1,4.2s-1,6.5-0.8,8.9   c0.1,2.5-2.3,2.5-1.4,5.2c0.9,2.7-0.2,8.4,0.5,12.3c0.6,3.9-0.3,4.9-1.4,7.7c-1.1,2.8,0.5,6.5,1.8,8.1c1.4,1.6-0.2,2.1,1.1,4.6   c1.3,2.5,0.5,2.7,0,5.2c-0.5,2.5,3.9,4.5,4.2,5.4c0.3,0.9-1-0.4-1.3,1.7c-0.3,2.1,4.4,5.8,5.1,7.3c0.4,0.8,0.5,1.8,0.5,2.5   c1.4,0.2,2.9,0.3,4.5,0.3c0.4,0,0.8,0,1.2,0c0-0.7,0.1-1.4,0.6-1.8c1-0.7-0.4-1.9-0.6-4.1C51.5,86.9,50.5,88.3,48.7,87.4z"/><path d="M51.3,5.2C51.3,5.2,51.3,5.2,51.3,5.2C51.4,5.2,51.4,5.2,51.3,5.2C51.3,5.2,51.3,5.2,51.3,5.2z"/><path d="M51.7,95C51.7,95,51.7,95,51.7,95C51.6,95,51.6,95,51.7,95C51.7,95,51.7,95,51.7,95z"/><path d="M38.8,89.3c-0.8-0.6-1.5-1.7-1-2.8c0.5-1.1-1-2.4-1.1-3.8c-0.1-1.4-1.5-3.4-2.5-6.1c-1-2.8-1.4-3.7-1.1-5.6   c0.4-1.9-0.9-2.3-1.1-4.5s-1.2-3.2-0.4-4.1c0.8-0.9,0.7-1.9,0.3-3.3c-0.5-1.4-0.2-8.7-0.2-11c0-2.3-0.3-2.3-1.2-2.5   c-0.8-0.3-0.2-2.5,0.5-4.3c0.7-1.7-0.5-2.7,0.6-4.4c1.1-1.7,1.9-4.1,1.5-6.2c-0.4-2.1,0.9-7.9,1-9.8s3.3-5.3,4-7.1   c0.6-1.7,0.8-2.2,1.2-2.4c0.5-0.2,2.5-1.2,3.2-2.3s3.2-1.8,3.3-2.6c0-0.5,1.5-1.1,2.6-1.4c-1.1,0-2.3,0-3.4,0   c-1.9,1.3-4.4,3.1-5,4.1c-1,1.7-3.8,2.9-4.7,5.3c-0.9,2.4-2.7,2.2-2.9,3.7c-0.2,1.5-2.7,4.9-2.5,6.5c0.2,1.6-1,2.8-1,4   c-0.1,1.2-0.8,1.2-0.1,3c0.8,1.8,2.2,0.7,0.8,2.5s-3.5,2.9-3,4.7c0.5,1.7-1.7,2.1-1,5c0.7,2.9,1.9,5.8,1.1,8.2   c-0.8,2.5-1.4,5.4-0.4,7.1c1,1.7,1.6,8.3,1.2,10.6c-0.4,2.3-1.2,3.2-0.3,3.9c0.9,0.7-0.5,3.2,0.9,4.3c1.5,1.1,3.2,0.5,2.8,3   c-0.4,2.5-0.2,4,1.3,5.4c1.5,1.4,3.3,0.8,3.5,2.5c0.2,1.7,1.2,3.2,2.2,3.6c1.7,0.7,3.5,1.3,5.4,1.7C43.3,93.7,39.6,89.9,38.8,89.3z   "/><path d="M43.3,94.3c0.1,0,0.1,0,0.2,0C43.4,94.3,43.4,94.3,43.3,94.3C43.3,94.3,43.3,94.3,43.3,94.3z"/><path d="M65.8,90.7c-0.7,0.4-1.4,0.8-2.2,1.2C64.3,91.5,65.1,91.1,65.8,90.7z"/><path d="M56.1,94.5c-0.8,0.2-1.6,0.3-2.4,0.4C54.5,94.7,55.3,94.6,56.1,94.5z"/><path d="M64.5,82.8c-1.2-2.2,1.7-3.9-0.3-6.9c-2-3-1-3.1,0.4-3.3c1.4-0.2,1.6-2.3,0.4-5.2c-1.2-2.9-0.6-2-0.6-4.8   c0-2.8-1.5-2.3,0-4.3c1.5-2.1-0.2-2-0.9-4.9c-0.7-2.9,0.5-6-0.4-8.5c-0.8-2.5-2.5-2.7-1-3.8c1.6-1.1,1.9-1.9,1.4-5.3   c-0.5-3.4-4.3-6.6-3.4-7.4c0.9-0.8,2.1,0.8,2.8-2.1c0.6-2.9-0.3-7.7-1.6-10.6c-1.4-2.9-1-4.5-0.8-6c0.2-1-1-2.5-1.8-3.4   c-1.3-0.3-2.6-0.6-4-0.7c0,0-0.2,0-0.5-0.1C54.1,5.8,54,6.3,54,6.8c-0.2,2.1,0.4,4.9,1.4,8.8c1,3.9-3,2.3-1.4,4.7   c1.7,2.3-1,6.7-0.6,8.5c0.4,1.7-2.5,1.7-3,4.5c-0.5,2.8,1.9,0,2.9,0.2c1,0.2-0.2,3-2,3c-1.8,0-2.4-0.4-2.4,1.7   c0,2.1,3.2,4.4,3.9,7.3c0.6,2.9-3.2,6-2.1,7.5c1.1,1.6,1.4,1.2-0.8,3.2c-2.3,1.9,3.4,10.8,3.9,12.2c0.5,1.4,0.1,2.1-0.7,2.6   c-0.8,0.5-0.5-0.1,1,2.5c1.5,2.6,1.5,3.4,0.1,4.3c-1.4,0.9,0.7,5.7,2.2,7.1c1.5,1.4-1.4,3.8-0.1,5.3c1.2,1.5-1,2,0.1,3   c0.3,0.3,0.5,0.7,0.5,1.1c2.4-0.5,4.7-1.4,6.8-2.4C64.7,88.9,65.4,84.4,64.5,82.8z"/><path d="M53.5,5.4c0.3,0,0.5,0.1,0.7,0.1v0C54,5.5,53.8,5.4,53.5,5.4z"/><path d="M76.7,72.1c0.3-2.2-0.5-3.5,1.2-6.2c1.7-2.8,1.2-7.2,0-9.1c-1.2-1.8-0.7-5.6-0.7-7.2c0-1.6,0.8-2.3-1.1-4.4   c-1.9-2.2,0.7-3.5-0.6-5.3c-1.3-1.9-0.1-4.1,0-7.9c0.1-3.7-1-4.5-3.1-6.7c-2.1-2.2,0.4-3.1,0-6c-0.4-2.9-4-3.8-3.9-6.4   c0-1-0.5-2-1.2-2.8c-2-1.3-4.2-2.4-6.7-3.2c1.4,1.9,3.4,4.8,4.4,7.1c1.5,3.5,2,12.2,2.5,16.5c0.5,4.3-1,5,0.7,8.5   c1.8,3.6,1,7.1,0.8,11.2c-0.2,4.1,1.9,4.8,1.1,8.1c-0.8,3.3-1.2,4.9,0,6.5c1.2,1.6-1.1,4.1-1.5,7.4c-0.4,3.3,1.5,3.6,0.5,5.3   c-1,1.7-1.4,3-1.9,6.5c-0.2,1.8-0.9,4.6-1.5,6.7c1.8-1.1,3.4-2.3,5-3.6c1.1-2.3,2.4-5.7,2.4-7.3C73.1,77.1,76.3,74.4,76.7,72.1z"/><path d="M67.3,10.1C67.3,10.1,67.3,10.1,67.3,10.1c0.1,0.1,0.3,0.2,0.4,0.3C67.5,10.2,67.4,10.1,67.3,10.1z"/><path d="M58.6,6.2C58.7,6.2,58.7,6.2,58.6,6.2c0.1,0,0.1,0,0.2,0.1C58.8,6.3,58.7,6.3,58.6,6.2z"/><path d="M60.4,6.7c0.1,0,0.2,0.1,0.3,0.1c0,0,0,0,0,0C60.6,6.8,60.5,6.8,60.4,6.7z"/></g><text x="0" y="115" fill="#000000" font-size="5px" font-weight="bold" font-family="'Helvetica Neue', Helvetica, Arial-Unicode, Arial, Sans-serif">Created by Royyan Wijaya</text><text x="0" y="120" fill="#000000" font-size="5px" font-weight="bold" font-family="'Helvetica Neue', Helvetica, Arial-Unicode, Arial, Sans-serif">from the Noun Project</text></svg>
