<?xml version="1.0" encoding="utf-8"?>
<!-- Generator: Adobe Illustrator 23.0.3, SVG Export Plug-In . SVG Version: 6.00 Build 0)  -->
<svg version="1.1" id="Capa_1" xmlns="http://www.w3.org/2000/svg" xmlns:xlink="http://www.w3.org/1999/xlink" x="0px" y="0px"
	 viewBox="0 0 56.7 56.7" style="enable-background:new 0 0 56.7 56.7;" xml:space="preserve">
<style type="text/css">
	.st0{fill:#F56BA0;}
</style>
<g>
	<path class="st0" d="M5.4,34.2L5.4,34.2L5.4,34.2L5.4,34.2z"/>
	<path class="st0" d="M4.7,31.8L4.7,31.8L4.7,31.8L4.7,31.8z"/>
	<path class="st0" d="M49.4,37.1C49.5,37.1,49.5,37.1,49.4,37.1C49.5,37.1,49.4,37.1,49.4,37.1L49.4,37.1z"/>
	<path class="st0" d="M43.3,40.6c-0.6,0.7-2.4,0.4-3.8,1.2c-1.4,0.7-2.5-0.1-4.2,0.6c-1.7,0.7-3.1,1.5-3.8,0.6
		c-0.8-0.8-4.3-0.9-5.4-0.6c-1.1,0.3-0.9,0.4-2.6-0.2c-1.6-0.5-3.5-0.1-5.1-0.8c-1.6-0.7-1.7-1.1-2.3-0.8c-0.6,0.3-2.4-1.4-4-1.8
		s-1.7-1.9-2.8-2.2C8,36.3,7.4,36.7,7,35.7c-0.3-0.7-1.5-2.7-2.3-3.9c0.1,0.4,0.1,0.7,0.2,1.1c0.1,0.4,0.3,0.8,0.5,1.4
		c1.1,1.4,2.4,2.9,3.1,3.2c1.1,0.4,1.4,2.1,3.6,2.6s3.8,1.7,4.7,2.1c0.9,0.4,1.7,0.6,2.2,0.5c0.5-0.1,4,1.1,5.1,1.3
		c1.1,0.2,1-0.3,2.4,0c1.4,0.3,1.6,0.5,2.2,0.1s1,0.5,2.2,0.1c1.2-0.4,2.5,0.7,3.4,0.4c0.8-0.4,1.9-0.7,2.9-0.7
		c1.1-0.1,1.1-0.1,2.2-0.4c1.1-0.4,2-0.1,3.5-1.1c1.1-0.7,3.3-1.8,4.4-2.3c0.8-0.8,1.6-1.7,2.3-2.8c-0.7,0.7-1.6,1.3-2.5,1.6
		C44.8,39.5,43.9,39.9,43.3,40.6z"/>
	<path class="st0" d="M40.1,43.8c-1.1-0.2-1.4,0.7-3.1,0.7c-1.7,0.1-3.7,1.3-4.3,0.9c-0.5-0.4-1.8-0.7-3.3-0.3
		c-1.5,0.5-2.4-0.4-3.4-0.1c-1,0.3-5.4-1-6.2-1.1c-0.8-0.1-1.2-0.8-2.8-0.8c-1.6-0.1-2.5-1.2-3.8-1.6c-1.3-0.5-1.8-1.2-3.4-2
		c-0.7-0.4-2.1-1.7-3.1-2.8c1.8,2.8,5.2,6.2,11.3,8.1c9.7,3,19.5,0.8,22.8-0.7c1.2-0.5,2.8-1.3,4.5-2.6c-0.4,0.1-0.8,0.3-1.3,0.5
		C42.3,43,41.2,43.9,40.1,43.8z"/>
	<path class="st0" d="M45.4,41.4C45.4,41.4,45.4,41.4,45.4,41.4C45.4,41.4,45.4,41.4,45.4,41.4L45.4,41.4z"/>
	<path class="st0" d="M27.3,10.5c-1.8-0.1-2.3,0.1-3.9,0.8c-1.6,0.8-1.9,0.5-2.8,0.3c-0.9-0.2-1-0.3-2.5,0.4
		c-0.9,0.4-3.4,1.2-5.1,1.8c-1.7,1.1-3.4,2.5-4.8,4.1c1.1-0.7,2.2-1.4,2.7-1.9c0.9-1.1,4.1-1.6,5.9-2.6c1.8-1,5.3,0.2,7.3-0.7
		c2-0.8,1.5-0.2,2.5,0.2c1.1,0.3,2.5-0.4,4-1c1.5-0.6,1.8,0.4,3.7,0.1c1.8-0.3,3.4,1.5,5.1,1.7c1.7,0.2,3.4,1.6,4.7,1.7
		c0.5,0.1,1.2,0.2,1.8,0.3c-2.7-2.5-5.7-3.9-7.3-4.4c-0.7-0.2-1.6-0.4-2.5-0.6C32.1,10.3,28.7,10.6,27.3,10.5z"/>
	<path class="st0" d="M36.2,10.6L36.2,10.6L36.2,10.6z"/>
	<path class="st0" d="M13.1,13.8L13.1,13.8L13.1,13.8L13.1,13.8z"/>
	<path class="st0" d="M8,18.2c0.1-0.1,0.2-0.2,0.2-0.3l0,0C8.2,18,8.1,18.1,8,18.2z"/>
	<path class="st0" d="M46.5,16c0.5,0.4,0.9,0.9,1.3,1.4C47.4,16.9,46.9,16.4,46.5,16z"/>
	<path class="st0" d="M50.7,34.7c-0.3,0.6-0.6,1.3-0.9,1.8C50.1,36,50.4,35.3,50.7,34.7z"/>
	<path class="st0" d="M48,29c-0.5,0.9-0.9,0-1.1-0.8c-0.2-0.8-0.8,0.1-1.5,0.7c-0.6,0.7-2.4,0.8-3.3,1.1c-0.8,0.3-1-0.5-1.9,0.1
		c-0.9,0.6-0.8,0.8-1.7,0.3s-0.7,0.1-1.3,0.6c-0.6,0.6-2.5,0.4-3.6-0.5s-1.2-0.5-1.7,0.3s-1.1,0.3-2.7-0.3c-1.6-0.6-2.6,0.1-3.5,1.1
		c-0.9,0.9-1.1,0.7-2.2-0.3s-1.5-1-2.8-0.4c-1.3,0.6-2.4-1.3-3.4-1.9c-1.1-0.6-1.2,0.5-2.6,1.2c-1.4,0.7-1.7-0.5-3.2-2
		s-1.9-0.1-2.3-0.4c-0.4-0.4-1.8-0.5-2.8-0.3c-0.7,0.3-1.4-0.1-1.6-0.4c0,0.2-0.1,0.3-0.1,0.5c0.3,1.3,1.3,2.3,1.7,3.1
		c0.4,0.8,2.3,1.8,3.1,2.5c0.8,0.7,2.6,1.3,3.8,1c1.2-0.3,1.3,0.1,2.2,0.5c0.9,0.4,3.4,0.5,4.7,0.4c1.3-0.1,1.3,1.2,2.7,0.7
		c1.4-0.5,4.4,0.1,6.5-0.3c2.1-0.3,2.6,0.2,4.1,0.7c1.5,0.6,3.4-0.3,4.3-0.9c0.8-0.7,1.1,0.1,2.4-0.6c1.3-0.7,1.4-0.3,2.7,0
		s2.4-2.1,2.8-2.2c0.5-0.2-0.2,0.5,0.9,0.7c1.1,0.2,3.1-2.3,3.8-2.7c0.4-0.2,0.9-0.3,1.3-0.3c0.1-0.7,0.2-1.5,0.2-2.4
		c0-0.2,0-0.4,0-0.6c-0.4,0-0.7-0.1-0.9-0.3c-0.4-0.5-1,0.2-2.2,0.3C47.7,27.5,48.5,28.1,48,29z"/>
	<path class="st0" d="M4.7,27.7L4.7,27.7C4.7,27.6,4.7,27.6,4.7,27.7L4.7,27.7z"/>
	<path class="st0" d="M52,27.4L52,27.4C52,27.5,52,27.5,52,27.4L52,27.4z"/>
	<path class="st0" d="M49,34.2c-0.3,0.4-0.9,0.8-1.5,0.5c-0.6-0.3-1.3,0.5-2,0.6c-0.7,0.1-1.8,0.8-3.2,1.3c-1.5,0.5-1.9,0.7-2.9,0.6
		c-1-0.2-1.2,0.5-2.4,0.6c-1.2,0.1-1.7,0.6-2.2,0.2s-1-0.4-1.7-0.2c-0.7,0.3-4.6,0.1-5.8,0.1s-1.2,0.2-1.3,0.6
		c-0.2,0.4-1.3,0.1-2.3-0.3c-0.9-0.4-1.4,0.3-2.3-0.3c-0.9-0.6-2.2-1-3.3-0.8c-1.1,0.2-4.2-0.5-5.2-0.5s-2.8-1.7-3.7-2.1
		C8.4,34.3,8.1,34.2,8,34c-0.1-0.3-0.6-1.3-1.2-1.7c-0.6-0.4-0.9-1.7-1.4-1.7c-0.3,0-0.6-0.8-0.7-1.4c0,0.6,0,1.2,0,1.8
		c0.7,1,1.6,2.3,2.2,2.6c0.9,0.5,1.5,2,2.8,2.5s1.2,1.4,1.9,1.5s2.6,1.4,3.4,1.3c0.8-0.1,1.5,0.5,2.1,0.5c0.6,0.1,0.6,0.4,1.6,0.1
		c0.9-0.4,0.4-1.2,1.3-0.4c0.9,0.7,1.5,1.8,2.5,1.6c0.9-0.3,1.1,0.9,2.6,0.5c1.5-0.4,3.1-1,4.3-0.6c1.3,0.4,2.8,0.7,3.7,0.2
		c0.9-0.5,4.4-0.8,5.6-0.6c1.2,0.2,1.7,0.6,2.1,0.2c0.4-0.5,1.7,0.3,2.3-0.5c0.6-0.8,0.3-1.7,1.6-1.5c1.3,0.2,2.1,0.1,2.8-0.7
		c0.7-0.8,0.4-1.7,1.3-1.8c0.9-0.1,1.7-0.6,1.9-1.2c0.4-0.9,0.7-1.8,0.9-2.8C51.3,31.9,49.3,33.8,49,34.2z"/>
	<path class="st0" d="M51.6,31.9c0-0.1,0-0.1,0-0.1C51.6,31.8,51.6,31.8,51.6,31.9L51.6,31.9z"/>
	<path class="st0" d="M49.7,20c0.2,0.4,0.4,0.7,0.6,1.2C50.2,20.8,49.9,20.4,49.7,20z"/>
	<path class="st0" d="M51.7,25.1c0.1,0.4,0.2,0.8,0.2,1.3C51.8,26,51.8,25.5,51.7,25.1z"/>
	<path class="st0" d="M45.6,20.7c-1.2,0.6-2.1-0.9-3.6,0.2c-1.6,1.1-1.6,0.5-1.7-0.2s-1.2-0.8-2.7-0.2c-1.5,0.6-1.1,0.3-2.5,0.3
		s-1.2,0.8-2.3,0c-1.1-0.8-1.1,0.1-2.6,0.5c-1.5,0.4-3.2-0.3-4.5,0.2c-1.3,0.4-1.4,1.3-2,0.5c-0.6-0.8-1-1-2.8-0.7
		c-1.8,0.3-3.5,2.3-3.9,1.8c-0.4-0.5,0.4-1.1-1.1-1.5c-1.5-0.3-4.1,0.2-5.6,0.8c-1.5,0.7-2.4,0.5-3.2,0.4c-0.5-0.1-1.3,0.5-1.8,0.9
		C5.2,24.4,5,25.1,5,25.9c0,0,0,0.1-0.1,0.3c0.2,0.1,0.4,0.1,0.7,0.1c1.1,0.1,2.6-0.2,4.6-0.7s1.2,1.6,2.5,0.7
		c1.2-0.9,3.5,0.5,4.5,0.3c0.9-0.2,0.9,1.3,2.4,1.6c1.5,0.3,0-1,0.1-1.5s1.6,0.1,1.6,1.1s-0.2,1.3,0.9,1.3c1.1,0,2.3-1.7,3.8-2.1
		c1.5-0.3,3.2,1.7,3.9,1.1c0.8-0.6,0.6-0.7,1.7,0.4c1,1.2,5.7-1.8,6.4-2.1c0.7-0.3,1.1-0.1,1.4,0.4s-0.1,0.3,1.3-0.5
		c1.4-0.8,1.8-0.8,2.3-0.1c0.5,0.7,3-0.4,3.7-1.2c0.7-0.8,2,0.7,2.8,0.1c0.8-0.6,1.1,0.5,1.6-0.1c0.2-0.2,0.4-0.3,0.6-0.3
		c-0.3-1.3-0.7-2.5-1.3-3.6C48.8,20.6,46.4,20.2,45.6,20.7z"/>
	<path class="st0" d="M4.9,26.5c0-0.2,0.1-0.3,0.1-0.4l0,0C4.9,26.2,4.9,26.3,4.9,26.5z"/>
	<path class="st0" d="M39.9,14.3c-1.2-0.2-1.8,0.3-3.3-0.6c-1.5-0.9-3.8-0.6-4.8,0C31,14.3,29,14,28.1,14c-0.8,0-1.2-0.4-2.3,0.6
		c-1.2,1-1.8-0.4-2.8,0.3c-1,0.7-2.2,0.1-4.2,0c-1.9-0.1-2.4,0.5-3.5,1.6s-1.6-0.2-3.2,0s-2,2.1-3.4,2.1c-0.5,0-1.1,0.3-1.5,0.6
		c-0.7,1.1-1.3,2.2-1.7,3.5c1-0.7,2.5-1.8,3.7-2.3c1.8-0.8,6.4-1.1,8.7-1.3c2.3-0.3,2.6,0.5,4.5-0.4c1.9-0.9,3.7-0.5,5.9-0.4
		s2.5-1,4.3-0.6s2.6,0.6,3.4,0s2.2,0.6,3.9,0.8s1.9-0.8,2.8-0.3c0.9,0.5,1.6,0.7,3.4,1c0.9,0.1,2.4,0.5,3.5,0.8
		c-0.6-0.9-1.2-1.8-1.9-2.6c-1.2-0.6-3-1.3-3.8-1.3C42.6,16.2,41.2,14.5,39.9,14.3z"/>
	<path class="st0" d="M7.3,19.2L7.3,19.2c0.1-0.1,0.1-0.2,0.2-0.2C7.4,19.1,7.3,19.2,7.3,19.2z"/>
	<path class="st0" d="M5.3,23.8C5.3,23.8,5.3,23.8,5.3,23.8c0-0.1,0-0.1,0.1-0.1C5.3,23.7,5.3,23.8,5.3,23.8z"/>
	<path class="st0" d="M5.5,22.9c0-0.1,0.1-0.1,0.1-0.2l0,0C5.6,22.8,5.6,22.8,5.5,22.9z"/>
</g>
</svg>
