<?xml version="1.0" encoding="utf-8"?>
<!-- Generator: Adobe Illustrator 23.0.3, SVG Export Plug-In . SVG Version: 6.00 Build 0)  -->
<svg version="1.1" id="Capa_1" xmlns="http://www.w3.org/2000/svg" xmlns:xlink="http://www.w3.org/1999/xlink" x="0px" y="0px"
	 viewBox="0 0 24 30" style="enable-background:new 0 0 24 30;" xml:space="preserve">
<style type="text/css">
	.st0{fill:#F56BA0;}
</style>
<g>
	<polygon class="st0" points="10.4,17.9 13.6,15.9 13.6,12.9 10.4,12.9 	"/>
	<path class="st0" d="M10.4,25.2c0,0.9,0.7,1.6,1.6,1.6c0.9,0,1.6-0.7,1.6-1.6v-3.6l-3.2,2C10.4,23.6,10.4,25.2,10.4,25.2z"/>
	<polygon class="st0" points="10.4,22.7 13.6,20.7 13.6,19.3 10.4,21.3 	"/>
	<path class="st0" d="M10.4,10v2.1h3.2v-2c0-0.7,0.2-1.3,0.6-1.8H9.8C10.2,8.7,10.4,9.3,10.4,10z"/>
	<polygon class="st0" points="10.4,20.3 13.6,18.3 13.6,18 13.6,16.9 10.4,18.9 	"/>
	<path class="st0" d="M19.2,3.9c0-0.5-0.2-0.7-0.7-0.7h-13C5,3.2,4.8,3.4,4.8,3.8c0,1,0,1.9,0,2.9c0,0.4,0.2,0.7,0.7,0.7h1
		c0.4,0,0.9,0,1.3,0h8.4l0,0h2.2c0.5,0,0.7-0.2,0.7-0.7C19.2,5.7,19.2,4.8,19.2,3.9z M17.9,6.6H6.1c-0.2,0-0.4-0.2-0.4-0.4
		c0-0.2,0.2-0.4,0.4-0.4h11.8c0.2,0,0.4,0.2,0.4,0.4S18.1,6.6,17.9,6.6z M17.9,4.9H6.1c-0.2,0-0.4-0.2-0.4-0.4S5.9,4,6.1,4h11.8
		c0.2,0,0.4,0.2,0.4,0.4S18.1,4.9,17.9,4.9z"/>
</g>
</svg>
