<?xml version="1.0" encoding="utf-8"?>
<!-- Generator: Adobe Illustrator 23.0.3, SVG Export Plug-In . SVG Version: 6.00 Build 0)  -->
<svg version="1.1" id="Capa_1" xmlns="http://www.w3.org/2000/svg" xmlns:xlink="http://www.w3.org/1999/xlink" x="0px" y="0px"
	 viewBox="0 0 100 125" style="enable-background:new 0 0 100 125;" xml:space="preserve">
<style type="text/css">
	.st0{fill:#F56BA0;}
</style>
<g>
	<circle class="st0" cx="8.6" cy="41.3" r="5.7"/>
	<path class="st0" d="M79.4,59.2c-8.1,0-15,5.2-17.6,12.4L29.6,59.2c0.2-1.3-0.5-2.6-1.7-3.1l-14.4-5.7c-0.1,0-0.2-0.1-0.3-0.1
		c-1-1.8-3.2-2.6-5.2-1.8c-2.1,0.9-3,3.3-2.1,5.4l6.5,14.8c0.2,0.5,0.6,1,1,1.4L11.5,77l-8.6,7.5c-1.2,1-1.3,2.8-0.2,4
		c0.4,0.4,0.9,0.7,1.4,0.9c0.9,0.2,1.8,0,2.6-0.6l9.1-8.1c0.4-0.4,0.7-0.8,0.8-1.3l1.4-4.9l7.1,3.4l5,9.7c0.7,1.4,2.4,1.9,3.8,1.2
		c1.4-0.7,1.9-2.4,1.2-3.8l-5.5-10.6c-0.3-0.6-0.7-1-1.3-1.3L19.6,69c0.6-1.1,0.7-2.4,0.2-3.6l-3.4-7.8l9.4,3.7
		c0.5,0.2,1,0.2,1.4,0.2c0.7-0.1,1.4-0.5,1.9-1.1l32.3,12.4c-0.4,1.6-0.7,3.3-0.7,5c0,3.7,1.1,7.2,3,10.1H95c1.9-2.9,3-6.4,3-10.1
		C98,67.5,89.7,59.2,79.4,59.2z"/>
</g>
</svg>
