<?xml version="1.0" encoding="utf-8"?>
<!-- Generator: Adobe Illustrator 23.0.3, SVG Export Plug-In . SVG Version: 6.00 Build 0)  -->
<svg version="1.1" id="Capa_1" xmlns="http://www.w3.org/2000/svg" xmlns:xlink="http://www.w3.org/1999/xlink" x="0px" y="0px"
	 viewBox="0 0 64 80" style="enable-background:new 0 0 64 80;" xml:space="preserve">
<style type="text/css">
	.st0{fill:#F56BA0;}
</style>
<title>hide, eye, invisible</title>
<g>
	<path class="st0" d="M38.6,35.4c0.8,1.2,1.3,2.5,1.4,3.9c0,0.2,0,0.5,0,0.7c0,2.4-1,4.6-2.9,6.2c-0.3,0.2-0.6,0.4-0.9,0.6
		c-1.2,0.8-2.6,1.2-4,1.3L38.6,35.4z M59,39.2C55.2,34,49.9,30,43.9,27.6c-0.7-0.3-1.5,0-1.9,0.7l-2,4c0.8,0.8,1.5,1.8,2,2.8
		c2.6,5.5,0.3,12.1-5.2,14.8c-0.8,0.4-1.6,0.6-2.4,0.8C33.6,51,32.8,51,32,51.1c-0.4,0-0.7,0-1.1,0l-0.7,1.4c-0.4,0.8,0,1.7,0.7,2
		c0.2,0.1,0.3,0.1,0.5,0.1H32c10.7,0,20.7-5.1,27.1-13.7C59.4,40.3,59.4,39.7,59,39.2z M37.5,32.1l-8.4,17.2L27.3,53l-0.1,0.2
		L24,59.8c-0.3,0.5-0.8,0.8-1.4,0.8c-0.2,0-0.4-0.1-0.6-0.2c-0.7-0.4-1-1.3-0.7-2l2.5-5C16.2,51.6,9.6,47.1,5,40.9c0,0,0,0-0.1-0.1
		v-0.1c0,0-0.1-0.1-0.1-0.1l-0.1-0.2c0-0.1,0-0.1,0-0.2c0-0.1,0-0.3,0-0.4c0-0.1,0-0.1,0-0.2l0.1-0.2c0,0,0-0.1,0.1-0.1
		c0,0,0-0.1,0-0.1c6.3-8.6,16.4-13.7,27.1-13.7c1.8,0,3.5,0.1,5.2,0.4l2.8-5.7c0.4-0.7,1.3-1.1,2-0.7c0.7,0.4,1.1,1.3,0.7,2
		l-3.2,6.6l-0.1,0.2L37.5,32.1z M35.4,29.5c-5.8-1.9-12.1,1.2-14,7c-1.6,4.7,0.2,9.9,4.3,12.7l1.3-2.7c-3.6-2.7-4.3-7.7-1.6-11.3
		c1.5-2,3.9-3.2,6.5-3.2c0.7,0,1.4,0.1,2.1,0.3L35.4,29.5z"/>
</g>
</svg>
