<?xml version="1.0" encoding="utf-8"?>
<!-- Generator: Adobe Illustrator 23.0.3, SVG Export Plug-In . SVG Version: 6.00 Build 0)  -->
<svg version="1.1" id="Capa_1" xmlns="http://www.w3.org/2000/svg" xmlns:xlink="http://www.w3.org/1999/xlink" x="0px" y="0px"
	 viewBox="0 0 100 125" style="enable-background:new 0 0 100 125;" xml:space="preserve">
<style type="text/css">
	.st0{fill:#F56BA0;}
</style>
<title>Tuck-in Merger</title>
<path class="st0" d="M83.8,53.2c1.8,8.1,1.3,14.7-1.4,20.2C78,82.1,68.5,86.5,59.1,89.5l5.1,2.8c0.7,0.4,1,1.3,0.6,2
	c-0.3,0.5-0.8,0.8-1.3,0.8c-0.3,0-0.5-0.1-0.7-0.2l-9.5-5.2l5-9.7c0.4-0.7,1.3-1,2-0.6c0.7,0.4,1,1.3,0.6,2l-2.7,5.2
	c11.8-3.8,18.3-8.3,21.5-14.6c2.4-4.7,2.8-10.6,1.2-17.9c-1.3,0.3-2.6,0.5-3.9,0.5c-9.3,0-16.9-7.5-16.9-16.8
	C60.2,28.5,67.7,21,77,21c9.3,0,16.9,7.5,16.9,16.8C93.9,44.5,89.9,50.6,83.8,53.2z M21.5,89.3c-0.1-0.7-0.2-1.5-0.2-2.3
	c0-0.3-0.1-0.5-0.3-0.7c-0.2-0.2-0.5-0.3-0.7-0.3l-2,0.1c-0.6,0-1,0.4-1,1c0,1,0.1,1.9,0.3,2.9c0.1,0.5,0.5,0.8,1,0.8h0.2l2-0.3
	C21.2,90.4,21.6,89.9,21.5,89.3C21.5,89.3,21.5,89.3,21.5,89.3z M23.9,95.3c0-0.3,0-0.5-0.2-0.8c-0.4-0.6-0.8-1.2-1.1-1.9
	c-0.2-0.5-0.8-0.7-1.3-0.5c0,0,0,0,0,0l-1.8,0.9c-0.2,0.1-0.4,0.3-0.5,0.6c-0.1,0.3-0.1,0.5,0.1,0.8c0.4,0.9,0.9,1.7,1.5,2.5
	c0.2,0.3,0.5,0.4,0.8,0.4c0.2,0,0.4-0.1,0.6-0.2l1.6-1.2C23.7,95.9,23.8,95.6,23.9,95.3L23.9,95.3z M19,79.8c-0.4,0.9-0.7,1.8-1,2.7
	c-0.1,0.5,0.2,1.1,0.7,1.2l1.9,0.6c0.1,0,0.2,0,0.3,0c0.2,0,0.3,0,0.5-0.1c0.2-0.1,0.4-0.3,0.5-0.6c0.2-0.7,0.5-1.4,0.8-2.1
	c0.1-0.2,0.1-0.5,0-0.8c-0.1-0.3-0.3-0.5-0.5-0.6l-1.8-0.9C19.8,79,19.2,79.2,19,79.8C19,79.7,19,79.8,19,79.8z M42.3,72.4
	c-0.5-0.3-1.1-0.1-1.4,0.4c0,0,0,0,0,0l-1,1.8c-0.1,0.2-0.1,0.5-0.1,0.8c0.1,0.3,0.2,0.5,0.5,0.6c0.6,0.4,1.3,0.8,1.8,1.2
	c0.2,0.1,0.4,0.2,0.6,0.2c0.3,0,0.6-0.1,0.8-0.4l1.3-1.6c0.3-0.4,0.3-1.1-0.1-1.4c0,0,0,0,0,0C43.9,73.4,43.1,72.8,42.3,72.4z
	 M23.8,78.9c0.3,0,0.6-0.1,0.7-0.3c0.5-0.6,1-1.1,1.6-1.5c0.4-0.3,0.5-1,0.2-1.4l-1.2-1.6c-0.2-0.2-0.4-0.3-0.7-0.4
	c-0.3,0-0.5,0-0.7,0.2c-0.8,0.6-1.5,1.3-2.1,2c-0.4,0.4-0.3,1,0.1,1.4l1.5,1.3C23.3,78.8,23.6,78.9,23.8,78.9z M44.6,79.7
	c0.4,0.6,0.8,1.2,1.1,1.9c0.1,0.2,0.3,0.4,0.6,0.5c0.1,0,0.2,0,0.3,0c0.1,0,0.3,0,0.4-0.1l1.8-0.9c0.2-0.1,0.4-0.3,0.5-0.6
	c0.1-0.2,0.1-0.5,0-0.8c-0.4-0.9-0.9-1.7-1.5-2.5c-0.2-0.2-0.4-0.4-0.7-0.4c-0.3,0-0.5,0-0.8,0.2l-1.6,1.2
	C44.4,78.5,44.3,79.1,44.6,79.7C44.6,79.6,44.6,79.7,44.6,79.7z M28,98.5c-0.6-0.4-1.3-0.8-1.8-1.2C26,97.1,25.7,97,25.4,97
	c-0.3,0-0.5,0.2-0.7,0.4l-1.3,1.6c-0.2,0.2-0.2,0.5-0.2,0.7c0,0.3,0.2,0.5,0.4,0.7c0.7,0.6,1.5,1.1,2.3,1.6c0.1,0.1,0.3,0.1,0.5,0.1
	c0.4,0,0.7-0.2,0.9-0.5l1-1.8C28.6,99.3,28.5,98.7,28,98.5z M49.6,83.5l-2,0.3c-0.5,0.1-0.9,0.6-0.8,1.2c0,0,0,0,0,0
	c0.1,0.7,0.2,1.5,0.2,2.2l0,0c0,0.6,0.4,1,1,1l0,0h2c0.6,0,1-0.4,1-1c0-1-0.1-1.9-0.2-2.9C50.7,83.7,50.2,83.4,49.6,83.5
	C49.6,83.5,49.6,83.5,49.6,83.5z M32.1,73.4l-0.4-2c-0.1-0.5-0.7-0.9-1.2-0.8c0,0,0,0,0,0c-0.9,0.2-1.9,0.5-2.8,0.9
	c-0.2,0.1-0.4,0.3-0.5,0.5c-0.1,0.2-0.1,0.5,0,0.8l0.8,1.8c0.1,0.2,0.3,0.4,0.5,0.5c0.1,0.1,0.2,0.1,0.4,0.1c0.1,0,0.3,0,0.4-0.1
	c0.7-0.3,1.4-0.5,2.1-0.7C31.8,74.4,32.2,73.9,32.1,73.4z M40.4,99.5c-0.1-0.2-0.3-0.4-0.5-0.5c-0.2-0.1-0.5-0.1-0.8,0
	c-0.7,0.3-1.4,0.5-2.1,0.7c-0.5,0.1-0.9,0.7-0.8,1.2c0,0,0,0,0,0l0.4,1.9c0.1,0.5,0.5,0.8,1,0.8h0.2c0.9-0.2,1.9-0.5,2.8-0.9
	c0.5-0.2,0.7-0.8,0.5-1.3L40.4,99.5z M49.7,90.5L47.7,90c-0.5-0.1-1.1,0.2-1.2,0.7c-0.2,0.7-0.5,1.4-0.8,2.1c-0.1,0.2-0.1,0.5,0,0.8
	c0.1,0.3,0.3,0.5,0.5,0.6L48,95c0.1,0.1,0.3,0.1,0.4,0.1c0.1,0,0.2,0,0.3,0c0.3-0.1,0.5-0.3,0.6-0.5c0.4-0.9,0.7-1.8,1-2.7
	C50.5,91.3,50.2,90.7,49.7,90.5L49.7,90.5z M45.2,95.6c-0.4-0.4-1-0.3-1.4,0.1c-0.5,0.5-1,1.1-1.6,1.5c-0.4,0.3-0.5,1-0.1,1.4
	l1.3,1.6c0.2,0.2,0.4,0.3,0.7,0.4H44c0.2,0,0.4-0.1,0.6-0.2c0.8-0.6,1.5-1.3,2.1-2c0.4-0.4,0.3-1-0.1-1.4c0,0,0,0,0,0L45.2,95.6z
	 M37.3,74.6c0.5,0,0.9-0.3,1-0.8l0.5-2c0.1-0.3,0-0.5-0.1-0.8c-0.1-0.2-0.4-0.4-0.6-0.4c-0.9-0.2-1.9-0.4-2.9-0.4
	c-0.6,0-1,0.4-1,0.9c0,0,0,0,0,0.1l-0.1,2c0,0.6,0.4,1,0.9,1.1c0,0,0,0,0.1,0c0.7,0,1.5,0.1,2.2,0.3L37.3,74.6z M33.5,100
	c-0.7,0-1.5-0.1-2.2-0.3c-0.3-0.1-0.5,0-0.8,0.1c-0.2,0.1-0.4,0.4-0.4,0.6l-0.5,2c-0.1,0.5,0.2,1.1,0.7,1.2c0,0,0,0,0,0
	c0.9,0.2,1.9,0.3,2.9,0.4h0c0.6,0,1-0.4,1-1l0.1-2C34.4,100.5,34,100,33.5,100z M62.1,60.5c0-15.5-12.5-28-27.9-28.1
	S6.2,44.9,6.1,60.3c0,8,3.4,15.6,9.3,20.9C18.7,71,29.7,65.3,40,68.5c6.1,1.9,10.9,6.7,12.8,12.8C58.7,76,62.1,68.4,62.1,60.5z"/>
</svg>
