<?xml version="1.0" encoding="utf-8"?>
<!-- Generator: Adobe Illustrator 23.0.3, SVG Export Plug-In . SVG Version: 6.00 Build 0)  -->
<svg version="1.1" id="Capa_1" xmlns="http://www.w3.org/2000/svg" xmlns:xlink="http://www.w3.org/1999/xlink" x="0px" y="0px"
	 viewBox="0 0 70 87.5" style="enable-background:new 0 0 70 87.5;" xml:space="preserve">
<style type="text/css">
	.st0{fill:#F56BA0;}
</style>
<g>
	<path class="st0" d="M25.4,46.3c13.3,0,23.4-4.7,23.4-10.9c0-6.1-10.7-10.9-24.4-10.9C11.2,24.4,2,28.9,2,35.4
		C2,41.6,12,46.3,25.4,46.3z M24.4,29.4c11.5,0,18.2,3.6,19.2,5.5c0.1,0.3,0.2,0.6,0,0.8c-0.8,1.9-6.9,5.5-18.3,5.5
		c-10.8,0-17.7-3.4-18.3-5.7c0-0.1,0-0.2,0-0.3C7,33.2,12.8,29.4,24.4,29.4z"/>
	<path class="st0" d="M65.3,37.8l2.5-3.4c0.3-0.4,0.3-0.8,0-1.2l-2.5-3.3l2.5-4c0.2-0.3,0.2-0.7,0-1c-0.2-0.3-0.5-0.5-0.9-0.5H38.8
		c7.1,2.2,11.7,6,11.9,10.6l0,0v8.3H67c0.4,0,0.7-0.2,0.9-0.5c0.2-0.3,0.2-0.7,0-1L65.3,37.8z"/>
	<path class="st0" d="M25.4,48.3c-10.9,0-19.6-3-23.4-7.6v11.5c0,6.1,10.7,10.9,24.4,10.9c13.2,0,22.4-4.5,22.4-10.9V40.6
		C45,45.3,36.3,48.3,25.4,48.3z"/>
</g>
</svg>
