<?xml version="1.0" encoding="utf-8"?>
<!-- Generator: Adobe Illustrator 23.0.3, SVG Export Plug-In . SVG Version: 6.00 Build 0)  -->
<svg version="1.1" id="Capa_1" xmlns="http://www.w3.org/2000/svg" xmlns:xlink="http://www.w3.org/1999/xlink" x="0px" y="0px"
	 viewBox="0 0 64 80" style="enable-background:new 0 0 64 80;" xml:space="preserve">
<style type="text/css">
	.st0{fill:#F56BA0;}
</style>
<title>ok, tick, confirm, approve</title>
<g>
	<path class="st0" d="M32,15.3C18.3,15.3,7.3,26.3,7.3,40S18.3,64.7,32,64.7S56.7,53.7,56.7,40C56.7,26.3,45.7,15.3,32,15.3z
		 M44.8,35.8L30.9,52.4c-0.3,0.3-0.6,0.5-1,0.5h-0.1c-0.4,0-0.7-0.1-1-0.4l-10.2-9.2c-0.3-0.3-0.5-0.6-0.5-1c0-0.4,0.1-0.8,0.4-1.1
		l3.8-4.1c0.6-0.6,1.5-0.6,2.1-0.1l4.5,3.9l10.1-11.3c0.3-0.3,0.7-0.5,1.1-0.5c0.4,0,0.9,0.2,1.1,0.5l3.6,4.3
		C45.3,34.5,45.3,35.3,44.8,35.8z M40,32.9l1.7,2L29.6,49.3l-7.9-7.2l1.8-1.9l4.5,4c0.6,0.5,1.6,0.5,2.1-0.1L40,32.9z"/>
</g>
</svg>
